<svg xmlns="http://www.w3.org/2000/svg" xmlns:xlink="http://www.w3.org/1999/xlink" width="171.884" height="213.86" viewBox="0 0 171.884 213.86">
  <defs>
    <linearGradient id="linear-gradient" x1="3.232" y1="17.737" x2="3.899" y2="17.737" gradientUnits="objectBoundingBox">
      <stop offset="0" stop-color="#363636"/>
      <stop offset="0.517" stop-color="#3b3b3b"/>
      <stop offset="1" stop-color="#494949"/>
    </linearGradient>
    <linearGradient id="linear-gradient-2" x1="3.232" y1="9.274" x2="3.899" y2="9.274" gradientUnits="objectBoundingBox">
      <stop offset="0" stop-color="#e4e7fb"/>
      <stop offset="0.527" stop-color="#d2d7f6"/>
      <stop offset="1" stop-color="#e4e7fb"/>
    </linearGradient>
    <linearGradient id="linear-gradient-3" x1="65.126" y1="157.598" x2="65.792" y2="157.598" xlink:href="#linear-gradient-2"/>
    <linearGradient id="linear-gradient-4" x1="67.959" y1="159.88" x2="68.625" y2="159.88" xlink:href="#linear-gradient-2"/>
    <linearGradient id="linear-gradient-5" x1="70.873" y1="157.548" x2="71.539" y2="157.548" xlink:href="#linear-gradient-2"/>
    <linearGradient id="linear-gradient-6" x1="68.034" y1="155.216" x2="68.7" y2="155.216" xlink:href="#linear-gradient-2"/>
    <clipPath id="clip-path">
      <rect id="Rectangle_2636" data-name="Rectangle 2636" width="109.763" height="156.159" fill="none"/>
    </clipPath>
    <clipPath id="clip-path-2">
      <rect id="Rectangle_2612" data-name="Rectangle 2612" width="109.762" height="156.159" fill="none"/>
    </clipPath>
    <clipPath id="clip-path-3">
      <rect id="Rectangle_2603" data-name="Rectangle 2603" width="30.002" height="30.002" fill="none"/>
    </clipPath>
    <clipPath id="clip-path-4">
      <path id="Path_99189" data-name="Path 99189" d="M234.938,1235.2a15,15,0,1,0,15.131,14.87,15,15,0,0,0-15.131-14.87" transform="translate(-220.067 -1235.196)" fill="none"/>
    </clipPath>
    <radialGradient id="radial-gradient" cx="0.5" cy="0.5" r="0.493" gradientUnits="objectBoundingBox">
      <stop offset="0" stop-color="#5edcff"/>
      <stop offset="0.021" stop-color="#5edcff"/>
      <stop offset="0.116" stop-color="#0339ff"/>
      <stop offset="0.159" stop-color="#091df4"/>
      <stop offset="0.204" stop-color="#0f07ec"/>
      <stop offset="0.232" stop-color="#1100e9"/>
      <stop offset="0.286" stop-color="#0d00ba"/>
      <stop offset="0.344" stop-color="#0a008e"/>
      <stop offset="0.408" stop-color="#070068"/>
      <stop offset="0.475" stop-color="#050047"/>
      <stop offset="0.546" stop-color="#03002d"/>
      <stop offset="0.625" stop-color="#010019"/>
      <stop offset="0.714" stop-color="#00000a"/>
      <stop offset="0.821" stop-color="#000002"/>
      <stop offset="1"/>
    </radialGradient>
    <clipPath id="clip-path-5">
      <rect id="Rectangle_2605" data-name="Rectangle 2605" width="30.002" height="30.001" fill="none"/>
    </clipPath>
    <clipPath id="clip-path-6">
      <path id="Path_99190" data-name="Path 99190" d="M173.438,974.375a15,15,0,1,0,15.131,14.869,15,15,0,0,0-15.131-14.869" transform="translate(-158.567 -974.374)" fill="none"/>
    </clipPath>
    <clipPath id="clip-path-7">
      <rect id="Rectangle_2607" data-name="Rectangle 2607" width="37.894" height="37.893" fill="none"/>
    </clipPath>
    <clipPath id="clip-path-8">
      <path id="Path_99191" data-name="Path 99191" d="M722.448,887.544a18.946,18.946,0,1,0,19.111,18.781,18.946,18.946,0,0,0-19.111-18.781" transform="translate(-703.666 -887.544)" fill="none"/>
    </clipPath>
    <clipPath id="clip-path-9">
      <rect id="Rectangle_2609" data-name="Rectangle 2609" width="25.016" height="25.015" fill="none"/>
    </clipPath>
    <clipPath id="clip-path-10">
      <path id="Path_99192" data-name="Path 99192" d="M12.4,556.177a12.508,12.508,0,1,0,12.616,12.4,12.507,12.507,0,0,0-12.616-12.4" transform="translate(0 -556.176)" fill="none"/>
    </clipPath>
    <clipPath id="clip-path-12">
      <path id="Path_99193" data-name="Path 99193" d="M590.794,1249.966a12.508,12.508,0,1,0,12.616,12.4,12.508,12.508,0,0,0-12.616-12.4" transform="translate(-578.395 -1249.965)" fill="none"/>
    </clipPath>
    <clipPath id="clip-path-13">
      <path id="Path_99194" data-name="Path 99194" d="M192.712,85.582l0,.3.175-.023,9.621-3.452-.881-2.113Z" transform="translate(-192.712 -80.294)" fill="none"/>
    </clipPath>
    <linearGradient id="linear-gradient-7" x1="-2.008" y1="26.478" x2="-1.998" y2="26.478" gradientUnits="objectBoundingBox">
      <stop offset="0" stop-color="#1534ba"/>
      <stop offset="0.907" stop-color="#0226ae"/>
      <stop offset="1" stop-color="#0025ad"/>
    </linearGradient>
    <clipPath id="clip-path-14">
      <path id="Path_99195" data-name="Path 99195" d="M277.416,80.677c0,.105,0,.21,0,.316-.01,2.219-.053,4.588-.1,7.093v.009c-.118,6.391-.252,13.635.127,21.415a141.194,141.194,0,0,0,3.214,24.634,110.681,110.681,0,0,0,3.767,12.926,101.155,101.155,0,0,0,5.742,13.007,99.346,99.346,0,0,0,8.115,12.832,105.636,105.636,0,0,0,10.873,12.4l.073.072.063.011a35.54,35.54,0,0,0,6.226.585h0a25.782,25.782,0,0,0,4.649-.4,19.833,19.833,0,0,0,8.119-3.417,22.422,22.422,0,0,0,5.77-6.317,37.145,37.145,0,0,0,3.818-8.522,86.146,86.146,0,0,0,3.341-20.836c.423-7.312.33-14.685.248-21.192V125.2c-.033-2.587-.063-5.034-.058-7.284v-.427h0l-.245-.142c-13.146-7.59-23.175-17.75-31.555-31.97l-.049-.084-.134-.228-.019-.032-.107.058a21.414,21.414,0,0,1-10.4,2.6c-6.06,0-12.96-2.264-21.089-6.92l-.269-.154-.1-.06-.012-.007Z" transform="translate(-277.192 -80.546)" fill="none"/>
    </clipPath>
    <linearGradient id="linear-gradient-8" x1="-0.025" y1="1.656" x2="-0.024" y2="1.656" gradientUnits="objectBoundingBox">
      <stop offset="0" stop-color="#0065b6"/>
      <stop offset="0.512" stop-color="#3179b3"/>
      <stop offset="1" stop-color="#6ebdfd"/>
    </linearGradient>
    <clipPath id="clip-path-15">
      <path id="Path_99196" data-name="Path 99196" d="M349.021,447.252l-11.092,6.4-5.052-6.4H285.755a131.511,131.511,0,0,0,2.59,16.145,110.681,110.681,0,0,0,3.767,12.926,101.16,101.16,0,0,0,5.742,13.007,99.357,99.357,0,0,0,8.115,12.832,105.637,105.637,0,0,0,10.873,12.4l.073.072.062.011a35.54,35.54,0,0,0,6.226.585h0a25.791,25.791,0,0,0,4.649-.4,19.834,19.834,0,0,0,8.119-3.417,22.423,22.423,0,0,0,5.77-6.317,37.145,37.145,0,0,0,3.818-8.522A86.146,86.146,0,0,0,348.9,475.73c.423-7.312.33-14.685.248-21.192v-.087c-.032-2.555-.062-4.973-.058-7.2Z" transform="translate(-285.755 -447.252)" fill="none"/>
    </clipPath>
    <linearGradient id="linear-gradient-9" x1="0.5" x2="0.5" y2="1" gradientUnits="objectBoundingBox">
      <stop offset="0" stop-color="#003865"/>
      <stop offset="0.512" stop-color="#005aa2"/>
      <stop offset="1" stop-color="#008dff"/>
    </linearGradient>
    <clipPath id="clip-path-17">
      <rect id="Rectangle_2616" data-name="Rectangle 2616" width="9.237" height="5.556" fill="none"/>
    </clipPath>
    <clipPath id="clip-path-18">
      <path id="Path_99198" data-name="Path 99198" d="M194.473,89.74l9.181,8.858.879-9.672-1.32-4.31Z" transform="translate(-194.473 -84.616)" fill="none"/>
    </clipPath>
    <linearGradient id="linear-gradient-10" x1="-1.014" y1="8.66" x2="-1.008" y2="8.66" xlink:href="#linear-gradient-8"/>
    <clipPath id="clip-path-19">
      <path id="Path_99199" data-name="Path 99199" d="M190.975,133.957c-.007,2.308-.053,4.783-.1,7.4v.007c-.118,6.4-.252,13.648.128,21.44a153.3,153.3,0,0,0,1.652,16.512q.49,3.106,1.114,6.09.22,1.053.456,2.093.694,3.051,1.544,6.027c.676,2.367,1.423,4.687,2.234,6.94a101.609,101.609,0,0,0,5.762,13.053c1.315,2.484,2.746,4.926,4.281,7.307q1.836,2.85,3.863,5.571a105.906,105.906,0,0,0,10.909,12.437l.151.148.169.03a35.911,35.911,0,0,0,6.288.591h0a26.153,26.153,0,0,0,4.713-.41,20.185,20.185,0,0,0,8.262-3.478,22.756,22.756,0,0,0,5.862-6.416,37.479,37.479,0,0,0,3.856-8.6c1.769-5.591,2.867-12.435,3.357-20.922.108-1.871.182-3.746.232-5.609.144-5.43.077-10.76.016-15.608v-.078c-.033-2.644-.065-5.142-.058-7.431v-.488l-.424-.245a85.031,85.031,0,0,1-8.276-5.43,79.849,79.849,0,0,1-6.645-5.523q-2.222-2.059-4.307-4.3a95.27,95.27,0,0,1-12.249-16.67l-.325-.553-.406.219a21.068,21.068,0,0,1-10.236,2.554c-6.062,0-12.991-2.3-21.18-7.027l-.643-.371Z" transform="translate(-190.75 -133.216)" fill="none"/>
    </clipPath>
    <linearGradient id="linear-gradient-11" x1="0.065" y1="0.082" x2="0.792" y2="0.946" gradientUnits="objectBoundingBox">
      <stop offset="0" stop-color="#003865"/>
      <stop offset="0.457" stop-color="#005aa2"/>
      <stop offset="1" stop-color="#008dff"/>
    </linearGradient>
    <clipPath id="clip-path-21">
      <rect id="Rectangle_2620" data-name="Rectangle 2620" width="60.642" height="99.19" fill="none"/>
    </clipPath>
    <clipPath id="clip-path-22">
      <rect id="Rectangle_2621" data-name="Rectangle 2621" width="54.817" height="89.66" fill="none"/>
    </clipPath>
    <clipPath id="clip-path-23">
      <rect id="Rectangle_2622" data-name="Rectangle 2622" width="27.596" height="89.127" fill="none"/>
    </clipPath>
    <clipPath id="clip-path-24">
      <rect id="Rectangle_2623" data-name="Rectangle 2623" width="8.867" height="6.021" fill="none"/>
    </clipPath>
    <clipPath id="clip-path-25">
      <rect id="Rectangle_2625" data-name="Rectangle 2625" width="27.838" height="27.837" fill="none"/>
    </clipPath>
    <clipPath id="clip-path-26">
      <path id="Path_99205" data-name="Path 99205" d="M64.036,6.5A13.917,13.917,0,1,0,83.229,2.139,13.917,13.917,0,0,0,64.036,6.5" transform="translate(-61.892 0.004)" fill="none"/>
    </clipPath>
    <radialGradient id="radial-gradient-6" cx="0.5" cy="0.5" r="0.318" xlink:href="#radial-gradient"/>
    <clipPath id="clip-path-28">
      <path id="Path_99206" data-name="Path 99206" d="M373.557,53.958A13.917,13.917,0,1,0,392.75,49.6a13.917,13.917,0,0,0-19.193,4.358" transform="translate(-371.414 -47.456)" fill="none"/>
    </clipPath>
    <clipPath id="clip-path-29">
      <rect id="Rectangle_2629" data-name="Rectangle 2629" width="27.838" height="27.838" fill="none"/>
    </clipPath>
    <clipPath id="clip-path-30">
      <path id="Path_99207" data-name="Path 99207" d="M689.951,367.771a13.917,13.917,0,1,0,19.193-4.358,13.917,13.917,0,0,0-19.193,4.358" transform="translate(-687.807 -361.27)" fill="none"/>
    </clipPath>
    <clipPath id="clip-path-31">
      <rect id="Rectangle_2630" data-name="Rectangle 2630" width="9.147" height="5.626" fill="none"/>
    </clipPath>
    <clipPath id="clip-path-33">
      <path id="Path_99209" data-name="Path 99209" d="M513.563,917.717a12.508,12.508,0,1,0,12.616,12.4,12.508,12.508,0,0,0-12.616-12.4" transform="translate(-501.164 -917.716)" fill="none"/>
    </clipPath>
    <clipPath id="clip-path-34">
      <rect id="Rectangle_2634" data-name="Rectangle 2634" width="25.015" height="25.015" fill="none"/>
    </clipPath>
    <clipPath id="clip-path-35">
      <path id="Path_99210" data-name="Path 99210" d="M194.9,729.32a12.508,12.508,0,1,0,12.616,12.4,12.508,12.508,0,0,0-12.616-12.4" transform="translate(-182.501 -729.319)" fill="none"/>
    </clipPath>
  </defs>
  <g id="Group_87376" data-name="Group 87376" transform="translate(-603.626 -3844.958)">
    <g id="Group_87289" data-name="Group 87289" transform="translate(603.626 3928.012)">
      <g id="Group_87287" data-name="Group 87287" transform="translate(0 51.636)" style="mix-blend-mode: multiply;isolation: isolate">
        <path id="Path_99155" data-name="Path 99155" d="M872.406,385.539C828.617,394.929,826.6,417.5,826.6,417.5l1.341,2.537,1.593,1.557,69.207,39.166,4.374.926,3.054.215,3.067-.108,7.311-1.563,5.526-3.426,69.676-42.625,1.079-.679.964-.738.824-.776.682-.808.542-.834.4-.854.259-.867.118-.875s8.061-13.965-9.3-20.906S882.473,383.381,872.406,385.539Z" transform="translate(-826.6 -382.732)" fill="#fff" opacity="0"/>
        <path id="Path_99156" data-name="Path 99156" d="M872.786,386.817c-2.334.5-4.541,1.087-6.63,1.662-2.35.647-4.54,1.381-6.6,2.1-2.384.839-4.561,1.768-6.579,2.685a63.342,63.342,0,0,0-6.555,3.486,48.636,48.636,0,0,0-6.377,4.609,36.015,36.015,0,0,0-5.725,6.127,24.125,24.125,0,0,0-3.975,7.943,9.618,9.618,0,0,0-.333,1.66l1.272,2.39,1.5,1.467,1.153.656L901,459.6l1.392.314,1.473.327,1.435.313,1.552.125,1.461.114,1.6-.042,1.435-.04,1.641-.33,1.612-.328,1.617-.333,2.3-.485,1.372-.816,1.354-.809,1.307-.787,1.445-.878.848-.51,1.19-.723,66.715-40.7,1.053-.662.365-.277.576-.441.8-.75.669-.785.244-.368.292-.444.4-.826.262-.842.063-.41.066-.442s.14-.247.325-.643c.123-.264.286-.652.442-1.061.117-.306.243-.695.357-1.07,1.152-3.773,1.443-11.464-7.123-16.228-.309-.172-.632-.387-.966-.553s-.664-.363-1.01-.517-.706-.345-1.069-.49c-.191-.076-.414-.2-.622-.269s-.453-.188-.677-.259-.489-.179-.728-.247-.533-.174-.789-.239c-.174-.044-.386-.114-.567-.156-16.224-3.864-67.076-2.748-93.66-1.267A145.394,145.394,0,0,0,872.786,386.817Z" transform="translate(-827.961 -382.995)" fill="#fafbfe" opacity="0.063"/>
        <path id="Path_99157" data-name="Path 99157" d="M873.167,388.073c-2.179.467-4.237,1.064-6.187,1.6-2.193.6-4.228,1.338-6.147,2.013-2.225.783-4.241,1.7-6.123,2.553a58.438,58.438,0,0,0-6.094,3.3,44.947,44.947,0,0,0-5.919,4.348,33.352,33.352,0,0,0-5.3,5.763,22.243,22.243,0,0,0-3.661,7.456,8.193,8.193,0,0,0-.3,1.557l1.2,2.242,1.415,1.378,1.136.65,66.076,37.485,1.366.327,1.447.336,1.416.318,1.528.138,1.445.123,1.574-.026,1.425-.029,1.618-.3,1.59-.307,1.594-.317,2.235-.462,1.363-.776,1.344-.774,1.3-.757,1.422-.848.84-.5,1.177-.709,65.813-40.041,1.028-.646.356-.268.562-.43.778-.723.656-.763.242-.356.288-.433.392-.8.265-.818.068-.4.069-.43s.144-.26.317-.63c.115-.247.282-.657.427-1.038.109-.285.233-.7.339-1.047a13.8,13.8,0,0,0-7-15.9c-.289-.161-.591-.41-.9-.565s-.629-.387-.951-.531-.677-.371-1.016-.506c-.178-.071-.411-.229-.605-.3s-.456-.221-.665-.288-.5-.212-.719-.275-.547-.2-.785-.265c-.162-.041-.4-.134-.567-.174-15.142-3.606-68.654-2.118-94.48-.646A119.983,119.983,0,0,0,873.167,388.073Z" transform="translate(-829.321 -383.235)" fill="#f6f7fc" opacity="0.125"/>
        <path id="Path_99158" data-name="Path 99158" d="M873.547,389.291c-2.024.434-3.934,1.04-5.743,1.538-2.037.56-3.916,1.295-5.7,1.922-2.067.726-3.919,1.628-5.668,2.422a53.68,53.68,0,0,0-5.631,3.116,41.251,41.251,0,0,0-5.461,4.087,30.68,30.68,0,0,0-4.881,5.4,20.41,20.41,0,0,0-3.348,6.968,7.013,7.013,0,0,0-.268,1.454l1.136,2.1,1.325,1.288,1.119.644L905.524,457.2l1.339.341,1.422.344,1.4.324,1.5.152,1.43.133,1.551-.011,1.413-.018,1.594-.279,1.568-.286,1.572-.3,2.165-.44,1.355-.735,1.334-.739,1.289-.729,1.4-.816.832-.485,1.164-.694,64.911-39.38,1-.629.348-.261.547-.418.755-.7.643-.741.24-.345.283-.421.389-.769.268-.792.074-.387.073-.419s.149-.273.309-.617c.107-.229.277-.662.411-1.016.1-.265.223-.7.323-1.025a14.154,14.154,0,0,0-6.884-15.572c-.268-.149-.551-.433-.84-.577s-.594-.412-.894-.546-.646-.4-.961-.521c-.166-.066-.409-.264-.589-.327s-.458-.255-.653-.316-.506-.245-.712-.3-.559-.236-.781-.292c-.15-.038-.409-.154-.566-.191-14.06-3.349-70.235-1.556-95.3-.027A97.484,97.484,0,0,0,873.547,389.291Z" transform="translate(-830.682 -383.438)" fill="#f1f3fb" opacity="0.188"/>
        <path id="Path_99159" data-name="Path 99159" d="M873.928,390.5c-1.868.4-3.629,1.016-5.3,1.476-1.88.517-3.6,1.251-5.25,1.83-1.907.671-3.6,1.559-5.212,2.292a48.88,48.88,0,0,0-5.17,2.931,37.572,37.572,0,0,0-5,3.826,28,28,0,0,0-4.458,5.035,18.564,18.564,0,0,0-3.035,6.481,5.871,5.871,0,0,0-.235,1.351l1.067,1.948,1.236,1.2,1.1.638,64.115,36.466,1.312.354,1.4.353,1.376.33,1.479.165,1.413.143,1.528,0,1.4-.007,1.57-.253,1.546-.265,1.549-.283,2.1-.417,1.346-.695,1.325-.7,1.28-.7,1.378-.785.824-.473,1.15-.68,64.01-38.718.976-.614.339-.251.532-.407.731-.669.63-.718.238-.335.28-.41.384-.741.27-.767.08-.374.078-.409s.153-.285.3-.6c.1-.211.273-.667.4-.994.093-.245.213-.7.3-1,.922-3.019.089-11.433-6.764-15.244-.248-.138-.51-.457-.777-.589s-.558-.437-.835-.56-.616-.42-.907-.536c-.152-.061-.406-.3-.572-.357s-.461-.288-.64-.345-.514-.277-.7-.331-.571-.266-.776-.318c-.139-.036-.421-.175-.566-.209-12.979-3.091-71.814-.939-96.12.593A81.969,81.969,0,0,0,873.928,390.5Z" transform="translate(-832.043 -383.629)" fill="#edeffa" opacity="0.25"/>
        <path id="Path_99160" data-name="Path 99160" d="M874.308,391.682c-1.712.367-3.325.993-4.857,1.414-1.724.474-3.293,1.208-4.8,1.738-1.748.615-3.277,1.489-4.757,2.161a44.283,44.283,0,0,0-4.707,2.745,34.014,34.014,0,0,0-4.544,3.565,25.371,25.371,0,0,0-4.036,4.671,16.731,16.731,0,0,0-2.722,5.994,4.883,4.883,0,0,0-.2,1.248l1,1.8,1.147,1.109,1.085.631,63.134,35.957,1.286.368,1.369.362,1.356.335,1.454.178,1.4.152,1.5.02,1.392,0,1.546-.227,1.525-.244,1.527-.266,2.027-.394,1.338-.655,1.316-.669,1.271-.67,1.356-.754.816-.46,1.136-.666,63.108-38.056.95-.6.331-.243.518-.4.708-.642.617-.7.236-.323.276-.4.381-.713.273-.742.085-.362.082-.4s.157-.3.293-.589c.091-.194.268-.671.382-.971.085-.224.2-.705.288-.98.845-2.768-.363-11.423-6.646-14.916-.227-.126-.469-.48-.714-.6s-.524-.461-.777-.574-.587-.446-.852-.552c-.14-.055-.4-.332-.556-.386s-.464-.322-.628-.374-.522-.31-.7-.359-.584-.3-.772-.345c-.127-.033-.433-.195-.566-.226-11.9-2.833-73.393-.318-96.941,1.213A69.759,69.759,0,0,0,874.308,391.682Z" transform="translate(-833.404 -383.798)" fill="#e8ebf9" opacity="0.313"/>
        <path id="Path_99161" data-name="Path 99161" d="M874.688,392.843c-1.557.334-3.022.969-4.414,1.353-1.567.431-2.981,1.164-4.351,1.647-1.59.559-2.956,1.419-4.3,2.03a39.633,39.633,0,0,0-4.245,2.561,30.468,30.468,0,0,0-4.087,3.3,22.768,22.768,0,0,0-3.613,4.308,14.951,14.951,0,0,0-2.409,5.506,4.06,4.06,0,0,0-.171,1.145l.93,1.653,1.058,1.019,1.068.625,62.153,35.448,1.26.381,1.343.371,1.337.341,1.43.191,1.381.162,1.482.035,1.381.015,1.522-.2,1.5-.222,1.5-.249,1.958-.372,1.329-.614,1.306-.634L932.3,452l1.334-.723.808-.447,1.123-.652,62.206-37.395.925-.581.322-.234.5-.384.685-.616.6-.673.234-.312.271-.388.377-.684.276-.718.092-.35.086-.386s.162-.31.285-.575c.082-.176.264-.676.367-.949.078-.2.194-.707.271-.957.768-2.516-.815-11.411-6.526-14.587-.206-.114-.428-.5-.651-.613s-.489-.486-.719-.588-.557-.47-.8-.567c-.127-.051-.4-.367-.539-.416s-.466-.356-.615-.4-.53-.342-.689-.387-.6-.327-.767-.371c-.116-.03-.445-.215-.566-.244-10.816-2.576-74.971.307-97.761,1.833C881.9,389.409,876.2,392.519,874.688,392.843Z" transform="translate(-834.764 -383.943)" fill="#e4e7f7" opacity="0.375"/>
        <path id="Path_99162" data-name="Path 99162" d="M875.067,393.982c-1.4.3-2.717.946-3.97,1.291-1.41.388-2.669,1.121-3.9,1.555-1.43.5-2.635,1.35-3.845,1.9a34.778,34.778,0,0,0-3.783,2.375,26.953,26.953,0,0,0-3.629,3.042,20.167,20.167,0,0,0-3.191,3.943,13.185,13.185,0,0,0-2.1,5.02,3.283,3.283,0,0,0-.138,1.041l.861,1.506.969.93,1.05.619,61.173,34.938,1.233.394,1.317.38,1.316.345,1.406.205,1.366.172,1.459.051,1.37.026,1.5-.176,1.481-.2,1.482-.232,1.889-.35,1.321-.575,1.3-.6,1.253-.611,1.312-.692.8-.434,1.109-.638,61.3-36.732.9-.565.313-.226.487-.373.662-.588.592-.65.232-.3.267-.376.374-.656.279-.693.1-.338.091-.375s.166-.324.277-.561c.074-.159.259-.682.352-.927.07-.184.185-.71.253-.935.691-2.264-1.267-11.4-6.407-14.259-.186-.1-.387-.526-.588-.625s-.454-.51-.661-.6-.526-.5-.744-.583c-.114-.046-.4-.4-.523-.445s-.469-.389-.6-.431-.538-.375-.68-.415-.61-.359-.764-.4c-.1-.026-.457-.235-.565-.261-9.734-2.318-76.548.934-98.58,2.453C881.93,390.165,876.43,393.69,875.067,393.982Z" transform="translate(-836.124 -384.067)" fill="#dfe3f6" opacity="0.438"/>
        <path id="Path_99163" data-name="Path 99163" d="M875.445,395.1c-1.245.267-2.413.922-3.527,1.229-1.253.345-2.357,1.078-3.454,1.463-1.271.448-2.313,1.28-3.39,1.769a30.433,30.433,0,0,0-3.322,2.19,23.494,23.494,0,0,0-3.171,2.781,17.639,17.639,0,0,0-2.768,3.58,11.479,11.479,0,0,0-1.783,4.532,2.633,2.633,0,0,0-.106.939l.792,1.358.88.841,1.034.612,60.192,34.429,1.207.407,1.291.389,1.3.351,1.381.218,1.35.182,1.436.067,1.359.037,1.474-.15,1.46-.18,1.46-.215,1.819-.327,1.312-.535,1.288-.563,1.244-.582,1.289-.661.793-.422,1.1-.624,60.4-36.071.873-.548.305-.218.472-.362.639-.561.578-.628.23-.291.263-.365.37-.628.281-.667.1-.326.1-.364s.17-.336.269-.548c.066-.141.254-.686.337-.9.062-.163.175-.712.236-.912.614-2.013-1.719-11.391-6.287-13.932-.166-.091-.347-.549-.525-.637s-.418-.534-.6-.617-.5-.521-.69-.6c-.1-.04-.4-.435-.506-.474s-.472-.422-.591-.46-.547-.408-.673-.443-.621-.389-.759-.424c-.092-.024-.469-.256-.565-.279-8.652-2.061-78.126,1.565-99.4,3.073C881.957,390.9,876.656,394.841,875.445,395.1Z" transform="translate(-837.482 -384.169)" fill="#dbdff5" opacity="0.5"/>
        <path id="Path_99164" data-name="Path 99164" d="M875.821,396.2c-1.09.234-2.109.9-3.084,1.167-1.1.3-2.044,1.034-3,1.372a32.633,32.633,0,0,0-2.934,1.638,25.841,25.841,0,0,0-2.86,2,20.092,20.092,0,0,0-2.713,2.52,15.167,15.167,0,0,0-2.346,3.215,9.815,9.815,0,0,0-1.47,4.045,2.1,2.1,0,0,0-.073.836l.724,1.211.791.75,1.016.607,59.212,33.92,1.18.421,1.265.4,1.277.356,1.356.232,1.334.191,1.413.082,1.348.048,1.451-.125,1.437-.159,1.438-.2,1.75-.3,1.3-.494,1.278-.528,1.235-.552,1.267-.63.785-.409,1.082-.61,59.5-35.409.847-.532.3-.209.457-.35.616-.535.565-.605.229-.279.259-.353.366-.6.285-.643.108-.314.1-.353s.175-.35.262-.535c.057-.123.249-.691.321-.882.055-.143.166-.714.219-.889.538-1.761-2.17-11.381-6.168-13.6-.144-.08-.306-.572-.462-.649s-.383-.559-.545-.631-.466-.546-.635-.614c-.089-.036-.393-.469-.49-.5s-.474-.456-.579-.489-.554-.44-.665-.472-.634-.419-.754-.45c-.081-.02-.48-.276-.565-.3-7.571-1.8-79.7,2.2-100.22,3.693C881.982,391.62,876.88,395.971,875.821,396.2Z" transform="translate(-838.838 -384.252)" fill="#d6dcf4" opacity="0.563"/>
        <path id="Path_99165" data-name="Path 99165" d="M876.2,397.278c-.934.2-1.8.875-2.64,1.105-.94.258-1.733.991-2.556,1.28a27.31,27.31,0,0,0-2.478,1.507,21.6,21.6,0,0,0-2.4,1.819c-1,.6-1.535,1.649-2.255,2.259-.989.839-1.357,2.085-1.924,2.852a8.2,8.2,0,0,0-1.156,3.558,1.608,1.608,0,0,0-.041.733l.655,1.064.7.661,1,.6,58.231,33.41,1.153.435,1.239.407,1.257.362,1.332.245,1.318.2,1.39.1,1.337.058,1.427-.1,1.416-.138,1.416-.181,1.68-.282,1.295-.454,1.268-.493,1.225-.523,1.245-.6.777-.4,1.069-.6,58.6-34.747.821-.516.288-.2.443-.339.592-.508.552-.582.227-.268.255-.342.362-.572.287-.618.115-.3.1-.342s.179-.362.253-.52c.049-.106.244-.7.306-.86.047-.123.156-.717.2-.867.461-1.51-2.622-11.37-6.049-13.276-.124-.069-.265-.6-.4-.661s-.348-.584-.486-.645-.436-.572-.582-.629c-.076-.031-.39-.5-.473-.534s-.477-.489-.566-.517-.563-.473-.658-.5-.647-.451-.75-.477c-.069-.018-.492-.3-.565-.314-6.49-1.546-81.281,2.835-101.04,4.313C882.005,392.322,877.1,397.084,876.2,397.278Z" transform="translate(-840.193 -384.317)" fill="#d2d8f2" opacity="0.625"/>
        <path id="Path_99166" data-name="Path 99166" d="M876.567,398.341c-.779.167-1.5.851-2.2,1.043-.783.215-1.421.948-2.106,1.189-.795.279-1.35,1.071-2.023,1.376-.813.369-1.285,1.242-1.936,1.635-.83.5-1.2,1.489-1.8,2-.824.7-1.029,1.849-1.5,2.487a6.7,6.7,0,0,0-.843,3.071,1.214,1.214,0,0,0-.008.629l.587.916.612.572.982.595,57.251,32.9,1.127.448,1.213.416,1.238.367,1.307.258,1.3.211,1.367.113,1.326.07,1.4-.073,1.394-.117,1.393-.164,1.612-.259,1.286-.414,1.259-.458,1.216-.494,1.223-.568.77-.384,1.055-.582,57.7-34.085.8-.5.279-.191.428-.328.569-.481.539-.56.224-.258.251-.33.359-.543.29-.593.12-.289.108-.331s.183-.375.245-.507c.041-.088.24-.7.291-.838.039-.1.147-.72.185-.844.384-1.258-3.073-11.359-5.929-12.948-.1-.057-.224-.618-.336-.673s-.313-.608-.428-.659-.406-.6-.527-.644c-.064-.026-.387-.538-.457-.563s-.48-.523-.554-.546-.57-.505-.65-.528-.66-.481-.745-.5c-.058-.014-.5-.316-.564-.331-5.408-1.288-82.859,3.474-101.861,4.933C882.027,393.008,877.324,398.179,876.567,398.341Z" transform="translate(-841.545 -384.364)" fill="#cdd4f1" opacity="0.688"/>
        <path id="Path_99167" data-name="Path 99167" d="M876.937,399.389c-.623.134-1.2.828-1.754.981-.627.172-1.109.9-1.657,1.1-.636.224-1.03,1-1.567,1.246-.651.3-.953,1.135-1.474,1.449-.665.4-.859,1.33-1.339,1.736-.659.56-.7,1.613-1.079,2.124-.658.89-.4,2.131-.529,2.584a.9.9,0,0,0,.023.526l.518.77.523.481.965.588,56.27,32.391,1.1.461,1.187.425,1.218.372,1.283.272,1.286.22,1.344.129,1.316.081,1.378-.048,1.372-.1,1.371-.147,1.542-.237,1.277-.374,1.25-.422,1.207-.465,1.2-.537.762-.371,1.041-.568,56.8-33.423.77-.484.271-.183.413-.316.546-.454.526-.537.222-.247.248-.319.354-.515.293-.569.126-.277.112-.32s.188-.388.238-.494c.032-.07.235-.706.277-.815.031-.082.136-.722.167-.822.307-1.007-3.526-11.349-5.81-12.62-.083-.046-.184-.641-.273-.685s-.277-.632-.369-.673-.377-.622-.474-.661c-.051-.02-.385-.572-.44-.592s-.481-.557-.541-.575-.579-.538-.642-.556-.673-.511-.741-.529c-.047-.012-.516-.337-.564-.348-4.327-1.031-84.436,4.114-102.681,5.553C882.046,393.681,877.542,399.259,876.937,399.389Z" transform="translate(-842.895 -384.396)" fill="#c9d0f0" opacity="0.75"/>
        <path id="Path_99168" data-name="Path 99168" d="M877.284,400.422c-.467.1-.893.8-1.31.919-.47.129-.8.861-1.209,1.005-.477.168-.708.931-1.111,1.115-.488.222-.621,1.028-1.012,1.264-.5.3-.521,1.17-.881,1.475-.495.42-.374,1.377-.657,1.76-.493.667-.123,1.756-.217,2.1a.646.646,0,0,0,.057.423l.449.622.434.392.948.582,55.29,31.882,1.074.475,1.161.434,1.2.377,1.259.285,1.27.23,1.321.144,1.305.091,1.354-.022,1.351-.074,1.348-.13,1.473-.214,1.268-.333,1.24-.388,1.2-.436,1.179-.506.755-.359,1.027-.554,55.895-32.761.744-.468.262-.174.4-.3.523-.428.514-.515.22-.235.244-.307.351-.487.3-.543.131-.266.117-.309s.192-.4.229-.48c.025-.053.23-.711.262-.793.023-.061.127-.724.15-.8.23-.754-3.977-11.338-5.691-12.291-.061-.034-.142-.664-.209-.7s-.243-.656-.312-.688-.346-.647-.419-.676c-.039-.016-.382-.607-.424-.622s-.484-.59-.529-.6-.586-.57-.634-.584-.685-.542-.737-.555c-.034-.009-.528-.357-.564-.366-3.245-.773-86.012,4.757-103.5,6.173C882.044,394.343,877.739,400.324,877.284,400.422Z" transform="translate(-844.223 -384.413)" fill="#c4ccef" opacity="0.813"/>
        <path id="Path_99169" data-name="Path 99169" d="M877.534,401.442c-.311.067-.589.78-.867.857-.313.086-.486.817-.76.914-.318.111-.387.862-.656.984-.326.148-.289.922-.55,1.079-.332.2-.183,1.01-.423,1.214-.33.28-.046,1.141-.235,1.4-.329.445.159,1.383.1,1.609a.47.47,0,0,0,.088.319l.38.475.345.3.931.576,54.309,31.373,1.048.488,1.134.443,1.179.383,1.234.3,1.255.24,1.3.159,1.294.1,1.331,0,1.329-.053,1.326-.113,1.4-.191,1.26-.294,1.23-.352,1.189-.406,1.156-.475.747-.346,1.014-.54,54.993-32.1.718-.451.254-.166.383-.294.5-.4.5-.492.218-.224.24-.3.347-.459.3-.518.138-.253.12-.3s.2-.413.222-.466c.016-.035.226-.716.247-.77s.118-.727.133-.777c.153-.5-4.429-11.328-5.572-11.964-.041-.023-.1-.687-.146-.709s-.208-.681-.253-.7-.316-.672-.365-.692c-.025-.01-.379-.641-.407-.65s-.486-.623-.516-.633-.595-.6-.627-.612-.7-.573-.732-.582-.54-.378-.564-.383c-2.163-.515-87.589,5.4-104.321,6.793C881.943,394.994,877.837,401.377,877.534,401.442Z" transform="translate(-845.453 -384.418)" fill="#c0c8ed" opacity="0.875"/>
        <path id="Path_99170" data-name="Path 99170" d="M877.583,402.449c-.156.034-.285.758-.424.8-.156.043-.173.774-.311.822-.159.056-.065.792-.2.854-.162.073.042.815-.088.893-.166.1.155.851.035.952-.165.14.282.9.188,1.032-.164.223.441,1.008.41,1.122-.019.07.121.217.121.217l.312.327.255.213.914.569,53.328,30.863,1.022.5,1.108.452,1.158.388,1.21.312,1.238.25,1.275.175,1.283.113,1.307.03,1.307-.032,1.3-.1,1.335-.168,1.251-.253,1.221-.317,1.18-.377,1.134-.444.739-.333,1-.526,54.091-31.437.692-.435.245-.158.369-.282.476-.374.487-.47.217-.214.235-.285.344-.43.3-.493.143-.241.125-.286.214-.453c.008-.017.221-.72.232-.748s.108-.729.116-.754c.077-.251-4.88-11.318-5.451-11.635-.021-.011-.062-.711-.084-.722s-.173-.706-.2-.716-.286-.7-.311-.707-.376-.675-.391-.68-.489-.657-.5-.662-.6-.636-.619-.64-.71-.6-.727-.608-.552-.4-.564-.4c-1.081-.257-89.163,6.065-105.141,7.413C881.643,395.652,877.734,402.417,877.583,402.449Z" transform="translate(-846.481 -384.41)" fill="#bbc4ec" opacity="0.938"/>
        <path id="Path_99171" data-name="Path 99171" d="M895.592,394.933c-15.22,1.339-18.93,8.514-18.93,8.514l.019.734.138.73.256.723.374.709.493.691.61.668.723.635.563.417.9.564,52.348,30.354,1,.515,1.082.461,1.139.393,1.185.325,1.223.259,1.251.191,1.272.124,1.283.056,1.285-.011,1.281-.079,1.266-.146,1.243-.213,1.212-.282,1.171-.348,1.112-.413.731-.321.987-.511,53.19-30.776.9-.567.807-.618.69-.65.571-.676.453-.7.335-.714.217-.726.1-.732-5.333-11.307-.02-.734-.137-.73-.256-.723-.374-.71-.492-.69-.611-.668-.723-.635-.564-.418S910.812,393.594,895.592,394.933Z" transform="translate(-846.541 -384.392)" fill="#b7c0eb"/>
      </g>
      <path id="Path_99172" data-name="Path 99172" d="M880.047,353.794l-.792.614-.677.645-.561.672-.444.693-.329.71-.212.721-.1.727v31.376l.019.729.136.726.251.718.367.7.484.687.6.663.71.63.553.415.88.559,52.948,30.569.977.512,1.062.457,1.118.391,1.163.323,1.2.257,1.229.189,1.249.123,1.26.056,1.262-.011,1.257-.079,1.243-.145,1.22-.212,1.19-.279,1.15-.346,1.092-.41.718-.319.969-.508,52.948-30.57.886-.564.792-.614.677-.645.56-.672.445-.693.329-.71.212-.721.1-.727V359.06l-.02-.728-.135-.725-.251-.718-.367-.7-.483-.687-.6-.663-.71-.63-.553-.415Z" transform="translate(-846.65 -319.567)" fill="#b7c0eb"/>
      <path id="Path_99173" data-name="Path 99173" d="M1010.184,362.229l-.1.728-.212.721-.329.71-.445.693-.56.672-.677.646-.792.613-.887.564-52.948,30.57-.969.508-.718.32-1.092.409-1.15.347-1.189.279-1.22.212-1.243.145-1.257.078-1.262.011-1.26-.056-1.249-.122-1.229-.19-1.2-.257-1.163-.324-1.118-.391-1.062-.458-.977-.512-52.948-30.569-.88-.559-.553-.414-.71-.63-.6-.664-.484-.686-.367-.7-.251-.718-.135-.726-.019-.728Z" transform="translate(-846.65 -322.736)" fill="url(#linear-gradient)"/>
      <path id="Path_99174" data-name="Path 99174" d="M880.933,351.958l-.886.564-.792.614-.677.645-.561.672-.444.693-.329.71-.212.721-.1.727v31.376l.019.728.136.726.251.718.367.7.484.687.6.664.71.63.553.414.88.559,52.948,30.569.977.512,1.062.457,1.118.391,1.163.323,1.2.258,1.229.189,1.249.123,1.26.056,1.262-.011,1.257-.078,1.243-.145,1.22-.212,1.19-.279,1.15-.346,1.092-.41.718-.319.969-.508,52.948-30.57.886-.564.792-.614.677-.645.56-.671.445-.693.329-.71.212-.721.1-.727V357.789l-.02-.729-.135-.725-.251-.718-.367-.7-.483-.686-.6-.664-.71-.631-.553-.415-1.178-.7Z" transform="translate(-846.65 -318.783)" fill="url(#linear-gradient-2)"/>
      <path id="Path_99175" data-name="Path 99175" d="M1008.482,338.945l-.615.587-.72.558-.826.525L952.7,371.507l-.91.477-.638.284-1,.375-1.044.315-1.08.253-1.109.193-1.13.132-1.142.071-1.147.01-1.145-.051-1.135-.111-1.117-.172-1.09-.233-1.057-.294-1.015-.355-.967-.416-.909-.477-53.669-30.892-.825-.525-.492-.369-.649-.577-.545-.6-.439-.623-.334-.64-.229-.652-.122-.659-.017-.663.087-.661.194-.655.3-.645.4-.63.509-.61.615-.587.72-.558.825-.525,53.669-30.2.909-.477.639-.284,1-.375,1.044-.314,1.08-.254,1.109-.193,1.129-.132,1.142-.071,1.148-.01,1.144.051,1.135.111,1.116.172,1.091.233,1.057.294,1.015.355.966.416.91.477,53.624,30.2.826.525.492.369.649.578.545.6.439.623.333.64.228.652.123.66.018.662-.088.661-.193.656-.3.644-.4.63-.509.61Z" transform="translate(-846.971 -297.394)" fill="#d2d7f6"/>
      <path id="Path_99176" data-name="Path 99176" d="M1008.269,338.076l-.614.586-.72.558-.826.525L953.2,370.292l-.91.477-.638.284-1,.375-1.044.314-1.08.253-1.109.193-1.13.132-1.142.071L944,372.4l-1.145-.051-1.135-.112-1.117-.172-1.09-.233-1.057-.294-1.015-.355-.966-.416-.909-.477-52.905-30.545-.826-.525-.492-.369-.65-.577-.545-.6-.439-.623-.334-.64-.229-.652-.122-.659-.018-.663.087-.661.193-.655.3-.645.4-.63.51-.61.615-.587.72-.558.826-.525,52.905-30.545.909-.477.639-.284,1-.376,1.044-.314,1.08-.254,1.109-.193,1.129-.132,1.142-.071,1.148-.01,1.144.051,1.135.111,1.117.172,1.091.233,1.056.294,1.015.355.966.416.91.477,52.906,30.544.826.525.492.369.65.578.545.6.439.623.333.641.228.652.123.66.018.662-.088.661-.193.655-.3.645-.4.63-.51.61Z" transform="translate(-847.477 -296.91)" fill="#fdfcff"/>
      <g id="Group_87288" data-name="Group 87288" transform="translate(41.712 5.236)">
        <path id="Path_99177" data-name="Path 99177" d="M1074.591,356.854v-.066l-.012-.066-.023-.066-.033-.064-.044-.063-.055-.06-.064-.057-.049-.037-.082-.053-1.769-1.02-.09-.047-.1-.042-.1-.036-.105-.029-.108-.023-.112-.017-.113-.011-.114-.005h-.114l-.114.008-.113.013-.11.019-.108.025-.1.032-.1.037-.064.029-.09.047-1.769,1.02-.082.053-.072.055-.061.058-.052.061-.04.063-.029.064-.02.065-.008.128v.753l0,.066.012.067.023.064.033.064.044.063.054.06.064.058.049.037.082.052,1.769,1.021.09.048.1.041.1.035.105.029.109.023.111.018.113.011.114,0h.115l.113-.007.113-.013.111-.019.108-.026.1-.031.1-.038.064-.028.09-.048,1.769-1.021.082-.052.072-.056.061-.058.052-.061.04-.064.029-.063.019-.065.009-.066,0-.764Z" transform="translate(-964.696 -325.322)" fill="#b7c0eb"/>
        <path id="Path_99178" data-name="Path 99178" d="M1074.591,356.7v-.066l-.012-.066-.023-.065-.033-.064-.044-.062-.055-.06-.064-.057-.049-.037-.082-.052-1.769-1.021-.09-.048-.1-.041-.1-.036-.105-.029-.108-.024-.112-.017-.113-.011-.114,0h-.114l-.114.007-.113.013-.11.02-.108.025-.1.031-.1.037-.064.029-.09.048-1.769,1.021-.082.052-.072.056-.061.058-.052.061-.04.063-.029.065-.02.065-.008.127v.753l0,.066.012.066.023.064.033.064.044.063.054.06.064.058.049.036.082.052,1.769,1.021.09.048.1.041.1.035.105.029.109.023.111.017.113.011.114,0h.115l.113-.007.113-.013.111-.019.108-.026.1-.031.1-.037.064-.028.09-.048,1.769-1.021.082-.052.072-.056.061-.058.052-.061.04-.063.029-.064.019-.065.009-.066,0-.763Z" transform="translate(-964.696 -325.259)" fill="url(#linear-gradient-3)"/>
        <path id="Path_99179" data-name="Path 99179" d="M1074.534,356.892l-.04.063-.052.061-.061.059-.072.056-.082.052-1.769,1.021-.09.048-.064.027-.1.038-.1.031-.108.026-.111.019-.113.013-.114.007-.115,0-.114-.005-.113-.011-.111-.017-.109-.023-.105-.029-.1-.035-.1-.041-.09-.048-1.769-1.021-.082-.052-.049-.037-.064-.058-.054-.06-.044-.062-.033-.063-.023-.065-.012-.066,0-.066.008-.066.02-.065.029-.065.04-.063.051-.061.061-.058.072-.056.082-.053,1.769-1.021.09-.048.064-.029.1-.037.1-.031.108-.025.111-.019.113-.013.114-.007h.114l.115.005.113.011.112.017.108.023.106.029.1.035.1.042.09.048,1.769,1.021.082.053.049.036.065.057.054.06.044.062.033.064.023.065.013.066v.066l-.009.066-.019.065-.029.064Z" transform="translate(-964.696 -325.259)" fill="#eff1fe"/>
        <path id="Path_99180" data-name="Path 99180" d="M989.3,307.53v-.066l-.013-.066-.023-.065-.033-.064-.044-.063-.055-.06-.064-.057-.049-.037-.082-.052-1.77-1.02-.09-.048-.1-.042-.1-.036-.106-.029-.108-.024-.112-.016-.113-.011-.114-.005h-.114l-.114.008-.113.013-.111.019-.108.025-.1.032-.1.037-.064.028-.09.048L983.637,307l-.082.052-.072.056-.061.058-.052.061-.04.063-.029.065-.02.065-.008.127v.753l0,.066.013.066.023.064.032.064.044.063.055.06.064.058.049.036.082.053,1.769,1.021.09.048.1.041.1.035.106.029.108.023.111.017.113.011.114,0h.114l.114-.007.113-.013.11-.019.108-.026.1-.032.1-.037.064-.028.09-.048,1.77-1.021.082-.053.071-.055.061-.058.052-.061.04-.064.029-.063.019-.066.009-.066,0-.764Z" transform="translate(-930.72 -305.675)" fill="#b7c0eb"/>
        <path id="Path_99181" data-name="Path 99181" d="M989.3,307.373v-.066l-.013-.066-.023-.065-.033-.064-.044-.062-.055-.06-.064-.057-.049-.037-.082-.053-1.77-1.02-.09-.048-.1-.042-.1-.035-.106-.029-.108-.024-.112-.017-.113-.011-.114-.005h-.114l-.114.007-.113.013-.111.02-.108.024-.1.032-.1.037-.064.029-.09.048-1.769,1.02-.082.053-.072.056-.061.058-.052.061-.04.063-.029.064-.02.065-.008.128v.753l0,.066.013.066.023.064.032.064.044.062.055.06.064.058.049.036.082.052,1.769,1.021.09.048.1.041.1.035.106.03.108.023.111.017.113.011.114.005.114,0,.114-.007.113-.013.11-.019.108-.026.1-.031.1-.038.064-.027.09-.048,1.77-1.021.082-.052.071-.056.061-.058.052-.061.04-.063.029-.064.019-.065.009-.066,0-.764Z" transform="translate(-930.72 -305.612)" fill="url(#linear-gradient-4)"/>
        <path id="Path_99182" data-name="Path 99182" d="M989.24,307.568l-.04.063-.052.061-.061.059-.072.056-.082.052-1.769,1.021-.09.048-.064.027-.1.038-.1.031-.108.026-.111.019-.113.013-.114.007-.114,0-.114-.005-.113-.011-.111-.017-.109-.023-.106-.03-.1-.035-.1-.041-.09-.048-1.769-1.021-.082-.052-.049-.036-.064-.058-.054-.06-.044-.062-.033-.064-.023-.065-.013-.065,0-.066.008-.066.02-.065.029-.064.04-.063.051-.061.061-.058.072-.056.082-.053,1.769-1.021.09-.048.064-.029.1-.037.1-.031.108-.025.111-.019.113-.013.114-.007h.114l.115.005.113.011.112.017.109.023.106.029.1.035.1.042.09.048,1.769,1.021.082.053.049.036.065.057.054.06.044.062.033.064.023.065.013.066v.066l-.009.066-.019.065-.029.064Z" transform="translate(-930.721 -305.612)" fill="#eff1fe"/>
        <path id="Path_99183" data-name="Path 99183" d="M901.951,357.917v-.066l-.013-.066-.022-.065-.033-.064-.044-.062-.055-.06-.064-.057-.049-.037-.082-.052-1.769-1.021-.09-.048-.1-.042-.1-.035-.105-.029-.109-.024-.111-.017-.113-.011-.114-.005h-.114l-.114.008-.113.013-.111.02-.107.024-.1.032-.1.037-.063.029-.09.048-1.769,1.021-.082.052-.072.056-.061.058-.051.061-.04.063-.029.064-.02.065-.008.128v.753l0,.066.012.066.023.064.033.064.044.062.054.06.064.058.049.036.082.052,1.769,1.021.09.048.1.041.1.035.105.03.109.023.111.018.113.011.114,0h.114l.114-.007.113-.013.111-.019.108-.026.1-.031.1-.038.064-.027.09-.048,1.769-1.021.082-.052.072-.056.061-.058.052-.061.04-.064.029-.064.019-.065.008-.066,0-.764Z" transform="translate(-895.928 -325.745)" fill="#b7c0eb"/>
        <path id="Path_99184" data-name="Path 99184" d="M901.951,357.76v-.066l-.013-.066-.022-.066-.033-.064-.044-.062-.055-.061-.064-.057-.049-.036-.082-.053-1.769-1.02-.09-.048-.1-.042-.1-.036-.105-.029-.109-.023-.111-.017-.113-.011-.114-.005h-.114l-.114.008-.113.013-.111.019-.107.025-.1.032-.1.037-.063.028-.09.048-1.769,1.02-.082.053-.072.056-.061.058-.051.061-.04.063-.029.064-.02.065-.008.127v.754l0,.066.012.066.023.064.033.064.044.063.054.06.064.058.049.037.082.052,1.769,1.02.09.048.1.041.1.035.105.029.109.024.111.017.113.011.114,0h.114l.114-.007.113-.013.111-.019.108-.025.1-.032.1-.037.064-.028.09-.048,1.769-1.02.082-.052.072-.056.061-.058.052-.061.04-.064.029-.064.019-.065.008-.066,0-.764Z" transform="translate(-895.928 -325.683)" fill="url(#linear-gradient-5)"/>
        <path id="Path_99185" data-name="Path 99185" d="M901.895,357.955l-.04.063-.051.061-.061.059-.072.056-.082.052-1.769,1.021-.09.048-.064.027-.1.038-.1.031-.108.026-.111.019-.113.013-.114.007-.114,0-.114-.005-.113-.011-.111-.017-.109-.023-.106-.029-.1-.035-.1-.041-.09-.048-1.769-1.021-.082-.052-.049-.037-.064-.058-.054-.06-.044-.062-.033-.064-.023-.065-.013-.065v-.066l.008-.066.02-.065.029-.065.04-.063.051-.061.061-.058.072-.055.082-.053,1.769-1.021.09-.048.064-.029.1-.037.1-.031.108-.025.111-.019.113-.013.114-.007h.114l.115.005.113.011.112.017.108.023.106.029.1.035.1.042.09.048,1.769,1.021.082.053.049.036.065.057.054.06.044.062.033.064.023.065.013.066v.066l-.009.066-.019.065-.029.064Z" transform="translate(-895.928 -325.683)" fill="#eff1fe"/>
        <path id="Path_99186" data-name="Path 99186" d="M987.245,407.363V407.3l-.013-.066-.022-.065-.033-.064-.044-.062-.055-.06-.064-.057-.049-.037-.083-.052-1.769-1.021-.09-.048-.1-.042-.1-.035-.105-.029-.109-.024-.111-.017-.113-.01-.114-.005h-.114l-.114.008-.113.013-.111.019-.108.025-.1.032-.1.037-.063.028-.09.048-1.769,1.02-.083.052-.072.056-.061.058-.051.061-.04.063-.029.064-.02.066-.008.127v.753l0,.066.013.066.022.064.033.064.044.063.054.06.065.058.049.036.083.053,1.769,1.02.09.048.1.041.1.035.105.03.109.023.111.017.113.011.114,0h.114l.114-.007.113-.013.111-.019.108-.026.1-.032.1-.037.064-.028.09-.048,1.769-1.021.083-.052.072-.055.061-.058.052-.061.04-.064.029-.064.019-.065.008-.066,0-.763Z" transform="translate(-929.904 -345.441)" fill="#b7c0eb"/>
        <path id="Path_99187" data-name="Path 99187" d="M987.245,407.205v-.066l-.013-.066-.022-.065-.033-.064-.044-.062-.055-.06-.064-.057-.049-.037-.083-.053-1.769-1.02-.09-.048-.1-.042-.1-.035-.105-.029-.109-.023-.111-.017-.113-.011-.114-.005h-.114l-.114.007-.113.013-.111.019-.108.025-.1.032-.1.037-.063.029-.09.048-1.769,1.02-.083.053-.072.056-.061.058-.051.061-.04.063-.029.064-.02.065-.008.128v.753l0,.066.013.067.022.064.033.064.044.063.054.06.065.058.049.036.083.052,1.769,1.021.09.047.1.041.1.035.105.029.109.023.111.017.113.011.114.005.114,0,.114-.007.113-.013.111-.019.108-.026.1-.031.1-.038.064-.028.09-.047,1.769-1.021.083-.052.072-.056.061-.058.052-.061.04-.063.029-.064.019-.065.008-.066,0-.764Z" transform="translate(-929.904 -345.378)" fill="url(#linear-gradient-6)"/>
        <path id="Path_99188" data-name="Path 99188" d="M987.189,407.4l-.04.063-.052.061-.061.059-.072.056-.082.052-1.769,1.021-.09.048-.064.028-.1.038-.1.031-.108.026-.111.019-.113.013-.114.007-.115,0-.114-.005-.113-.011-.111-.017-.109-.023-.106-.029-.1-.035-.1-.041-.09-.048-1.769-1.021-.082-.052-.049-.036-.064-.058-.054-.06-.044-.062-.033-.063-.023-.065-.013-.065v-.066l.008-.066.02-.065.029-.064.04-.063.051-.061.061-.058.072-.055.082-.053,1.769-1.021.09-.048.064-.029.1-.037.1-.031.108-.025.111-.019.113-.013.114-.007h.114l.115.005.113.011.112.017.109.023.106.029.1.035.1.042.09.048,1.769,1.021.082.053.049.036.065.057.054.06.044.062.033.064.023.065.012.066v.066l-.009.066-.019.065-.029.064Z" transform="translate(-929.904 -345.379)" fill="#eff1fe"/>
      </g>
    </g>
    <g id="Group_87375" data-name="Group 87375" transform="translate(642.126 3844.958)">
      <g id="Group_87374" data-name="Group 87374" clip-path="url(#clip-path)">
        <g id="Group_87316" data-name="Group 87316" transform="translate(0 0)">
          <g id="Group_87315" data-name="Group 87315" clip-path="url(#clip-path-2)">
            <g id="Group_87294" data-name="Group 87294" transform="translate(22.477 126.157)" style="mix-blend-mode: screen;isolation: isolate">
              <g id="Group_87293" data-name="Group 87293">
                <g id="Group_87292" data-name="Group 87292" clip-path="url(#clip-path-3)">
                  <g id="Group_87291" data-name="Group 87291" transform="translate(0 0)">
                    <g id="Group_87290" data-name="Group 87290" clip-path="url(#clip-path-4)">
                      
                    </g>
                  </g>
                </g>
              </g>
            </g>
            <g id="Group_87299" data-name="Group 87299" transform="translate(16.195 99.518)" style="mix-blend-mode: screen;isolation: isolate">
              <g id="Group_87298" data-name="Group 87298">
                <g id="Group_87297" data-name="Group 87297" clip-path="url(#clip-path-5)">
                  <g id="Group_87296" data-name="Group 87296" transform="translate(0 0)">
                    <g id="Group_87295" data-name="Group 87295" clip-path="url(#clip-path-6)">
                      
                    </g>
                  </g>
                </g>
              </g>
            </g>
            <g id="Group_87304" data-name="Group 87304" transform="translate(71.869 90.65)" style="mix-blend-mode: screen;isolation: isolate">
              <g id="Group_87303" data-name="Group 87303">
                <g id="Group_87302" data-name="Group 87302" clip-path="url(#clip-path-7)">
                  <g id="Group_87301" data-name="Group 87301" transform="translate(0 0)">
                    
                  </g>
                </g>
              </g>
            </g>
            <g id="Group_87309" data-name="Group 87309" transform="translate(0 56.806)" style="mix-blend-mode: screen;isolation: isolate">
              <g id="Group_87308" data-name="Group 87308">
                <g id="Group_87307" data-name="Group 87307" clip-path="url(#clip-path-9)">
                  <g id="Group_87306" data-name="Group 87306" transform="translate(0 0)">
                    <g id="Group_87305" data-name="Group 87305" clip-path="url(#clip-path-10)">
                      
                    </g>
                  </g>
                </g>
              </g>
            </g>
            <g id="Group_87314" data-name="Group 87314" transform="translate(59.074 127.666)" style="mix-blend-mode: screen;isolation: isolate">
              <g id="Group_87313" data-name="Group 87313">
                <g id="Group_87312" data-name="Group 87312" clip-path="url(#clip-path-9)">
                  <g id="Group_87311" data-name="Group 87311" transform="translate(0 0)">
                    <g id="Group_87310" data-name="Group 87310" clip-path="url(#clip-path-12)">
                      
                    </g>
                  </g>
                </g>
              </g>
            </g>
          </g>
        </g>
        <g id="Group_87318" data-name="Group 87318" transform="translate(19.683 8.201)">
          <g id="Group_87317" data-name="Group 87317" clip-path="url(#clip-path-13)">
            <rect id="Rectangle_2613" data-name="Rectangle 2613" width="9.801" height="5.588" transform="translate(0 0)" fill="url(#linear-gradient-7)"/>
          </g>
        </g>
        <g id="Group_87320" data-name="Group 87320" transform="translate(28.311 8.227)">
          <g id="Group_87319" data-name="Group 87319" clip-path="url(#clip-path-14)">
            <rect id="Rectangle_2614" data-name="Rectangle 2614" width="115.277" height="82.39" transform="translate(-18.684 102.053) rotate(-79.695)" fill="url(#linear-gradient-8)"/>
          </g>
        </g>
        <g id="Group_87322" data-name="Group 87322" transform="translate(29.186 45.68)">
          <g id="Group_87321" data-name="Group 87321" clip-path="url(#clip-path-15)">
            <rect id="Rectangle_2615" data-name="Rectangle 2615" width="63.569" height="67.973" transform="translate(0 0)" fill="url(#linear-gradient-9)"/>
          </g>
        </g>
        <g id="Group_87327" data-name="Group 87327" transform="translate(0 0)">
          <g id="Group_87326" data-name="Group 87326" clip-path="url(#clip-path-2)">
            <g id="Group_87325" data-name="Group 87325" transform="translate(19.683 8.234)" opacity="0.25">
              <g id="Group_87324" data-name="Group 87324">
                <g id="Group_87323" data-name="Group 87323" clip-path="url(#clip-path-17)">
                  <path id="Path_99197" data-name="Path 99197" d="M201.95,80.826l-.385.227-8.671,5.092-.175.023,0-.3,8.853-5.248.012-.007.1.06.269.154" transform="translate(-192.713 -80.612)" fill="#fff"/>
                </g>
              </g>
            </g>
          </g>
        </g>
        <g id="Group_87329" data-name="Group 87329" transform="translate(19.863 8.642)">
          <g id="Group_87328" data-name="Group 87328" clip-path="url(#clip-path-18)">
            <rect id="Rectangle_2618" data-name="Rectangle 2618" width="19.431" height="17.222" transform="translate(-6.711 5.033) rotate(-36.87)" fill="url(#linear-gradient-10)"/>
          </g>
        </g>
        <g id="Group_87331" data-name="Group 87331" transform="translate(19.482 13.606)">
          <g id="Group_87330" data-name="Group 87330" clip-path="url(#clip-path-19)">
            <rect id="Rectangle_2619" data-name="Rectangle 2619" width="65.232" height="106.391" transform="translate(-0.129 0)" fill="url(#linear-gradient-11)"/>
          </g>
        </g>
        <g id="Group_87373" data-name="Group 87373" transform="translate(0 0)">
          <g id="Group_87372" data-name="Group 87372" clip-path="url(#clip-path-2)">
            <g id="Group_87334" data-name="Group 87334" transform="translate(19.482 17.207)" opacity="0.2">
              <g id="Group_87333" data-name="Group 87333">
                <g id="Group_87332" data-name="Group 87332" clip-path="url(#clip-path-21)">
                  <path id="Path_99200" data-name="Path 99200" d="M251.328,210.746v-.073c-.031-2.465-.06-4.794-.054-6.928v-.455l-.4-.228A79.259,79.259,0,0,1,243.163,198a74.425,74.425,0,0,1-6.195-5.149q-2.072-1.919-4.015-4.013a88.817,88.817,0,0,1-11.42-15.541l-.3-.515-.379.2a19.643,19.643,0,0,1-9.543,2.381c-5.652,0-12.111-2.143-19.747-6.551l-.6-.346,0,.691c-.006,2.151-.049,4.459-.095,6.9v.007c-.11,5.964-.235,12.725.119,19.988a142.881,142.881,0,0,0,1.54,15.394q.457,2.9,1.039,5.678.2.982.426,1.952.647,2.845,1.439,5.619c.63,2.207,1.326,4.37,2.083,6.471a94.727,94.727,0,0,0,5.372,12.169c1.226,2.315,2.56,4.593,3.991,6.812q1.711,2.657,3.6,5.194a98.738,98.738,0,0,0,10.171,11.6l.141.138.158.028a33.481,33.481,0,0,0,5.863.55h0a24.367,24.367,0,0,0,4.394-.382,18.816,18.816,0,0,0,7.7-3.243,21.218,21.218,0,0,0,5.465-5.981,34.953,34.953,0,0,0,3.6-8.02,80.644,80.644,0,0,0,3.13-19.506c.1-1.745.17-3.492.217-5.229.134-5.062.072-10.032.015-14.551" transform="translate(-190.751 -168.469)" fill="#fff"/>
                </g>
              </g>
            </g>
            <g id="Group_87337" data-name="Group 87337" transform="translate(20.938 20.89)" opacity="0.1">
              <g id="Group_87336" data-name="Group 87336">
                <g id="Group_87335" data-name="Group 87335" clip-path="url(#clip-path-22)">
                  <path id="Path_99201" data-name="Path 99201" d="M259.76,242.742v-.065c-.028-2.228-.054-4.333-.049-6.262V236l-.357-.206a71.644,71.644,0,0,1-6.975-4.576,67.278,67.278,0,0,1-5.6-4.654q-1.873-1.735-3.629-3.628a80.281,80.281,0,0,1-10.323-14.048l-.274-.466-.342.184a17.755,17.755,0,0,1-8.626,2.152c-5.109,0-10.948-1.937-17.85-5.921l-.542-.313,0,.624c-.006,1.945-.044,4.031-.085,6.239v.006c-.1,5.391-.213,11.5.108,18.068a129.17,129.17,0,0,0,1.392,13.915q.413,2.618.939,5.133.185.887.385,1.764.585,2.572,1.3,5.079c.569,1.994,1.2,3.95,1.883,5.849a85.636,85.636,0,0,0,4.856,11c1.108,2.093,2.314,4.152,3.608,6.158q1.547,2.4,3.256,4.695a89.247,89.247,0,0,0,9.194,10.481l.128.125.142.025a30.27,30.27,0,0,0,5.3.5h0a22.039,22.039,0,0,0,3.972-.345,17.01,17.01,0,0,0,6.963-2.931,19.178,19.178,0,0,0,4.94-5.407,31.591,31.591,0,0,0,3.25-7.25,72.9,72.9,0,0,0,2.829-17.632c.091-1.577.154-3.157.2-4.727.121-4.576.065-9.068.014-13.153" transform="translate(-205.002 -204.527)" fill="#fff"/>
                </g>
              </g>
            </g>
            <g id="Group_87340" data-name="Group 87340" transform="translate(20.938 20.89)" opacity="0.1">
              <g id="Group_87339" data-name="Group 87339">
                <g id="Group_87338" data-name="Group 87338" clip-path="url(#clip-path-23)">
                  <path id="Path_99202" data-name="Path 99202" d="M232.143,208.645a17.753,17.753,0,0,1-8.559,2.117c-5.109,0-10.948-1.937-17.85-5.922l-.542-.313,0,.625c-.006,1.945-.044,4.031-.085,6.239v.006c-.1,5.391-.213,11.5.108,18.068a129.175,129.175,0,0,0,1.392,13.916q.413,2.618.939,5.133.185.887.385,1.764.585,2.572,1.3,5.079c.569,1.994,1.2,3.95,1.883,5.849a85.636,85.636,0,0,0,4.856,11c1.108,2.093,2.314,4.151,3.608,6.158q1.547,2.4,3.256,4.695a89.255,89.255,0,0,0,9.194,10.481l.116.114.455-85.221Z" transform="translate(-205.002 -204.527)" fill="#fff"/>
                </g>
              </g>
            </g>
            <path id="Path_99203" data-name="Path 99203" d="M224.575,238.045h0a36.459,36.459,0,0,1-6.385-.6l-.037-.007a.976.976,0,0,1-.516-.265l-.057-.055a106.507,106.507,0,0,1-10.966-12.5,100.279,100.279,0,0,1-8.189-12.949,102.152,102.152,0,0,1-5.794-13.124,111.6,111.6,0,0,1-3.8-13.032,142.1,142.1,0,0,1-3.236-24.791c-.381-7.81-.247-15.07-.128-21.475v-.016c.049-2.616.094-5.086.1-7.388a.981.981,0,0,1,1.471-.847c8.105,4.68,14.943,6.954,20.906,6.954a20.53,20.53,0,0,0,9.974-2.488l.042-.023a.978.978,0,0,1,1.311.366l.116.2c8.308,14.124,18.246,24.206,31.277,31.729l.209.121a.983.983,0,0,1,.49.852v.239c-.006,2.286.025,4.781.058,7.422v.078c.082,6.52.175,13.911-.25,21.255-.493,8.533-1.6,15.421-3.382,21.056a38.042,38.042,0,0,1-3.914,8.73,23.308,23.308,0,0,1-6.006,6.569,20.728,20.728,0,0,1-8.486,3.574,26.7,26.7,0,0,1-4.813.419m-6.194-1.686h0a35.37,35.37,0,0,0,6.192.582h0a25.587,25.587,0,0,0,4.613-.4,19.632,19.632,0,0,0,8.038-3.383,22.215,22.215,0,0,0,5.719-6.262,36.942,36.942,0,0,0,3.8-8.476,85.95,85.95,0,0,0,3.332-20.787c.422-7.306.329-14.676.248-21.178v-.078c-.033-2.646-.064-5.145-.058-7.439v-.168l-.147-.085c-13.2-7.622-23.268-17.83-31.676-32.125l-.056-.1a21.609,21.609,0,0,1-10.436,2.587c-6.117,0-13.078-2.288-21.275-7-.009,2.249-.053,4.653-.1,7.193v.014c-.118,6.39-.252,13.631.127,21.4a141.006,141.006,0,0,0,3.21,24.6,110.514,110.514,0,0,0,3.759,12.9,101.042,101.042,0,0,0,5.731,12.982,99.155,99.155,0,0,0,8.1,12.806,105.408,105.408,0,0,0,10.852,12.372Z" transform="translate(-166.416 -117.496)" fill="#fff"/>
            <g id="Group_87343" data-name="Group 87343" transform="translate(51.854 12.746)" opacity="0.25">
              <g id="Group_87342" data-name="Group 87342">
                <g id="Group_87341" data-name="Group 87341" clip-path="url(#clip-path-24)">
                  <path id="Path_99204" data-name="Path 99204" d="M516.562,125.1l-8.687,5.686-.175.023,0-.3,8.683-5.72.134.228.049.084" transform="translate(-507.695 -124.789)" fill="#fff"/>
                </g>
              </g>
            </g>
            <g id="Group_87348" data-name="Group 87348" transform="translate(6.321 0)" style="mix-blend-mode: screen;isolation: isolate">
              <g id="Group_87347" data-name="Group 87347">
                <g id="Group_87346" data-name="Group 87346" clip-path="url(#clip-path-25)">
                  <g id="Group_87345" data-name="Group 87345" transform="translate(0 0)">
                    <g id="Group_87344" data-name="Group 87344" clip-path="url(#clip-path-26)">
                      
                    </g>
                  </g>
                </g>
              </g>
            </g>
            <g id="Group_87353" data-name="Group 87353" transform="translate(37.934 4.848)" style="mix-blend-mode: screen;isolation: isolate">
              <g id="Group_87352" data-name="Group 87352">
                <g id="Group_87351" data-name="Group 87351" clip-path="url(#clip-path-25)">
                  <g id="Group_87350" data-name="Group 87350" transform="translate(0 0)">
                    <g id="Group_87349" data-name="Group 87349" clip-path="url(#clip-path-28)">
                      
                    </g>
                  </g>
                </g>
              </g>
            </g>
            <g id="Group_87358" data-name="Group 87358" transform="translate(70.249 36.899)" style="mix-blend-mode: screen;isolation: isolate">
              <g id="Group_87357" data-name="Group 87357">
                <g id="Group_87356" data-name="Group 87356" clip-path="url(#clip-path-29)">
                  <g id="Group_87355" data-name="Group 87355" transform="translate(0 0)">
                    <g id="Group_87354" data-name="Group 87354" clip-path="url(#clip-path-30)">
                      
                    </g>
                  </g>
                </g>
              </g>
            </g>
            <g id="Group_87361" data-name="Group 87361" transform="translate(83.375 45.169)" opacity="0.25">
              <g id="Group_87360" data-name="Group 87360">
                <g id="Group_87359" data-name="Group 87359" clip-path="url(#clip-path-31)">
                  <path id="Path_99208" data-name="Path 99208" d="M825.467,442.24v.427l-8.967,5.2-.18-.277,9.145-5.348Z" transform="translate(-816.32 -442.239)" fill="#fff"/>
                </g>
              </g>
            </g>
            <g id="Group_87366" data-name="Group 87366" transform="translate(51.186 93.732)" style="mix-blend-mode: screen;isolation: isolate">
              <g id="Group_87365" data-name="Group 87365">
                <g id="Group_87364" data-name="Group 87364" clip-path="url(#clip-path-9)">
                  <g id="Group_87363" data-name="Group 87363" transform="translate(0 0)">
                    <g id="Group_87362" data-name="Group 87362" clip-path="url(#clip-path-33)">
                      
                    </g>
                  </g>
                </g>
              </g>
            </g>
            <g id="Group_87371" data-name="Group 87371" transform="translate(18.64 74.49)" style="mix-blend-mode: screen;isolation: isolate">
              <g id="Group_87370" data-name="Group 87370">
                <g id="Group_87369" data-name="Group 87369" clip-path="url(#clip-path-34)">
                  <g id="Group_87368" data-name="Group 87368" transform="translate(0 0)">
                    <g id="Group_87367" data-name="Group 87367" clip-path="url(#clip-path-35)">
                      
                    </g>
                  </g>
                </g>
              </g>
            </g>
            <path id="Path_99211" data-name="Path 99211" d="M53.914,40.82l3.823,6L32.5,70.406,22.25,54.314l6.183-5.782,6.428,10.087Z" transform="translate(11.193 14.501)" fill="#fff"/>
          </g>
        </g>
      </g>
    </g>
  </g>
</svg>