<svg xmlns="http://www.w3.org/2000/svg" xmlns:xlink="http://www.w3.org/1999/xlink" width="171.884" height="214" viewBox="0 0 171.884 214">
  <defs>
    <linearGradient id="linear-gradient" x1="3.232" y1="17.737" x2="3.899" y2="17.737" gradientUnits="objectBoundingBox">
      <stop offset="0" stop-color="#363636"/>
      <stop offset="0.517" stop-color="#3b3b3b"/>
      <stop offset="1" stop-color="#494949"/>
    </linearGradient>
    <linearGradient id="linear-gradient-2" x1="3.232" y1="9.274" x2="3.899" y2="9.274" gradientUnits="objectBoundingBox">
      <stop offset="0" stop-color="#e4e7fb"/>
      <stop offset="0.527" stop-color="#d2d7f6"/>
      <stop offset="1" stop-color="#e4e7fb"/>
    </linearGradient>
    <linearGradient id="linear-gradient-3" x1="65.126" y1="157.598" x2="65.792" y2="157.598" xlink:href="#linear-gradient-2"/>
    <linearGradient id="linear-gradient-4" x1="67.959" y1="159.88" x2="68.625" y2="159.88" xlink:href="#linear-gradient-2"/>
    <linearGradient id="linear-gradient-5" x1="70.873" y1="157.548" x2="71.539" y2="157.548" xlink:href="#linear-gradient-2"/>
    <linearGradient id="linear-gradient-6" x1="68.034" y1="155.216" x2="68.7" y2="155.216" xlink:href="#linear-gradient-2"/>
    <clipPath id="clip-path">
      <rect id="Rectangle_3154" data-name="Rectangle 3154" width="86.594" height="152.557" fill="none"/>
    </clipPath>
    <clipPath id="clip-path-3">
      <rect id="Rectangle_3137" data-name="Rectangle 3137" width="38.17" height="27.64" fill="none"/>
    </clipPath>
    <clipPath id="clip-path-5">
      <rect id="Rectangle_3106" data-name="Rectangle 3106" width="37.087" height="26.871" fill="none"/>
    </clipPath>
    <clipPath id="clip-path-6">
      <rect id="Rectangle_3107" data-name="Rectangle 3107" width="36.004" height="26.103" fill="none"/>
    </clipPath>
    <clipPath id="clip-path-7">
      <rect id="Rectangle_3108" data-name="Rectangle 3108" width="34.921" height="25.334" fill="none"/>
    </clipPath>
    <clipPath id="clip-path-8">
      <rect id="Rectangle_3109" data-name="Rectangle 3109" width="33.838" height="24.566" fill="none"/>
    </clipPath>
    <clipPath id="clip-path-9">
      <rect id="Rectangle_3110" data-name="Rectangle 3110" width="32.755" height="23.797" fill="none"/>
    </clipPath>
    <clipPath id="clip-path-10">
      <rect id="Rectangle_3111" data-name="Rectangle 3111" width="31.672" height="23.029" fill="none"/>
    </clipPath>
    <clipPath id="clip-path-11">
      <rect id="Rectangle_3112" data-name="Rectangle 3112" width="30.588" height="22.26" fill="none"/>
    </clipPath>
    <clipPath id="clip-path-12">
      <rect id="Rectangle_3113" data-name="Rectangle 3113" width="29.505" height="21.492" fill="none"/>
    </clipPath>
    <clipPath id="clip-path-13">
      <rect id="Rectangle_3114" data-name="Rectangle 3114" width="28.422" height="20.724" fill="none"/>
    </clipPath>
    <clipPath id="clip-path-14">
      <rect id="Rectangle_3115" data-name="Rectangle 3115" width="27.339" height="19.955" fill="none"/>
    </clipPath>
    <clipPath id="clip-path-15">
      <rect id="Rectangle_3116" data-name="Rectangle 3116" width="26.256" height="19.187" fill="none"/>
    </clipPath>
    <clipPath id="clip-path-16">
      <rect id="Rectangle_3117" data-name="Rectangle 3117" width="25.173" height="18.419" fill="none"/>
    </clipPath>
    <clipPath id="clip-path-17">
      <rect id="Rectangle_3118" data-name="Rectangle 3118" width="24.09" height="17.651" fill="none"/>
    </clipPath>
    <clipPath id="clip-path-18">
      <rect id="Rectangle_3119" data-name="Rectangle 3119" width="23.008" height="16.883" fill="none"/>
    </clipPath>
    <clipPath id="clip-path-19">
      <rect id="Rectangle_3120" data-name="Rectangle 3120" width="21.925" height="16.115" fill="none"/>
    </clipPath>
    <clipPath id="clip-path-20">
      <rect id="Rectangle_3121" data-name="Rectangle 3121" width="20.842" height="15.347" fill="none"/>
    </clipPath>
    <clipPath id="clip-path-21">
      <rect id="Rectangle_3122" data-name="Rectangle 3122" width="19.759" height="14.579" fill="none"/>
    </clipPath>
    <clipPath id="clip-path-22">
      <rect id="Rectangle_3123" data-name="Rectangle 3123" width="18.676" height="13.811" fill="none"/>
    </clipPath>
    <clipPath id="clip-path-23">
      <rect id="Rectangle_3124" data-name="Rectangle 3124" width="17.594" height="13.044" fill="none"/>
    </clipPath>
    <clipPath id="clip-path-24">
      <rect id="Rectangle_3125" data-name="Rectangle 3125" width="16.511" height="12.276" fill="none"/>
    </clipPath>
    <clipPath id="clip-path-25">
      <rect id="Rectangle_3126" data-name="Rectangle 3126" width="15.428" height="11.509" fill="none"/>
    </clipPath>
    <clipPath id="clip-path-26">
      <rect id="Rectangle_3127" data-name="Rectangle 3127" width="14.346" height="10.742" fill="none"/>
    </clipPath>
    <clipPath id="clip-path-27">
      <rect id="Rectangle_3128" data-name="Rectangle 3128" width="13.264" height="9.976" fill="none"/>
    </clipPath>
    <clipPath id="clip-path-28">
      <rect id="Rectangle_3129" data-name="Rectangle 3129" width="12.182" height="9.209" fill="none"/>
    </clipPath>
    <clipPath id="clip-path-29">
      <rect id="Rectangle_3130" data-name="Rectangle 3130" width="11.099" height="8.444" fill="none"/>
    </clipPath>
    <clipPath id="clip-path-30">
      <rect id="Rectangle_3131" data-name="Rectangle 3131" width="10.018" height="7.678" fill="none"/>
    </clipPath>
    <clipPath id="clip-path-31">
      <rect id="Rectangle_3132" data-name="Rectangle 3132" width="8.936" height="6.914" fill="none"/>
    </clipPath>
    <clipPath id="clip-path-32">
      <rect id="Rectangle_3133" data-name="Rectangle 3133" width="7.856" height="6.151" fill="none"/>
    </clipPath>
    <clipPath id="clip-path-33">
      <rect id="Rectangle_3134" data-name="Rectangle 3134" width="6.776" height="5.389" fill="none"/>
    </clipPath>
    <clipPath id="clip-path-34">
      <rect id="Rectangle_3135" data-name="Rectangle 3135" width="5.697" height="4.63" fill="none"/>
    </clipPath>
    <clipPath id="clip-path-35">
      <rect id="Rectangle_3136" data-name="Rectangle 3136" width="4.62" height="3.875" fill="none"/>
    </clipPath>
    <clipPath id="clip-path-36">
      <path id="Path_104788" data-name="Path 104788" d="M64.567,100.07c-1.081,3.861.673,7.432,1.617,9.356.166.339.938,1.912,1.319,1.8.352-.1.1-1.562.12-3.118.026-1.865.481-3.24,1.388-5.912,2.868-8.444,3.1-8.979,2.809-9.2a.588.588,0,0,0-.363-.1c-1.46,0-5.684,2.866-6.891,7.172" transform="translate(-64.226 -92.898)" fill="none"/>
    </clipPath>
    <linearGradient id="linear-gradient-7" x1="-5.498" y1="4.496" x2="-5.411" y2="4.496" gradientUnits="objectBoundingBox">
      <stop offset="0" stop-color="#b7c0eb"/>
      <stop offset="0.856" stop-color="#edeffd"/>
      <stop offset="0.883" stop-color="#eff1fe"/>
      <stop offset="1" stop-color="#eff1fe"/>
    </linearGradient>
    <clipPath id="clip-path-37">
      <path id="Path_104789" data-name="Path 104789" d="M59.037,110.186a8.654,8.654,0,0,0,1.859,3.126,8.5,8.5,0,0,0,2.8,2.159c.037.017.717.225,2.079.64.517.157.89.265,1.239.08a1.174,1.174,0,0,0,.52-.68,1.874,1.874,0,0,0-.241-1.439c-.361-.714-.864-.751-1.4-1.28-.679-.671-.822-1.883-1.079-4.278a18.906,18.906,0,0,1-.16-2.119c-.01-3.279,1.188-4.839.8-5.117a.278.278,0,0,0-.166-.043c-1.29,0-7.3,4.826-6.252,8.95" transform="translate(-58.914 -101.236)" fill="none"/>
    </clipPath>
    <linearGradient id="linear-gradient-8" x1="-4.433" y1="5.063" x2="-4.356" y2="5.063" gradientUnits="objectBoundingBox">
      <stop offset="0" stop-color="#131413"/>
      <stop offset="0.883" stop-color="#333434"/>
      <stop offset="1" stop-color="#333434"/>
    </linearGradient>
    <clipPath id="clip-path-38">
      <path id="Path_104790" data-name="Path 104790" d="M79.472,66.8a17.529,17.529,0,0,0-5.517,2.4c-5.859,4.135-8.988,14.772-5.483,18.627.808.889,2.333,1.818,3.531,1.422s1.52-1.954,2.122-3.61a26.512,26.512,0,0,1,6.135-9.159c2.922-3.125,3.189-2.784,4.769-5.236.694-1.079,1.116-3.245.032-5.942a.623.623,0,0,0-.647-.388c-1.111,0-3.284,1.445-4.941,1.885" transform="translate(-67 -64.917)" fill="none"/>
    </clipPath>
    <linearGradient id="linear-gradient-9" x1="-2.276" y1="4.201" x2="-2.24" y2="4.201" gradientUnits="objectBoundingBox">
      <stop offset="0" stop-color="#002b4e"/>
      <stop offset="0.512" stop-color="#04589a"/>
      <stop offset="1" stop-color="#0465b4"/>
    </linearGradient>
    <clipPath id="clip-path-39">
      <path id="Path_104791" data-name="Path 104791" d="M24.528,165.531a4.015,4.015,0,0,0-1.284,1.5c-.484,1.059.422,2.05.56,2.259.259.394,2.869,2.811,3.062,3.638a7.221,7.221,0,0,0,.619,1.7,4.738,4.738,0,0,0,3.1,1.919,4.028,4.028,0,0,0,3.119-.06,2.011,2.011,0,0,0,1.1-1.319c.157-1.2-1.417-2.043-1.859-2.2-.034-.012-.237-.082-.28-.02-.062.091.312.328.44.779.061.214.1.586-.06.7-.289.208-1.139-.514-1.359-.7a8.856,8.856,0,0,1-2.479-3.538c-1-2.977.326-4.522-.72-5.377a1.934,1.934,0,0,0-1.236-.376,4.245,4.245,0,0,0-2.722,1.1" transform="translate(-23.104 -164.436)" fill="none"/>
    </clipPath>
    <linearGradient id="linear-gradient-10" x1="-1.392" y1="2.314" x2="-1.33" y2="2.314" xlink:href="#linear-gradient-8"/>
    <clipPath id="clip-path-40">
      <path id="Path_104792" data-name="Path 104792" d="M34.085,144.218c-2.027.233-2.245,7.3-4.8,11.274a14.928,14.928,0,0,1-2.4,3.718c-1.215,1.162,1.081,1.953,2.4,5.637.537,1.5.658,2.35,1.559,3.358.856.958,3.358,1.733,3.74,1.426.352-.282-.885-.982-1.212-2.3a13.679,13.679,0,0,1,.371-6.981c1.829-6.239,3.928-6.163,3.938-9.659.007-3.276-2.16-6.482-3.506-6.482a.743.743,0,0,0-.092.005" transform="translate(-26.546 -144.213)" fill="none"/>
    </clipPath>
    <linearGradient id="linear-gradient-11" x1="-1.584" y1="1.727" x2="-1.521" y2="1.727" xlink:href="#linear-gradient-7"/>
    <clipPath id="clip-path-41">
      <path id="Path_104793" data-name="Path 104793" d="M19.319,59.374c-.723.284-.133,1.457-1.127,3.483-.429.875-1.105,1.777-1.669,2.985a15.707,15.707,0,0,0-1.167,4.2.376.376,0,0,0,.056.319,7.322,7.322,0,0,0,.321,1.625.4.4,0,0,0,.319.1c.154-.022.532.78.714.862.15.067.412-.1.546-.3a4.169,4.169,0,0,1,1.053-.751c.512-.468.391-1.39.667-2.622a8.746,8.746,0,0,1,1.254-2.7c.124-.211.358-.593.508-.55.127.036.139.358.148.636.02.653-.148.8-.152,1.39,0,.316-.005.835.316,1.039a.521.521,0,0,0,.323.079c.468-.053.52-1.032.789-2.528.613-3.4-.434-3.815-.6-4.348-.185-.588.06-.849-.025-1.323a2.319,2.319,0,0,0-1.964-1.651.838.838,0,0,0-.307.053" transform="translate(-15.345 -59.321)" fill="none"/>
    </clipPath>
    <linearGradient id="linear-gradient-12" x1="-1.529" y1="7.892" x2="-1.429" y2="7.892" xlink:href="#linear-gradient-7"/>
    <clipPath id="clip-path-42">
      <path id="Path_104794" data-name="Path 104794" d="M46.256,21.36c-.738.019-.893.267-3.342,1.538-1.627.845-3.332,1.613-6.741,3.148-1.564.7-3.09,1.5-4.687,2.122-1.742.684-2.906,1.028-3.863,2.182a24.845,24.845,0,0,0-2.194,3.7c-2.029,4.528-5.276,14.164-6.672,16.085-.425.583-1.125,1.467-.831,2.149s1.508.923,3.115,1.23c.994.19,1.187.305,1.457.211.81-.286,1.037-1.349,1.4-2.409A34.354,34.354,0,0,1,25.98,47.4c2.757-5.488,2.867-4.788,4.238-7.835,1.29-2.866,1.448-4,2.878-5.038a9.61,9.61,0,0,1,3.359-1.279c3.558-1,5.337-1.5,6.076-1.679,6.071-1.474,9.107-2.211,9.595-3.758.746-2.365-2.733-6.448-5.786-6.448h-.085" transform="translate(-17.854 -21.359)" fill="none"/>
    </clipPath>
    <linearGradient id="linear-gradient-13" x1="-0.148" y1="3.013" x2="-0.132" y2="3.013" gradientUnits="objectBoundingBox">
      <stop offset="0" stop-color="#212221"/>
      <stop offset="0.883" stop-color="#333434"/>
      <stop offset="1" stop-color="#333434"/>
    </linearGradient>
    <clipPath id="clip-path-43">
      <path id="Path_104795" data-name="Path 104795" d="M69.446,8.139c-5.339,1.966-8.412,3.1-9.819,6.514-1.511,3.669-.7,8.989,2.432,10.654,2.141,1.14,5.363.567,5.974-.782.487-1.078-.88-2.237-.169-3.908a4.347,4.347,0,0,1,1.245-1.567c.816-.64,1.191-.432,1.873-1.029A5.859,5.859,0,0,0,72.2,15.907a6.387,6.387,0,0,0,.691-2.231c.052-.665-.086-.637-.052-1.379.056-1.2.43-1.427.456-2.405A2.668,2.668,0,0,0,72.8,7.979a1.538,1.538,0,0,0-1.1-.365,7.107,7.107,0,0,0-2.257.525" transform="translate(-58.891 -7.614)" fill="none"/>
    </clipPath>
    <linearGradient id="linear-gradient-14" x1="-1.757" y1="6.249" x2="-1.724" y2="6.249" xlink:href="#linear-gradient-7"/>
    <clipPath id="clip-path-44">
      <path id="Path_104796" data-name="Path 104796" d="M66.176,0A10.828,10.828,0,0,0,60.2,1.98a8.339,8.339,0,0,0-2.847,4.594c-.355,1.2-1.34,4.519.545,7.268a5.791,5.791,0,0,0,3.941,2.611,5.328,5.328,0,0,0,4.4-1.519c.157-.169.531-.672,1.28-1.679.876-1.179,1.336-1.86,1.719-1.76.1.028.2.179.4.481a2.251,2.251,0,0,0,1.194.92,12.266,12.266,0,0,1-.235-1.48c-.012-.838,1.071-1.418,1.84-2.4a5.329,5.329,0,0,0,1.039-4.157,4.96,4.96,0,0,0-1.159-2.32A6.25,6.25,0,0,0,68.775.41,15.275,15.275,0,0,0,66.212,0Z" transform="translate(-56.78)" fill="none"/>
    </clipPath>
    <linearGradient id="linear-gradient-15" x1="-2.357" y1="9.158" x2="-2.314" y2="9.158" gradientUnits="objectBoundingBox">
      <stop offset="0" stop-color="#212221"/>
      <stop offset="0.593" stop-color="#333434"/>
      <stop offset="0.864" stop-color="#404040"/>
      <stop offset="1" stop-color="#494949"/>
    </linearGradient>
    <clipPath id="clip-path-45">
      <path id="Path_104797" data-name="Path 104797" d="M110.344,19.6a4.141,4.141,0,0,1-1.876,2.445c-.418.253-1.049.526-1.209.346-.145-.163.488-2.706.142-2.862-.237-.106-.564.142-.658.214-.738.563-.519,1.365-1.1,2.634-1.014,2.206-.042,3.114-.318,4.173s-1.522,1.016-1.61,1.813c-.129,1.16,2.346,2.793,3.329,2.222.78-.454.2-2.054,1.442-3.016.371-.288.424-.133.944-.484a5.5,5.5,0,0,0,1.94-2.655,19.346,19.346,0,0,0,.584-2.043,25.981,25.981,0,0,0,.6-4.776v-.1c0-.821-.118-1.409-.426-1.409-.93,0-1.622,2.843-1.781,3.5" transform="translate(-103.709 -16.094)" fill="none"/>
    </clipPath>
    <linearGradient id="linear-gradient-16" x1="-5.549" y1="8.223" x2="-5.493" y2="8.223" xlink:href="#linear-gradient-7"/>
    <clipPath id="clip-path-46">
      <path id="Path_104798" data-name="Path 104798" d="M49.71,57.848c-1.786,1.263-6.817,5.093-7.2,6.31-1.022,3.264-2.21,8.377,1.372,11.565,7,6.234,7.975,1.771,14.805.177,6.875-1.6,7.256-3.076,14.276-5.393a11.57,11.57,0,0,0,3.985-2.259,5.161,5.161,0,0,0,2.139-3.03c.235-1.954-1.628-3.765-2.964-4.6-2.685-1.681-5.613-.9-9.161-.309-5.618.934-8.473-.355-10.474-1.645-1.523-.982-2.55-1.964-3.923-1.964a5.061,5.061,0,0,0-2.858,1.149" transform="translate(-41.471 -56.699)" fill="none"/>
    </clipPath>
    <linearGradient id="linear-gradient-17" x1="-0.767" y1="4.358" x2="-0.748" y2="4.358" xlink:href="#linear-gradient-9"/>
    <clipPath id="clip-path-47">
      <path id="Path_104799" data-name="Path 104799" d="M46.273,76.391c-1.952,2.566.271,5-.911,13.354a76.2,76.2,0,0,1-2.6,10.18c-1.8,6.131-2.694,9.2-4.2,12.49-2.216,4.835-3.762,6.425-4.761,10.752a39.06,39.06,0,0,1-1.119,4.878,24.58,24.58,0,0,1-1.973,4.367,1.388,1.388,0,0,0,.478,1.9,22.921,22.921,0,0,0,3.093,1.333c1.091.416,4.3.807,4.4.578,1.076-2.558,2.877-6.9,2.877-6.9a71.421,71.421,0,0,1,3.919-8.875c1.02-2.118,1.856-3.669,2.638-5.118,1.907-3.533,3.388-5.944,4.478-7.755,2.206-3.67,5.3-9.263,6.476-11.514,5.232-10,7.847-15,6.157-18.151-1.606-2.994-6.207-4.552-10.576-4.552-3.484,0-6.821.99-8.374,3.032" transform="translate(-30.517 -73.359)" fill="none"/>
    </clipPath>
    <linearGradient id="linear-gradient-18" x1="-0.062" y1="1.544" x2="-0.052" y2="1.544" xlink:href="#linear-gradient-9"/>
    <clipPath id="clip-path-48">
      <path id="Path_104800" data-name="Path 104800" d="M46.063,33.012C45.7,35.148,50.5,43.5,35.945,61.451c-.986,1.215,4.454,2.418,7.6,3.358,2.982.892,4.063,1.856,8.339,3.1,4.184,1.213,7.636,2.214,11.766,1.051,1.66-.467,5.005-1.409,6.241-4.183.836-1.875.475-4.063.164-5.947-.41-2.484-1.068-3.054-1-4.919s.769-2.823,1.465-4.458a20.683,20.683,0,0,0,.944-12.439,11.2,11.2,0,0,0-2.464-5.381,12.86,12.86,0,0,0-5.4-3.24c-3.488-1.347-6.22-.952-8.343-2.375-2.606-1.745-.316-2.928-1.881-3.3a6.119,6.119,0,0,0-1.414-.178c-5.261,0-5.51,8.231-5.9,10.477" transform="translate(-35.827 -22.535)" fill="none"/>
    </clipPath>
    <linearGradient id="linear-gradient-19" x1="-0.295" y1="2.365" x2="-0.282" y2="2.365" xlink:href="#linear-gradient-13"/>
    <clipPath id="clip-path-49">
      <path id="Path_104801" data-name="Path 104801" d="M89.27,39.183c-1.646,2.485-2.1,4.867-3.189,4.8-.289-.019-.448-.185-1.087-.848a46.85,46.85,0,0,1-3.541-3.766c-1.176-1.619-.816-1.653-1.73-2.862-.951-1.259-2.493-3.3-4.717-3.519a6.021,6.021,0,0,0-5.837,4.238c-1.062,3.576,2.309,6.812,2.959,7.436,1.795,1.724,2.335.927,5.917,3.519a33.971,33.971,0,0,0,4.567,3.145,6.828,6.828,0,0,0,3.825,1.136,5.444,5.444,0,0,0,2.665-.891c1.418-.955,1.76-2.249,2.814-4.6.259-.58,1-1.989,2.49-4.806,1.252-2.373,2.314-4.228,3.739-6.72.951-1.664,2.107-2.345,1.806-3.122-.131-.338-1.075-.78-2.956-1.649-1.02-.471-1.532-.707-1.585-.709H95.4c-.669,0-1.26,1.884-6.125,9.225" transform="translate(-68.963 -29.958)" fill="none"/>
    </clipPath>
    <linearGradient id="linear-gradient-20" x1="-1.582" y1="5.764" x2="-1.558" y2="5.764" xlink:href="#linear-gradient-13"/>
    <clipPath id="clip-path-50">
      <path id="Path_104802" data-name="Path 104802" d="M56.927,15.829a3.793,3.793,0,0,0-2.782,2.747,2.781,2.781,0,0,0,.277,2.232,2.8,2.8,0,0,0,1.967,1.034,3.359,3.359,0,0,0,2.553-.482,3.294,3.294,0,0,0,1.311-2.173c.224-1.5-.443-3.088-1.73-3.468a2.12,2.12,0,0,0-.6-.085,2.8,2.8,0,0,0-.993.2" transform="translate(-54.032 -15.633)" fill="none"/>
    </clipPath>
    <linearGradient id="linear-gradient-21" x1="-4.238" y1="15.41" x2="-4.157" y2="15.41" xlink:href="#linear-gradient-15"/>
  </defs>
  <g id="Group_88600" data-name="Group 88600" transform="translate(-603.626 -3844.819)">
    <g id="Group_87289" data-name="Group 87289" transform="translate(603.626 3928.012)">
      <g id="Group_87287" data-name="Group 87287" transform="translate(0 51.636)" style="mix-blend-mode: multiply;isolation: isolate">
        <path id="Path_99155" data-name="Path 99155" d="M872.406,385.539C828.617,394.929,826.6,417.5,826.6,417.5l1.341,2.537,1.593,1.557,69.207,39.166,4.374.926,3.054.215,3.067-.108,7.311-1.563,5.526-3.426,69.676-42.625,1.079-.679.964-.738.824-.776.682-.808.542-.834.4-.854.259-.867.118-.875s8.061-13.965-9.3-20.906S882.473,383.381,872.406,385.539Z" transform="translate(-826.6 -382.732)" fill="#fff" opacity="0"/>
        <path id="Path_99156" data-name="Path 99156" d="M872.786,386.817c-2.334.5-4.541,1.087-6.63,1.662-2.35.647-4.54,1.381-6.6,2.1-2.384.839-4.561,1.768-6.579,2.685a63.342,63.342,0,0,0-6.555,3.486,48.636,48.636,0,0,0-6.377,4.609,36.015,36.015,0,0,0-5.725,6.127,24.125,24.125,0,0,0-3.975,7.943,9.618,9.618,0,0,0-.333,1.66l1.272,2.39,1.5,1.467,1.153.656L901,459.6l1.392.314,1.473.327,1.435.313,1.552.125,1.461.114,1.6-.042,1.435-.04,1.641-.33,1.612-.328,1.617-.333,2.3-.485,1.372-.816,1.354-.809,1.307-.787,1.445-.878.848-.51,1.19-.723,66.715-40.7,1.053-.662.365-.277.576-.441.8-.75.669-.785.244-.368.292-.444.4-.826.262-.842.063-.41.066-.442s.14-.247.325-.643c.123-.264.286-.652.442-1.061.117-.306.243-.695.357-1.07,1.152-3.773,1.443-11.464-7.123-16.228-.309-.172-.632-.387-.966-.553s-.664-.363-1.01-.517-.706-.345-1.069-.49c-.191-.076-.414-.2-.622-.269s-.453-.188-.677-.259-.489-.179-.728-.247-.533-.174-.789-.239c-.174-.044-.386-.114-.567-.156-16.224-3.864-67.076-2.748-93.66-1.267A145.394,145.394,0,0,0,872.786,386.817Z" transform="translate(-827.961 -382.995)" fill="#fafbfe" opacity="0.063"/>
        <path id="Path_99157" data-name="Path 99157" d="M873.167,388.073c-2.179.467-4.237,1.064-6.187,1.6-2.193.6-4.228,1.338-6.147,2.013-2.225.783-4.241,1.7-6.123,2.553a58.438,58.438,0,0,0-6.094,3.3,44.947,44.947,0,0,0-5.919,4.348,33.352,33.352,0,0,0-5.3,5.763,22.243,22.243,0,0,0-3.661,7.456,8.193,8.193,0,0,0-.3,1.557l1.2,2.242,1.415,1.378,1.136.65,66.076,37.485,1.366.327,1.447.336,1.416.318,1.528.138,1.445.123,1.574-.026,1.425-.029,1.618-.3,1.59-.307,1.594-.317,2.235-.462,1.363-.776,1.344-.774,1.3-.757,1.422-.848.84-.5,1.177-.709,65.813-40.041,1.028-.646.356-.268.562-.43.778-.723.656-.763.242-.356.288-.433.392-.8.265-.818.068-.4.069-.43s.144-.26.317-.63c.115-.247.282-.657.427-1.038.109-.285.233-.7.339-1.047a13.8,13.8,0,0,0-7-15.9c-.289-.161-.591-.41-.9-.565s-.629-.387-.951-.531-.677-.371-1.016-.506c-.178-.071-.411-.229-.605-.3s-.456-.221-.665-.288-.5-.212-.719-.275-.547-.2-.785-.265c-.162-.041-.4-.134-.567-.174-15.142-3.606-68.654-2.118-94.48-.646A119.983,119.983,0,0,0,873.167,388.073Z" transform="translate(-829.321 -383.235)" fill="#f6f7fc" opacity="0.125"/>
        <path id="Path_99158" data-name="Path 99158" d="M873.547,389.291c-2.024.434-3.934,1.04-5.743,1.538-2.037.56-3.916,1.295-5.7,1.922-2.067.726-3.919,1.628-5.668,2.422a53.68,53.68,0,0,0-5.631,3.116,41.251,41.251,0,0,0-5.461,4.087,30.68,30.68,0,0,0-4.881,5.4,20.41,20.41,0,0,0-3.348,6.968,7.013,7.013,0,0,0-.268,1.454l1.136,2.1,1.325,1.288,1.119.644L905.524,457.2l1.339.341,1.422.344,1.4.324,1.5.152,1.43.133,1.551-.011,1.413-.018,1.594-.279,1.568-.286,1.572-.3,2.165-.44,1.355-.735,1.334-.739,1.289-.729,1.4-.816.832-.485,1.164-.694,64.911-39.38,1-.629.348-.261.547-.418.755-.7.643-.741.24-.345.283-.421.389-.769.268-.792.074-.387.073-.419s.149-.273.309-.617c.107-.229.277-.662.411-1.016.1-.265.223-.7.323-1.025a14.154,14.154,0,0,0-6.884-15.572c-.268-.149-.551-.433-.84-.577s-.594-.412-.894-.546-.646-.4-.961-.521c-.166-.066-.409-.264-.589-.327s-.458-.255-.653-.316-.506-.245-.712-.3-.559-.236-.781-.292c-.15-.038-.409-.154-.566-.191-14.06-3.349-70.235-1.556-95.3-.027A97.484,97.484,0,0,0,873.547,389.291Z" transform="translate(-830.682 -383.438)" fill="#f1f3fb" opacity="0.188"/>
        <path id="Path_99159" data-name="Path 99159" d="M873.928,390.5c-1.868.4-3.629,1.016-5.3,1.476-1.88.517-3.6,1.251-5.25,1.83-1.907.671-3.6,1.559-5.212,2.292a48.88,48.88,0,0,0-5.17,2.931,37.572,37.572,0,0,0-5,3.826,28,28,0,0,0-4.458,5.035,18.564,18.564,0,0,0-3.035,6.481,5.871,5.871,0,0,0-.235,1.351l1.067,1.948,1.236,1.2,1.1.638,64.115,36.466,1.312.354,1.4.353,1.376.33,1.479.165,1.413.143,1.528,0,1.4-.007,1.57-.253,1.546-.265,1.549-.283,2.1-.417,1.346-.695,1.325-.7,1.28-.7,1.378-.785.824-.473,1.15-.68,64.01-38.718.976-.614.339-.251.532-.407.731-.669.63-.718.238-.335.28-.41.384-.741.27-.767.08-.374.078-.409s.153-.285.3-.6c.1-.211.273-.667.4-.994.093-.245.213-.7.3-1,.922-3.019.089-11.433-6.764-15.244-.248-.138-.51-.457-.777-.589s-.558-.437-.835-.56-.616-.42-.907-.536c-.152-.061-.406-.3-.572-.357s-.461-.288-.64-.345-.514-.277-.7-.331-.571-.266-.776-.318c-.139-.036-.421-.175-.566-.209-12.979-3.091-71.814-.939-96.12.593A81.969,81.969,0,0,0,873.928,390.5Z" transform="translate(-832.043 -383.629)" fill="#edeffa" opacity="0.25"/>
        <path id="Path_99160" data-name="Path 99160" d="M874.308,391.682c-1.712.367-3.325.993-4.857,1.414-1.724.474-3.293,1.208-4.8,1.738-1.748.615-3.277,1.489-4.757,2.161a44.283,44.283,0,0,0-4.707,2.745,34.014,34.014,0,0,0-4.544,3.565,25.371,25.371,0,0,0-4.036,4.671,16.731,16.731,0,0,0-2.722,5.994,4.883,4.883,0,0,0-.2,1.248l1,1.8,1.147,1.109,1.085.631,63.134,35.957,1.286.368,1.369.362,1.356.335,1.454.178,1.4.152,1.5.02,1.392,0,1.546-.227,1.525-.244,1.527-.266,2.027-.394,1.338-.655,1.316-.669,1.271-.67,1.356-.754.816-.46,1.136-.666,63.108-38.056.95-.6.331-.243.518-.4.708-.642.617-.7.236-.323.276-.4.381-.713.273-.742.085-.362.082-.4s.157-.3.293-.589c.091-.194.268-.671.382-.971.085-.224.2-.705.288-.98.845-2.768-.363-11.423-6.646-14.916-.227-.126-.469-.48-.714-.6s-.524-.461-.777-.574-.587-.446-.852-.552c-.14-.055-.4-.332-.556-.386s-.464-.322-.628-.374-.522-.31-.7-.359-.584-.3-.772-.345c-.127-.033-.433-.195-.566-.226-11.9-2.833-73.393-.318-96.941,1.213A69.759,69.759,0,0,0,874.308,391.682Z" transform="translate(-833.404 -383.798)" fill="#e8ebf9" opacity="0.313"/>
        <path id="Path_99161" data-name="Path 99161" d="M874.688,392.843c-1.557.334-3.022.969-4.414,1.353-1.567.431-2.981,1.164-4.351,1.647-1.59.559-2.956,1.419-4.3,2.03a39.633,39.633,0,0,0-4.245,2.561,30.468,30.468,0,0,0-4.087,3.3,22.768,22.768,0,0,0-3.613,4.308,14.951,14.951,0,0,0-2.409,5.506,4.06,4.06,0,0,0-.171,1.145l.93,1.653,1.058,1.019,1.068.625,62.153,35.448,1.26.381,1.343.371,1.337.341,1.43.191,1.381.162,1.482.035,1.381.015,1.522-.2,1.5-.222,1.5-.249,1.958-.372,1.329-.614,1.306-.634L932.3,452l1.334-.723.808-.447,1.123-.652,62.206-37.395.925-.581.322-.234.5-.384.685-.616.6-.673.234-.312.271-.388.377-.684.276-.718.092-.35.086-.386s.162-.31.285-.575c.082-.176.264-.676.367-.949.078-.2.194-.707.271-.957.768-2.516-.815-11.411-6.526-14.587-.206-.114-.428-.5-.651-.613s-.489-.486-.719-.588-.557-.47-.8-.567c-.127-.051-.4-.367-.539-.416s-.466-.356-.615-.4-.53-.342-.689-.387-.6-.327-.767-.371c-.116-.03-.445-.215-.566-.244-10.816-2.576-74.971.307-97.761,1.833C881.9,389.409,876.2,392.519,874.688,392.843Z" transform="translate(-834.764 -383.943)" fill="#e4e7f7" opacity="0.375"/>
        <path id="Path_99162" data-name="Path 99162" d="M875.067,393.982c-1.4.3-2.717.946-3.97,1.291-1.41.388-2.669,1.121-3.9,1.555-1.43.5-2.635,1.35-3.845,1.9a34.778,34.778,0,0,0-3.783,2.375,26.953,26.953,0,0,0-3.629,3.042,20.167,20.167,0,0,0-3.191,3.943,13.185,13.185,0,0,0-2.1,5.02,3.283,3.283,0,0,0-.138,1.041l.861,1.506.969.93,1.05.619,61.173,34.938,1.233.394,1.317.38,1.316.345,1.406.205,1.366.172,1.459.051,1.37.026,1.5-.176,1.481-.2,1.482-.232,1.889-.35,1.321-.575,1.3-.6,1.253-.611,1.312-.692.8-.434,1.109-.638,61.3-36.732.9-.565.313-.226.487-.373.662-.588.592-.65.232-.3.267-.376.374-.656.279-.693.1-.338.091-.375s.166-.324.277-.561c.074-.159.259-.682.352-.927.07-.184.185-.71.253-.935.691-2.264-1.267-11.4-6.407-14.259-.186-.1-.387-.526-.588-.625s-.454-.51-.661-.6-.526-.5-.744-.583c-.114-.046-.4-.4-.523-.445s-.469-.389-.6-.431-.538-.375-.68-.415-.61-.359-.764-.4c-.1-.026-.457-.235-.565-.261-9.734-2.318-76.548.934-98.58,2.453C881.93,390.165,876.43,393.69,875.067,393.982Z" transform="translate(-836.124 -384.067)" fill="#dfe3f6" opacity="0.438"/>
        <path id="Path_99163" data-name="Path 99163" d="M875.445,395.1c-1.245.267-2.413.922-3.527,1.229-1.253.345-2.357,1.078-3.454,1.463-1.271.448-2.313,1.28-3.39,1.769a30.433,30.433,0,0,0-3.322,2.19,23.494,23.494,0,0,0-3.171,2.781,17.639,17.639,0,0,0-2.768,3.58,11.479,11.479,0,0,0-1.783,4.532,2.633,2.633,0,0,0-.106.939l.792,1.358.88.841,1.034.612,60.192,34.429,1.207.407,1.291.389,1.3.351,1.381.218,1.35.182,1.436.067,1.359.037,1.474-.15,1.46-.18,1.46-.215,1.819-.327,1.312-.535,1.288-.563,1.244-.582,1.289-.661.793-.422,1.1-.624,60.4-36.071.873-.548.305-.218.472-.362.639-.561.578-.628.23-.291.263-.365.37-.628.281-.667.1-.326.1-.364s.17-.336.269-.548c.066-.141.254-.686.337-.9.062-.163.175-.712.236-.912.614-2.013-1.719-11.391-6.287-13.932-.166-.091-.347-.549-.525-.637s-.418-.534-.6-.617-.5-.521-.69-.6c-.1-.04-.4-.435-.506-.474s-.472-.422-.591-.46-.547-.408-.673-.443-.621-.389-.759-.424c-.092-.024-.469-.256-.565-.279-8.652-2.061-78.126,1.565-99.4,3.073C881.957,390.9,876.656,394.841,875.445,395.1Z" transform="translate(-837.482 -384.169)" fill="#dbdff5" opacity="0.5"/>
        <path id="Path_99164" data-name="Path 99164" d="M875.821,396.2c-1.09.234-2.109.9-3.084,1.167-1.1.3-2.044,1.034-3,1.372a32.633,32.633,0,0,0-2.934,1.638,25.841,25.841,0,0,0-2.86,2,20.092,20.092,0,0,0-2.713,2.52,15.167,15.167,0,0,0-2.346,3.215,9.815,9.815,0,0,0-1.47,4.045,2.1,2.1,0,0,0-.073.836l.724,1.211.791.75,1.016.607,59.212,33.92,1.18.421,1.265.4,1.277.356,1.356.232,1.334.191,1.413.082,1.348.048,1.451-.125,1.437-.159,1.438-.2,1.75-.3,1.3-.494,1.278-.528,1.235-.552,1.267-.63.785-.409,1.082-.61,59.5-35.409.847-.532.3-.209.457-.35.616-.535.565-.605.229-.279.259-.353.366-.6.285-.643.108-.314.1-.353s.175-.35.262-.535c.057-.123.249-.691.321-.882.055-.143.166-.714.219-.889.538-1.761-2.17-11.381-6.168-13.6-.144-.08-.306-.572-.462-.649s-.383-.559-.545-.631-.466-.546-.635-.614c-.089-.036-.393-.469-.49-.5s-.474-.456-.579-.489-.554-.44-.665-.472-.634-.419-.754-.45c-.081-.02-.48-.276-.565-.3-7.571-1.8-79.7,2.2-100.22,3.693C881.982,391.62,876.88,395.971,875.821,396.2Z" transform="translate(-838.838 -384.252)" fill="#d6dcf4" opacity="0.563"/>
        <path id="Path_99165" data-name="Path 99165" d="M876.2,397.278c-.934.2-1.8.875-2.64,1.105-.94.258-1.733.991-2.556,1.28a27.31,27.31,0,0,0-2.478,1.507,21.6,21.6,0,0,0-2.4,1.819c-1,.6-1.535,1.649-2.255,2.259-.989.839-1.357,2.085-1.924,2.852a8.2,8.2,0,0,0-1.156,3.558,1.608,1.608,0,0,0-.041.733l.655,1.064.7.661,1,.6,58.231,33.41,1.153.435,1.239.407,1.257.362,1.332.245,1.318.2,1.39.1,1.337.058,1.427-.1,1.416-.138,1.416-.181,1.68-.282,1.295-.454,1.268-.493,1.225-.523,1.245-.6.777-.4,1.069-.6,58.6-34.747.821-.516.288-.2.443-.339.592-.508.552-.582.227-.268.255-.342.362-.572.287-.618.115-.3.1-.342s.179-.362.253-.52c.049-.106.244-.7.306-.86.047-.123.156-.717.2-.867.461-1.51-2.622-11.37-6.049-13.276-.124-.069-.265-.6-.4-.661s-.348-.584-.486-.645-.436-.572-.582-.629c-.076-.031-.39-.5-.473-.534s-.477-.489-.566-.517-.563-.473-.658-.5-.647-.451-.75-.477c-.069-.018-.492-.3-.565-.314-6.49-1.546-81.281,2.835-101.04,4.313C882.005,392.322,877.1,397.084,876.2,397.278Z" transform="translate(-840.193 -384.317)" fill="#d2d8f2" opacity="0.625"/>
        <path id="Path_99166" data-name="Path 99166" d="M876.567,398.341c-.779.167-1.5.851-2.2,1.043-.783.215-1.421.948-2.106,1.189-.795.279-1.35,1.071-2.023,1.376-.813.369-1.285,1.242-1.936,1.635-.83.5-1.2,1.489-1.8,2-.824.7-1.029,1.849-1.5,2.487a6.7,6.7,0,0,0-.843,3.071,1.214,1.214,0,0,0-.008.629l.587.916.612.572.982.595,57.251,32.9,1.127.448,1.213.416,1.238.367,1.307.258,1.3.211,1.367.113,1.326.07,1.4-.073,1.394-.117,1.393-.164,1.612-.259,1.286-.414,1.259-.458,1.216-.494,1.223-.568.77-.384,1.055-.582,57.7-34.085.8-.5.279-.191.428-.328.569-.481.539-.56.224-.258.251-.33.359-.543.29-.593.12-.289.108-.331s.183-.375.245-.507c.041-.088.24-.7.291-.838.039-.1.147-.72.185-.844.384-1.258-3.073-11.359-5.929-12.948-.1-.057-.224-.618-.336-.673s-.313-.608-.428-.659-.406-.6-.527-.644c-.064-.026-.387-.538-.457-.563s-.48-.523-.554-.546-.57-.505-.65-.528-.66-.481-.745-.5c-.058-.014-.5-.316-.564-.331-5.408-1.288-82.859,3.474-101.861,4.933C882.027,393.008,877.324,398.179,876.567,398.341Z" transform="translate(-841.545 -384.364)" fill="#cdd4f1" opacity="0.688"/>
        <path id="Path_99167" data-name="Path 99167" d="M876.937,399.389c-.623.134-1.2.828-1.754.981-.627.172-1.109.9-1.657,1.1-.636.224-1.03,1-1.567,1.246-.651.3-.953,1.135-1.474,1.449-.665.4-.859,1.33-1.339,1.736-.659.56-.7,1.613-1.079,2.124-.658.89-.4,2.131-.529,2.584a.9.9,0,0,0,.023.526l.518.77.523.481.965.588,56.27,32.391,1.1.461,1.187.425,1.218.372,1.283.272,1.286.22,1.344.129,1.316.081,1.378-.048,1.372-.1,1.371-.147,1.542-.237,1.277-.374,1.25-.422,1.207-.465,1.2-.537.762-.371,1.041-.568,56.8-33.423.77-.484.271-.183.413-.316.546-.454.526-.537.222-.247.248-.319.354-.515.293-.569.126-.277.112-.32s.188-.388.238-.494c.032-.07.235-.706.277-.815.031-.082.136-.722.167-.822.307-1.007-3.526-11.349-5.81-12.62-.083-.046-.184-.641-.273-.685s-.277-.632-.369-.673-.377-.622-.474-.661c-.051-.02-.385-.572-.44-.592s-.481-.557-.541-.575-.579-.538-.642-.556-.673-.511-.741-.529c-.047-.012-.516-.337-.564-.348-4.327-1.031-84.436,4.114-102.681,5.553C882.046,393.681,877.542,399.259,876.937,399.389Z" transform="translate(-842.895 -384.396)" fill="#c9d0f0" opacity="0.75"/>
        <path id="Path_99168" data-name="Path 99168" d="M877.284,400.422c-.467.1-.893.8-1.31.919-.47.129-.8.861-1.209,1.005-.477.168-.708.931-1.111,1.115-.488.222-.621,1.028-1.012,1.264-.5.3-.521,1.17-.881,1.475-.495.42-.374,1.377-.657,1.76-.493.667-.123,1.756-.217,2.1a.646.646,0,0,0,.057.423l.449.622.434.392.948.582,55.29,31.882,1.074.475,1.161.434,1.2.377,1.259.285,1.27.23,1.321.144,1.305.091,1.354-.022,1.351-.074,1.348-.13,1.473-.214,1.268-.333,1.24-.388,1.2-.436,1.179-.506.755-.359,1.027-.554,55.895-32.761.744-.468.262-.174.4-.3.523-.428.514-.515.22-.235.244-.307.351-.487.3-.543.131-.266.117-.309s.192-.4.229-.48c.025-.053.23-.711.262-.793.023-.061.127-.724.15-.8.23-.754-3.977-11.338-5.691-12.291-.061-.034-.142-.664-.209-.7s-.243-.656-.312-.688-.346-.647-.419-.676c-.039-.016-.382-.607-.424-.622s-.484-.59-.529-.6-.586-.57-.634-.584-.685-.542-.737-.555c-.034-.009-.528-.357-.564-.366-3.245-.773-86.012,4.757-103.5,6.173C882.044,394.343,877.739,400.324,877.284,400.422Z" transform="translate(-844.223 -384.413)" fill="#c4ccef" opacity="0.813"/>
        <path id="Path_99169" data-name="Path 99169" d="M877.534,401.442c-.311.067-.589.78-.867.857-.313.086-.486.817-.76.914-.318.111-.387.862-.656.984-.326.148-.289.922-.55,1.079-.332.2-.183,1.01-.423,1.214-.33.28-.046,1.141-.235,1.4-.329.445.159,1.383.1,1.609a.47.47,0,0,0,.088.319l.38.475.345.3.931.576,54.309,31.373,1.048.488,1.134.443,1.179.383,1.234.3,1.255.24,1.3.159,1.294.1,1.331,0,1.329-.053,1.326-.113,1.4-.191,1.26-.294,1.23-.352,1.189-.406,1.156-.475.747-.346,1.014-.54,54.993-32.1.718-.451.254-.166.383-.294.5-.4.5-.492.218-.224.24-.3.347-.459.3-.518.138-.253.12-.3s.2-.413.222-.466c.016-.035.226-.716.247-.77s.118-.727.133-.777c.153-.5-4.429-11.328-5.572-11.964-.041-.023-.1-.687-.146-.709s-.208-.681-.253-.7-.316-.672-.365-.692c-.025-.01-.379-.641-.407-.65s-.486-.623-.516-.633-.595-.6-.627-.612-.7-.573-.732-.582-.54-.378-.564-.383c-2.163-.515-87.589,5.4-104.321,6.793C881.943,394.994,877.837,401.377,877.534,401.442Z" transform="translate(-845.453 -384.418)" fill="#c0c8ed" opacity="0.875"/>
        <path id="Path_99170" data-name="Path 99170" d="M877.583,402.449c-.156.034-.285.758-.424.8-.156.043-.173.774-.311.822-.159.056-.065.792-.2.854-.162.073.042.815-.088.893-.166.1.155.851.035.952-.165.14.282.9.188,1.032-.164.223.441,1.008.41,1.122-.019.07.121.217.121.217l.312.327.255.213.914.569,53.328,30.863,1.022.5,1.108.452,1.158.388,1.21.312,1.238.25,1.275.175,1.283.113,1.307.03,1.307-.032,1.3-.1,1.335-.168,1.251-.253,1.221-.317,1.18-.377,1.134-.444.739-.333,1-.526,54.091-31.437.692-.435.245-.158.369-.282.476-.374.487-.47.217-.214.235-.285.344-.43.3-.493.143-.241.125-.286.214-.453c.008-.017.221-.72.232-.748s.108-.729.116-.754c.077-.251-4.88-11.318-5.451-11.635-.021-.011-.062-.711-.084-.722s-.173-.706-.2-.716-.286-.7-.311-.707-.376-.675-.391-.68-.489-.657-.5-.662-.6-.636-.619-.64-.71-.6-.727-.608-.552-.4-.564-.4c-1.081-.257-89.163,6.065-105.141,7.413C881.643,395.652,877.734,402.417,877.583,402.449Z" transform="translate(-846.481 -384.41)" fill="#bbc4ec" opacity="0.938"/>
        <path id="Path_99171" data-name="Path 99171" d="M895.592,394.933c-15.22,1.339-18.93,8.514-18.93,8.514l.019.734.138.73.256.723.374.709.493.691.61.668.723.635.563.417.9.564,52.348,30.354,1,.515,1.082.461,1.139.393,1.185.325,1.223.259,1.251.191,1.272.124,1.283.056,1.285-.011,1.281-.079,1.266-.146,1.243-.213,1.212-.282,1.171-.348,1.112-.413.731-.321.987-.511,53.19-30.776.9-.567.807-.618.69-.65.571-.676.453-.7.335-.714.217-.726.1-.732-5.333-11.307-.02-.734-.137-.73-.256-.723-.374-.71-.492-.69-.611-.668-.723-.635-.564-.418S910.812,393.594,895.592,394.933Z" transform="translate(-846.541 -384.392)" fill="#b7c0eb"/>
      </g>
      <path id="Path_99172" data-name="Path 99172" d="M880.047,353.794l-.792.614-.677.645-.561.672-.444.693-.329.71-.212.721-.1.727v31.376l.019.729.136.726.251.718.367.7.484.687.6.663.71.63.553.415.88.559,52.948,30.569.977.512,1.062.457,1.118.391,1.163.323,1.2.257,1.229.189,1.249.123,1.26.056,1.262-.011,1.257-.079,1.243-.145,1.22-.212,1.19-.279,1.15-.346,1.092-.41.718-.319.969-.508,52.948-30.57.886-.564.792-.614.677-.645.56-.672.445-.693.329-.71.212-.721.1-.727V359.06l-.02-.728-.135-.725-.251-.718-.367-.7-.483-.687-.6-.663-.71-.63-.553-.415Z" transform="translate(-846.65 -319.567)" fill="#b7c0eb"/>
      <path id="Path_99173" data-name="Path 99173" d="M1010.184,362.229l-.1.728-.212.721-.329.71-.445.693-.56.672-.677.646-.792.613-.887.564-52.948,30.57-.969.508-.718.32-1.092.409-1.15.347-1.189.279-1.22.212-1.243.145-1.257.078-1.262.011-1.26-.056-1.249-.122-1.229-.19-1.2-.257-1.163-.324-1.118-.391-1.062-.458-.977-.512-52.948-30.569-.88-.559-.553-.414-.71-.63-.6-.664-.484-.686-.367-.7-.251-.718-.135-.726-.019-.728Z" transform="translate(-846.65 -322.736)" fill="url(#linear-gradient)"/>
      <path id="Path_99174" data-name="Path 99174" d="M880.933,351.958l-.886.564-.792.614-.677.645-.561.672-.444.693-.329.71-.212.721-.1.727v31.376l.019.728.136.726.251.718.367.7.484.687.6.664.71.63.553.414.88.559,52.948,30.569.977.512,1.062.457,1.118.391,1.163.323,1.2.258,1.229.189,1.249.123,1.26.056,1.262-.011,1.257-.078,1.243-.145,1.22-.212,1.19-.279,1.15-.346,1.092-.41.718-.319.969-.508,52.948-30.57.886-.564.792-.614.677-.645.56-.671.445-.693.329-.71.212-.721.1-.727V357.789l-.02-.729-.135-.725-.251-.718-.367-.7-.483-.686-.6-.664-.71-.631-.553-.415-1.178-.7Z" transform="translate(-846.65 -318.783)" fill="url(#linear-gradient-2)"/>
      <path id="Path_99175" data-name="Path 99175" d="M1008.482,338.945l-.615.587-.72.558-.826.525L952.7,371.507l-.91.477-.638.284-1,.375-1.044.315-1.08.253-1.109.193-1.13.132-1.142.071-1.147.01-1.145-.051-1.135-.111-1.117-.172-1.09-.233-1.057-.294-1.015-.355-.967-.416-.909-.477-53.669-30.892-.825-.525-.492-.369-.649-.577-.545-.6-.439-.623-.334-.64-.229-.652-.122-.659-.017-.663.087-.661.194-.655.3-.645.4-.63.509-.61.615-.587.72-.558.825-.525,53.669-30.2.909-.477.639-.284,1-.375,1.044-.314,1.08-.254,1.109-.193,1.129-.132,1.142-.071,1.148-.01,1.144.051,1.135.111,1.116.172,1.091.233,1.057.294,1.015.355.966.416.91.477,53.624,30.2.826.525.492.369.649.578.545.6.439.623.333.64.228.652.123.66.018.662-.088.661-.193.656-.3.644-.4.63-.509.61Z" transform="translate(-846.971 -297.394)" fill="#d2d7f6"/>
      <path id="Path_99176" data-name="Path 99176" d="M1008.269,338.076l-.614.586-.72.558-.826.525L953.2,370.292l-.91.477-.638.284-1,.375-1.044.314-1.08.253-1.109.193-1.13.132-1.142.071L944,372.4l-1.145-.051-1.135-.112-1.117-.172-1.09-.233-1.057-.294-1.015-.355-.966-.416-.909-.477-52.905-30.545-.826-.525-.492-.369-.65-.577-.545-.6-.439-.623-.334-.64-.229-.652-.122-.659-.018-.663.087-.661.193-.655.3-.645.4-.63.51-.61.615-.587.72-.558.826-.525,52.905-30.545.909-.477.639-.284,1-.376,1.044-.314,1.08-.254,1.109-.193,1.129-.132,1.142-.071,1.148-.01,1.144.051,1.135.111,1.117.172,1.091.233,1.056.294,1.015.355.966.416.91.477,52.906,30.544.826.525.492.369.65.578.545.6.439.623.333.641.228.652.123.66.018.662-.088.661-.193.655-.3.645-.4.63-.51.61Z" transform="translate(-847.477 -296.91)" fill="#fdfcff"/>
      <g id="Group_87288" data-name="Group 87288" transform="translate(41.712 5.236)">
        <path id="Path_99177" data-name="Path 99177" d="M1074.591,356.854v-.066l-.012-.066-.023-.066-.033-.064-.044-.063-.055-.06-.064-.057-.049-.037-.082-.053-1.769-1.02-.09-.047-.1-.042-.1-.036-.105-.029-.108-.023-.112-.017-.113-.011-.114-.005h-.114l-.114.008-.113.013-.11.019-.108.025-.1.032-.1.037-.064.029-.09.047-1.769,1.02-.082.053-.072.055-.061.058-.052.061-.04.063-.029.064-.02.065-.008.128v.753l0,.066.012.067.023.064.033.064.044.063.054.06.064.058.049.037.082.052,1.769,1.021.09.048.1.041.1.035.105.029.109.023.111.018.113.011.114,0h.115l.113-.007.113-.013.111-.019.108-.026.1-.031.1-.038.064-.028.09-.048,1.769-1.021.082-.052.072-.056.061-.058.052-.061.04-.064.029-.063.019-.065.009-.066,0-.764Z" transform="translate(-964.696 -325.322)" fill="#b7c0eb"/>
        <path id="Path_99178" data-name="Path 99178" d="M1074.591,356.7v-.066l-.012-.066-.023-.065-.033-.064-.044-.062-.055-.06-.064-.057-.049-.037-.082-.052-1.769-1.021-.09-.048-.1-.041-.1-.036-.105-.029-.108-.024-.112-.017-.113-.011-.114,0h-.114l-.114.007-.113.013-.11.02-.108.025-.1.031-.1.037-.064.029-.09.048-1.769,1.021-.082.052-.072.056-.061.058-.052.061-.04.063-.029.065-.02.065-.008.127v.753l0,.066.012.066.023.064.033.064.044.063.054.06.064.058.049.036.082.052,1.769,1.021.09.048.1.041.1.035.105.029.109.023.111.017.113.011.114,0h.115l.113-.007.113-.013.111-.019.108-.026.1-.031.1-.037.064-.028.09-.048,1.769-1.021.082-.052.072-.056.061-.058.052-.061.04-.063.029-.064.019-.065.009-.066,0-.763Z" transform="translate(-964.696 -325.259)" fill="url(#linear-gradient-3)"/>
        <path id="Path_99179" data-name="Path 99179" d="M1074.534,356.892l-.04.063-.052.061-.061.059-.072.056-.082.052-1.769,1.021-.09.048-.064.027-.1.038-.1.031-.108.026-.111.019-.113.013-.114.007-.115,0-.114-.005-.113-.011-.111-.017-.109-.023-.105-.029-.1-.035-.1-.041-.09-.048-1.769-1.021-.082-.052-.049-.037-.064-.058-.054-.06-.044-.062-.033-.063-.023-.065-.012-.066,0-.066.008-.066.02-.065.029-.065.04-.063.051-.061.061-.058.072-.056.082-.053,1.769-1.021.09-.048.064-.029.1-.037.1-.031.108-.025.111-.019.113-.013.114-.007h.114l.115.005.113.011.112.017.108.023.106.029.1.035.1.042.09.048,1.769,1.021.082.053.049.036.065.057.054.06.044.062.033.064.023.065.013.066v.066l-.009.066-.019.065-.029.064Z" transform="translate(-964.696 -325.259)" fill="#eff1fe"/>
        <path id="Path_99180" data-name="Path 99180" d="M989.3,307.53v-.066l-.013-.066-.023-.065-.033-.064-.044-.063-.055-.06-.064-.057-.049-.037-.082-.052-1.77-1.02-.09-.048-.1-.042-.1-.036-.106-.029-.108-.024-.112-.016-.113-.011-.114-.005h-.114l-.114.008-.113.013-.111.019-.108.025-.1.032-.1.037-.064.028-.09.048L983.637,307l-.082.052-.072.056-.061.058-.052.061-.04.063-.029.065-.02.065-.008.127v.753l0,.066.013.066.023.064.032.064.044.063.055.06.064.058.049.036.082.053,1.769,1.021.09.048.1.041.1.035.106.029.108.023.111.017.113.011.114,0h.114l.114-.007.113-.013.11-.019.108-.026.1-.032.1-.037.064-.028.09-.048,1.77-1.021.082-.053.071-.055.061-.058.052-.061.04-.064.029-.063.019-.066.009-.066,0-.764Z" transform="translate(-930.72 -305.675)" fill="#b7c0eb"/>
        <path id="Path_99181" data-name="Path 99181" d="M989.3,307.373v-.066l-.013-.066-.023-.065-.033-.064-.044-.062-.055-.06-.064-.057-.049-.037-.082-.053-1.77-1.02-.09-.048-.1-.042-.1-.035-.106-.029-.108-.024-.112-.017-.113-.011-.114-.005h-.114l-.114.007-.113.013-.111.02-.108.024-.1.032-.1.037-.064.029-.09.048-1.769,1.02-.082.053-.072.056-.061.058-.052.061-.04.063-.029.064-.02.065-.008.128v.753l0,.066.013.066.023.064.032.064.044.062.055.06.064.058.049.036.082.052,1.769,1.021.09.048.1.041.1.035.106.03.108.023.111.017.113.011.114.005.114,0,.114-.007.113-.013.11-.019.108-.026.1-.031.1-.038.064-.027.09-.048,1.77-1.021.082-.052.071-.056.061-.058.052-.061.04-.063.029-.064.019-.065.009-.066,0-.764Z" transform="translate(-930.72 -305.612)" fill="url(#linear-gradient-4)"/>
        <path id="Path_99182" data-name="Path 99182" d="M989.24,307.568l-.04.063-.052.061-.061.059-.072.056-.082.052-1.769,1.021-.09.048-.064.027-.1.038-.1.031-.108.026-.111.019-.113.013-.114.007-.114,0-.114-.005-.113-.011-.111-.017-.109-.023-.106-.03-.1-.035-.1-.041-.09-.048-1.769-1.021-.082-.052-.049-.036-.064-.058-.054-.06-.044-.062-.033-.064-.023-.065-.013-.065,0-.066.008-.066.02-.065.029-.064.04-.063.051-.061.061-.058.072-.056.082-.053,1.769-1.021.09-.048.064-.029.1-.037.1-.031.108-.025.111-.019.113-.013.114-.007h.114l.115.005.113.011.112.017.109.023.106.029.1.035.1.042.09.048,1.769,1.021.082.053.049.036.065.057.054.06.044.062.033.064.023.065.013.066v.066l-.009.066-.019.065-.029.064Z" transform="translate(-930.721 -305.612)" fill="#eff1fe"/>
        <path id="Path_99183" data-name="Path 99183" d="M901.951,357.917v-.066l-.013-.066-.022-.065-.033-.064-.044-.062-.055-.06-.064-.057-.049-.037-.082-.052-1.769-1.021-.09-.048-.1-.042-.1-.035-.105-.029-.109-.024-.111-.017-.113-.011-.114-.005h-.114l-.114.008-.113.013-.111.02-.107.024-.1.032-.1.037-.063.029-.09.048-1.769,1.021-.082.052-.072.056-.061.058-.051.061-.04.063-.029.064-.02.065-.008.128v.753l0,.066.012.066.023.064.033.064.044.062.054.06.064.058.049.036.082.052,1.769,1.021.09.048.1.041.1.035.105.03.109.023.111.018.113.011.114,0h.114l.114-.007.113-.013.111-.019.108-.026.1-.031.1-.038.064-.027.09-.048,1.769-1.021.082-.052.072-.056.061-.058.052-.061.04-.064.029-.064.019-.065.008-.066,0-.764Z" transform="translate(-895.928 -325.745)" fill="#b7c0eb"/>
        <path id="Path_99184" data-name="Path 99184" d="M901.951,357.76v-.066l-.013-.066-.022-.066-.033-.064-.044-.062-.055-.061-.064-.057-.049-.036-.082-.053-1.769-1.02-.09-.048-.1-.042-.1-.036-.105-.029-.109-.023-.111-.017-.113-.011-.114-.005h-.114l-.114.008-.113.013-.111.019-.107.025-.1.032-.1.037-.063.028-.09.048-1.769,1.02-.082.053-.072.056-.061.058-.051.061-.04.063-.029.064-.02.065-.008.127v.754l0,.066.012.066.023.064.033.064.044.063.054.06.064.058.049.037.082.052,1.769,1.02.09.048.1.041.1.035.105.029.109.024.111.017.113.011.114,0h.114l.114-.007.113-.013.111-.019.108-.025.1-.032.1-.037.064-.028.09-.048,1.769-1.02.082-.052.072-.056.061-.058.052-.061.04-.064.029-.064.019-.065.008-.066,0-.764Z" transform="translate(-895.928 -325.683)" fill="url(#linear-gradient-5)"/>
        <path id="Path_99185" data-name="Path 99185" d="M901.895,357.955l-.04.063-.051.061-.061.059-.072.056-.082.052-1.769,1.021-.09.048-.064.027-.1.038-.1.031-.108.026-.111.019-.113.013-.114.007-.114,0-.114-.005-.113-.011-.111-.017-.109-.023-.106-.029-.1-.035-.1-.041-.09-.048-1.769-1.021-.082-.052-.049-.037-.064-.058-.054-.06-.044-.062-.033-.064-.023-.065-.013-.065v-.066l.008-.066.02-.065.029-.065.04-.063.051-.061.061-.058.072-.055.082-.053,1.769-1.021.09-.048.064-.029.1-.037.1-.031.108-.025.111-.019.113-.013.114-.007h.114l.115.005.113.011.112.017.108.023.106.029.1.035.1.042.09.048,1.769,1.021.082.053.049.036.065.057.054.06.044.062.033.064.023.065.013.066v.066l-.009.066-.019.065-.029.064Z" transform="translate(-895.928 -325.683)" fill="#eff1fe"/>
        <path id="Path_99186" data-name="Path 99186" d="M987.245,407.363V407.3l-.013-.066-.022-.065-.033-.064-.044-.062-.055-.06-.064-.057-.049-.037-.083-.052-1.769-1.021-.09-.048-.1-.042-.1-.035-.105-.029-.109-.024-.111-.017-.113-.01-.114-.005h-.114l-.114.008-.113.013-.111.019-.108.025-.1.032-.1.037-.063.028-.09.048-1.769,1.02-.083.052-.072.056-.061.058-.051.061-.04.063-.029.064-.02.066-.008.127v.753l0,.066.013.066.022.064.033.064.044.063.054.06.065.058.049.036.083.053,1.769,1.02.09.048.1.041.1.035.105.03.109.023.111.017.113.011.114,0h.114l.114-.007.113-.013.111-.019.108-.026.1-.032.1-.037.064-.028.09-.048,1.769-1.021.083-.052.072-.055.061-.058.052-.061.04-.064.029-.064.019-.065.008-.066,0-.763Z" transform="translate(-929.904 -345.441)" fill="#b7c0eb"/>
        <path id="Path_99187" data-name="Path 99187" d="M987.245,407.205v-.066l-.013-.066-.022-.065-.033-.064-.044-.062-.055-.06-.064-.057-.049-.037-.083-.053-1.769-1.02-.09-.048-.1-.042-.1-.035-.105-.029-.109-.023-.111-.017-.113-.011-.114-.005h-.114l-.114.007-.113.013-.111.019-.108.025-.1.032-.1.037-.063.029-.09.048-1.769,1.02-.083.053-.072.056-.061.058-.051.061-.04.063-.029.064-.02.065-.008.128v.753l0,.066.013.067.022.064.033.064.044.063.054.06.065.058.049.036.083.052,1.769,1.021.09.047.1.041.1.035.105.029.109.023.111.017.113.011.114.005.114,0,.114-.007.113-.013.111-.019.108-.026.1-.031.1-.038.064-.028.09-.047,1.769-1.021.083-.052.072-.056.061-.058.052-.061.04-.063.029-.064.019-.065.008-.066,0-.764Z" transform="translate(-929.904 -345.378)" fill="url(#linear-gradient-6)"/>
        <path id="Path_99188" data-name="Path 99188" d="M987.189,407.4l-.04.063-.052.061-.061.059-.072.056-.082.052-1.769,1.021-.09.048-.064.028-.1.038-.1.031-.108.026-.111.019-.113.013-.114.007-.115,0-.114-.005-.113-.011-.111-.017-.109-.023-.106-.029-.1-.035-.1-.041-.09-.048-1.769-1.021-.082-.052-.049-.036-.064-.058-.054-.06-.044-.062-.033-.063-.023-.065-.013-.065v-.066l.008-.066.02-.065.029-.064.04-.063.051-.061.061-.058.072-.055.082-.053,1.769-1.021.09-.048.064-.029.1-.037.1-.031.108-.025.111-.019.113-.013.114-.007h.114l.115.005.113.011.112.017.109.023.106.029.1.035.1.042.09.048,1.769,1.021.082.053.049.036.065.057.054.06.044.062.033.064.023.065.012.066v.066l-.009.066-.019.065-.029.064Z" transform="translate(-929.904 -345.379)" fill="#eff1fe"/>
      </g>
    </g>
    <g id="Group_88601" data-name="Group 88601" transform="translate(663.188 3844.819)">
      <g id="Group_88732" data-name="Group 88732" clip-path="url(#clip-path)">
        <g id="Group_88701" data-name="Group 88701">
          <g id="Group_88700" data-name="Group 88700" clip-path="url(#clip-path)">
            <g id="Group_88699" data-name="Group 88699" transform="translate(0 124.917)" opacity="0.3" style="mix-blend-mode: multiply;isolation: isolate">
              <g id="Group_88698" data-name="Group 88698">
                <g id="Group_88697" data-name="Group 88697" clip-path="url(#clip-path-3)">
                  <g id="Group_88603" data-name="Group 88603" opacity="0">
                    <g id="Group_88602" data-name="Group 88602">
                      <g id="Group_88601-2" data-name="Group 88601" clip-path="url(#clip-path-3)">
                        <path id="Path_104755" data-name="Path 104755" d="M37.46,169.976c2.84,4.986-3.085,13.712-13.232,19.491S3.551,195.888.711,190.9,3.8,177.19,13.943,171.411s20.676-6.421,23.516-1.436" transform="translate(0 -166.619)" fill="#fff"/>
                      </g>
                    </g>
                  </g>
                  <g id="Group_88606" data-name="Group 88606" transform="translate(0.788 0.244)" opacity="0.032">
                    <g id="Group_88605" data-name="Group 88605">
                      <g id="Group_88604" data-name="Group 88604" clip-path="url(#clip-path-5)">
                        <path id="Path_104756" data-name="Path 104756" d="M37.445,170.215c2.763,4.852-2.988,13.336-12.847,18.951S4.507,195.4,1.744,190.546,4.732,177.209,14.591,171.6s20.091-6.232,22.854-1.38" transform="translate(-1.051 -166.945)" fill="#f7f7f7"/>
                      </g>
                    </g>
                  </g>
                  <g id="Group_88609" data-name="Group 88609" transform="translate(1.576 0.488)" opacity="0.065">
                    <g id="Group_88608" data-name="Group 88608">
                      <g id="Group_88607" data-name="Group 88607" clip-path="url(#clip-path-6)">
                        <path id="Path_104757" data-name="Path 104757" d="M37.431,170.454c2.687,4.718-2.892,12.96-12.462,18.409s-19.505,6.043-22.192,1.325,2.892-12.96,12.462-18.409,19.505-6.043,22.192-1.325" transform="translate(-2.102 -167.27)" fill="#f0f0f0"/>
                      </g>
                    </g>
                  </g>
                  <g id="Group_88612" data-name="Group 88612" transform="translate(2.364 0.732)" opacity="0.097">
                    <g id="Group_88611" data-name="Group 88611">
                      <g id="Group_88610" data-name="Group 88610" clip-path="url(#clip-path-7)">
                        <path id="Path_104758" data-name="Path 104758" d="M37.416,170.694c2.611,4.584-2.8,12.584-12.076,17.869s-18.921,5.853-21.531,1.269,2.8-12.584,12.076-17.869,18.921-5.853,21.531-1.269" transform="translate(-3.153 -167.596)" fill="#e8e8e8"/>
                      </g>
                    </g>
                  </g>
                  <g id="Group_88615" data-name="Group 88615" transform="translate(3.151 0.976)" opacity="0.129">
                    <g id="Group_88614" data-name="Group 88614">
                      <g id="Group_88613" data-name="Group 88613" clip-path="url(#clip-path-8)">
                        <path id="Path_104759" data-name="Path 104759" d="M37.4,170.934c2.534,4.45-2.7,12.208-11.691,17.328s-18.335,5.663-20.869,1.214,2.7-12.208,11.691-17.328,18.334-5.663,20.869-1.214" transform="translate(-4.204 -167.921)" fill="#e1e1e1"/>
                      </g>
                    </g>
                  </g>
                  <g id="Group_88618" data-name="Group 88618" transform="translate(3.939 1.22)" opacity="0.161">
                    <g id="Group_88617" data-name="Group 88617">
                      <g id="Group_88616" data-name="Group 88616" clip-path="url(#clip-path-9)">
                        <path id="Path_104760" data-name="Path 104760" d="M37.389,171.172c2.458,4.315-2.6,11.831-11.306,16.787s-17.75,5.474-20.207,1.158,2.6-11.831,11.306-16.787,17.749-5.474,20.207-1.158" transform="translate(-5.255 -168.246)" fill="#d9d9d9"/>
                      </g>
                    </g>
                  </g>
                  <g id="Group_88621" data-name="Group 88621" transform="translate(4.727 1.464)" opacity="0.194">
                    <g id="Group_88620" data-name="Group 88620">
                      <g id="Group_88619" data-name="Group 88619" clip-path="url(#clip-path-10)">
                        <path id="Path_104761" data-name="Path 104761" d="M37.374,171.412c2.382,4.182-2.508,11.455-10.92,16.246s-17.164,5.285-19.546,1.1,2.508-11.455,10.921-16.246,17.163-5.285,19.545-1.1" transform="translate(-6.305 -168.572)" fill="#d1d2d1"/>
                      </g>
                    </g>
                  </g>
                  <g id="Group_88624" data-name="Group 88624" transform="translate(5.515 1.708)" opacity="0.226">
                    <g id="Group_88623" data-name="Group 88623">
                      <g id="Group_88622" data-name="Group 88622" clip-path="url(#clip-path-11)">
                        <path id="Path_104762" data-name="Path 104762" d="M37.36,171.651c2.305,4.048-2.412,11.079-10.535,15.705s-16.578,5.1-18.884,1.048,2.411-11.079,10.535-15.706,16.578-5.1,18.884-1.047" transform="translate(-7.356 -168.897)" fill="#cacaca"/>
                      </g>
                    </g>
                  </g>
                  <g id="Group_88627" data-name="Group 88627" transform="translate(6.303 1.952)" opacity="0.258">
                    <g id="Group_88626" data-name="Group 88626">
                      <g id="Group_88625" data-name="Group 88625" clip-path="url(#clip-path-12)">
                        <path id="Path_104763" data-name="Path 104763" d="M37.346,171.89c2.229,3.914-2.315,10.7-10.15,15.165s-15.993,4.905-18.223.992,2.316-10.7,10.15-15.165,15.993-4.905,18.222-.992" transform="translate(-8.407 -169.223)" fill="#c2c2c2"/>
                      </g>
                    </g>
                  </g>
                  <g id="Group_88630" data-name="Group 88630" transform="translate(7.091 2.196)" opacity="0.29">
                    <g id="Group_88629" data-name="Group 88629">
                      <g id="Group_88628" data-name="Group 88628" clip-path="url(#clip-path-13)">
                        <path id="Path_104764" data-name="Path 104764" d="M37.332,172.13c2.152,3.779-2.219,10.327-9.765,14.623s-15.407,4.716-17.56.937,2.219-10.327,9.765-14.624,15.407-4.716,17.56-.936" transform="translate(-9.458 -169.548)" fill="#babbba"/>
                      </g>
                    </g>
                  </g>
                  <g id="Group_88633" data-name="Group 88633" transform="translate(7.879 2.44)" opacity="0.323">
                    <g id="Group_88632" data-name="Group 88632">
                      <g id="Group_88631" data-name="Group 88631" clip-path="url(#clip-path-14)">
                        <path id="Path_104765" data-name="Path 104765" d="M37.317,172.369c2.077,3.646-2.123,9.95-9.38,14.083s-14.822,4.527-16.9.882,2.122-9.951,9.379-14.083,14.822-4.527,16.9-.881" transform="translate(-10.509 -169.873)" fill="#b3b3b3"/>
                      </g>
                    </g>
                  </g>
                  <g id="Group_88636" data-name="Group 88636" transform="translate(8.666 2.684)" opacity="0.355">
                    <g id="Group_88635" data-name="Group 88635">
                      <g id="Group_88634" data-name="Group 88634" clip-path="url(#clip-path-15)">
                        <path id="Path_104766" data-name="Path 104766" d="M37.3,172.609c2,3.512-2.026,9.575-8.994,13.542s-14.236,4.337-16.237.825,2.027-9.574,8.994-13.541S35.3,169.1,37.3,172.609" transform="translate(-11.56 -170.199)" fill="#abacab"/>
                      </g>
                    </g>
                  </g>
                  <g id="Group_88639" data-name="Group 88639" transform="translate(9.454 2.928)" opacity="0.387">
                    <g id="Group_88638" data-name="Group 88638">
                      <g id="Group_88637" data-name="Group 88637" clip-path="url(#clip-path-16)">
                        <path id="Path_104767" data-name="Path 104767" d="M37.289,172.848c1.924,3.377-1.931,9.2-8.609,13S15.03,190,13.106,186.62s1.931-9.2,8.609-13,13.651-4.147,15.575-.77" transform="translate(-12.611 -170.524)" fill="#a4a4a4"/>
                      </g>
                    </g>
                  </g>
                  <g id="Group_88642" data-name="Group 88642" transform="translate(10.242 3.172)" opacity="0.419">
                    <g id="Group_88641" data-name="Group 88641">
                      <g id="Group_88640" data-name="Group 88640" clip-path="url(#clip-path-17)">
                        <path id="Path_104768" data-name="Path 104768" d="M37.275,173.087c1.847,3.243-1.835,8.822-8.224,12.46s-13.065,3.958-14.913.715,1.835-8.823,8.223-12.461,13.066-3.958,14.913-.714" transform="translate(-13.661 -170.849)" fill="#9c9d9c"/>
                      </g>
                    </g>
                  </g>
                  <g id="Group_88645" data-name="Group 88645" transform="translate(11.03 3.415)" opacity="0.452">
                    <g id="Group_88644" data-name="Group 88644">
                      <g id="Group_88643" data-name="Group 88643" clip-path="url(#clip-path-18)">
                        <path id="Path_104769" data-name="Path 104769" d="M37.26,173.327c1.771,3.109-1.739,8.446-7.838,11.92s-12.481,3.769-14.251.659,1.739-8.446,7.838-11.919,12.481-3.769,14.251-.66" transform="translate(-14.712 -171.175)" fill="#949594"/>
                      </g>
                    </g>
                  </g>
                  <g id="Group_88648" data-name="Group 88648" transform="translate(11.818 3.659)" opacity="0.484">
                    <g id="Group_88647" data-name="Group 88647">
                      <g id="Group_88646" data-name="Group 88646" clip-path="url(#clip-path-19)">
                        <path id="Path_104770" data-name="Path 104770" d="M37.246,173.565c1.694,2.976-1.642,8.07-7.453,11.378s-11.9,3.58-13.589.6,1.642-8.07,7.453-11.378,11.9-3.58,13.589-.6" transform="translate(-15.763 -171.5)" fill="#8d8d8d"/>
                      </g>
                    </g>
                  </g>
                  <g id="Group_88651" data-name="Group 88651" transform="translate(12.605 3.903)" opacity="0.516">
                    <g id="Group_88650" data-name="Group 88650">
                      <g id="Group_88649" data-name="Group 88649" clip-path="url(#clip-path-20)">
                        <path id="Path_104771" data-name="Path 104771" d="M37.232,173.8c1.618,2.841-1.546,7.694-7.068,10.838s-11.309,3.389-12.928.549,1.546-7.694,7.068-10.838,11.309-3.39,12.928-.549" transform="translate(-16.813 -171.825)" fill="#858685"/>
                      </g>
                    </g>
                  </g>
                  <g id="Group_88654" data-name="Group 88654" transform="translate(13.393 4.147)" opacity="0.548">
                    <g id="Group_88653" data-name="Group 88653">
                      <g id="Group_88652" data-name="Group 88652" clip-path="url(#clip-path-21)">
                        <path id="Path_104772" data-name="Path 104772" d="M37.218,174.045c1.542,2.707-1.45,7.317-6.682,10.3s-10.724,3.2-12.266.493,1.45-7.317,6.682-10.3,10.724-3.2,12.266-.493" transform="translate(-17.864 -172.15)" fill="#7d7e7d"/>
                      </g>
                    </g>
                  </g>
                  <g id="Group_88657" data-name="Group 88657" transform="translate(14.181 4.39)" opacity="0.581">
                    <g id="Group_88656" data-name="Group 88656">
                      <g id="Group_88655" data-name="Group 88655" clip-path="url(#clip-path-22)">
                        <path id="Path_104773" data-name="Path 104773" d="M37.2,174.283c1.466,2.573-1.354,6.941-6.3,9.756s-10.139,3.011-11.6.438,1.353-6.941,6.3-9.756,10.138-3.011,11.6-.438" transform="translate(-18.915 -172.475)" fill="#767776"/>
                      </g>
                    </g>
                  </g>
                  <g id="Group_88660" data-name="Group 88660" transform="translate(14.968 4.634)" opacity="0.613">
                    <g id="Group_88659" data-name="Group 88659">
                      <g id="Group_88658" data-name="Group 88658" clip-path="url(#clip-path-23)">
                        <path id="Path_104774" data-name="Path 104774" d="M37.189,174.523c1.389,2.439-1.257,6.565-5.912,9.215s-9.554,2.821-10.943.382,1.258-6.565,5.912-9.216,9.553-2.822,10.942-.382" transform="translate(-19.965 -172.8)" fill="#6e6f6e"/>
                      </g>
                    </g>
                  </g>
                  <g id="Group_88663" data-name="Group 88663" transform="translate(15.756 4.877)" opacity="0.645">
                    <g id="Group_88662" data-name="Group 88662">
                      <g id="Group_88661" data-name="Group 88661" clip-path="url(#clip-path-24)">
                        <path id="Path_104775" data-name="Path 104775" d="M37.176,174.762c1.313,2.305-1.161,6.189-5.526,8.674s-8.968,2.632-10.281.327,1.161-6.189,5.526-8.674,8.968-2.632,10.281-.327" transform="translate(-21.016 -173.124)" fill="#676767"/>
                      </g>
                    </g>
                  </g>
                  <g id="Group_88666" data-name="Group 88666" transform="translate(16.544 5.12)" opacity="0.677">
                    <g id="Group_88665" data-name="Group 88665">
                      <g id="Group_88664" data-name="Group 88664" clip-path="url(#clip-path-25)">
                        <path id="Path_104776" data-name="Path 104776" d="M37.161,175c1.236,2.171-1.065,5.813-5.141,8.134s-8.383,2.443-9.619.271,1.065-5.813,5.141-8.134,8.383-2.443,9.619-.271" transform="translate(-22.067 -173.449)" fill="#5f605f"/>
                      </g>
                    </g>
                  </g>
                  <g id="Group_88669" data-name="Group 88669" transform="translate(17.331 5.364)" opacity="0.71">
                    <g id="Group_88668" data-name="Group 88668">
                      <g id="Group_88667" data-name="Group 88667" clip-path="url(#clip-path-26)">
                        <path id="Path_104777" data-name="Path 104777" d="M37.146,175.24c1.161,2.037-.969,5.436-4.755,7.593s-7.8,2.253-8.958.215.969-5.436,4.756-7.592,7.8-2.253,8.957-.216" transform="translate(-23.117 -173.773)" fill="#575857"/>
                      </g>
                    </g>
                  </g>
                  <g id="Group_88672" data-name="Group 88672" transform="translate(18.119 5.607)" opacity="0.742">
                    <g id="Group_88671" data-name="Group 88671">
                      <g id="Group_88670" data-name="Group 88670" clip-path="url(#clip-path-27)">
                        <path id="Path_104778" data-name="Path 104778" d="M37.132,175.479c1.084,1.9-.873,5.061-4.37,7.052s-7.212,2.064-8.3.16.873-5.06,4.37-7.052,7.212-2.063,8.3-.16" transform="translate(-24.167 -174.097)" fill="#505150"/>
                      </g>
                    </g>
                  </g>
                  <g id="Group_88675" data-name="Group 88675" transform="translate(18.906 5.85)" opacity="0.774">
                    <g id="Group_88674" data-name="Group 88674">
                      <g id="Group_88673" data-name="Group 88673" clip-path="url(#clip-path-28)">
                        <path id="Path_104779" data-name="Path 104779" d="M37.118,175.718c1.008,1.769-.777,4.684-3.985,6.511s-6.627,1.874-7.634.1.777-4.684,3.985-6.511,6.626-1.874,7.634-.1" transform="translate(-25.218 -174.422)" fill="#484948"/>
                      </g>
                    </g>
                  </g>
                  <g id="Group_88678" data-name="Group 88678" transform="translate(19.693 6.092)" opacity="0.806">
                    <g id="Group_88677" data-name="Group 88677">
                      <g id="Group_88676" data-name="Group 88676" clip-path="url(#clip-path-29)">
                        <path id="Path_104780" data-name="Path 104780" d="M37.1,175.957c.931,1.635-.681,4.308-3.6,5.97s-6.041,1.685-6.972.049.681-4.308,3.6-5.97,6.04-1.685,6.972-.049" transform="translate(-26.268 -174.745)" fill="#414241"/>
                      </g>
                    </g>
                  </g>
                  <g id="Group_88681" data-name="Group 88681" transform="translate(20.481 6.335)" opacity="0.839">
                    <g id="Group_88680" data-name="Group 88680">
                      <g id="Group_88679" data-name="Group 88679" clip-path="url(#clip-path-30)">
                        <path id="Path_104781" data-name="Path 104781" d="M37.089,176.2c.855,1.5-.584,3.932-3.215,5.429s-5.455,1.495-6.31-.006.584-3.932,3.214-5.429,5.456-1.495,6.31.006" transform="translate(-27.318 -175.068)" fill="#393a39"/>
                      </g>
                    </g>
                  </g>
                  <g id="Group_88684" data-name="Group 88684" transform="translate(21.268 6.577)" opacity="0.871">
                    <g id="Group_88683" data-name="Group 88683">
                      <g id="Group_88682" data-name="Group 88682" clip-path="url(#clip-path-31)">
                        <path id="Path_104782" data-name="Path 104782" d="M37.074,176.435c.778,1.367-.488,3.556-2.829,4.889s-4.869,1.305-5.648-.061.489-3.556,2.829-4.889,4.87-1.305,5.648.061" transform="translate(-28.367 -175.391)" fill="#313231"/>
                      </g>
                    </g>
                  </g>
                  <g id="Group_88687" data-name="Group 88687" transform="translate(22.054 6.818)" opacity="0.903">
                    <g id="Group_88686" data-name="Group 88686">
                      <g id="Group_88685" data-name="Group 88685" clip-path="url(#clip-path-32)">
                        <path id="Path_104783" data-name="Path 104783" d="M37.06,176.673c.7,1.233-.392,3.18-2.444,4.348s-4.285,1.116-4.986-.117.392-3.179,2.444-4.348,4.285-1.116,4.986.117" transform="translate(-29.417 -175.713)" fill="#2a2b2a"/>
                      </g>
                    </g>
                  </g>
                  <g id="Group_88690" data-name="Group 88690" transform="translate(22.841 7.059)" opacity="0.935">
                    <g id="Group_88689" data-name="Group 88689">
                      <g id="Group_88688" data-name="Group 88688" clip-path="url(#clip-path-33)">
                        <path id="Path_104784" data-name="Path 104784" d="M37.046,176.911c.626,1.1-.3,2.8-2.059,3.807s-3.7.927-4.324-.172.3-2.8,2.059-3.807,3.7-.927,4.324.172" transform="translate(-30.466 -176.034)" fill="#222322"/>
                      </g>
                    </g>
                  </g>
                  <g id="Group_88693" data-name="Group 88693" transform="translate(23.626 7.298)" opacity="0.968">
                    <g id="Group_88692" data-name="Group 88692">
                      <g id="Group_88691" data-name="Group 88691" clip-path="url(#clip-path-34)">
                        <path id="Path_104785" data-name="Path 104785" d="M37.03,177.149c.55.965-.2,2.427-1.673,3.266s-3.114.738-3.663-.227.2-2.427,1.673-3.267,3.114-.737,3.663.228" transform="translate(-31.514 -176.353)" fill="#1b1c1b"/>
                      </g>
                    </g>
                  </g>
                  <g id="Group_88696" data-name="Group 88696" transform="translate(24.411 7.535)">
                    <g id="Group_88695" data-name="Group 88695">
                      <g id="Group_88694" data-name="Group 88694" clip-path="url(#clip-path-35)">
                        <path id="Path_104786" data-name="Path 104786" d="M37.015,177.386c.473.831-.1,2.051-1.288,2.725s-2.528.548-3-.283.1-2.05,1.288-2.725,2.528-.547,3,.283" transform="translate(-32.56 -176.67)" fill="#131413"/>
                      </g>
                    </g>
                  </g>
                </g>
              </g>
            </g>
            <path id="Path_104787" data-name="Path 104787" d="M28.486,164.977c-.924-.756-2.871-.3-3.958.72a4.015,4.015,0,0,0-1.284,1.5c-.484,1.059.423,2.05.56,2.258.259.4,2.869,2.811,3.062,3.639a7.149,7.149,0,0,0,.62,1.7,4.732,4.732,0,0,0,3.1,1.919,4.027,4.027,0,0,0,3.118-.06,2.011,2.011,0,0,0,1.1-1.319c.157-1.2-1.417-2.042-1.859-2.2-.034-.012-.238-.082-.28-.02-.061.091.312.328.44.78.061.213.1.586-.06.7-.289.208-1.14-.513-1.359-.7a8.87,8.87,0,0,1-2.479-3.539c-1-2.976.327-4.522-.72-5.377" transform="translate(-5.783 -41.197)" fill="#131413"/>
          </g>
        </g>
        <g id="Group_88703" data-name="Group 88703" transform="translate(48.152 69.647)">
          <g id="Group_88702" data-name="Group 88702" clip-path="url(#clip-path-36)">
            <rect id="Rectangle_3139" data-name="Rectangle 3139" width="8.623" height="18.44" transform="translate(-0.74 0)" fill="url(#linear-gradient-7)"/>
          </g>
        </g>
        <g id="Group_88705" data-name="Group 88705" transform="translate(44.169 75.898)">
          <g id="Group_88704" data-name="Group 88704" clip-path="url(#clip-path-37)">
            <rect id="Rectangle_3140" data-name="Rectangle 3140" width="9.754" height="15.141" transform="translate(-0.93)" fill="url(#linear-gradient-8)"/>
          </g>
        </g>
        <g id="Group_88707" data-name="Group 88707" transform="translate(50.231 48.669)">
          <g id="Group_88706" data-name="Group 88706" clip-path="url(#clip-path-38)">
            <rect id="Rectangle_3141" data-name="Rectangle 3141" width="21.178" height="24.729" transform="translate(-2.034 0)" fill="url(#linear-gradient-9)"/>
          </g>
        </g>
        <g id="Group_88709" data-name="Group 88709" transform="translate(17.322 123.28)">
          <g id="Group_88708" data-name="Group 88708" clip-path="url(#clip-path-39)">
            <rect id="Rectangle_3142" data-name="Rectangle 3142" width="12.199" height="12.654" transform="translate(-0.343)" fill="url(#linear-gradient-10)"/>
          </g>
        </g>
        <g id="Group_88711" data-name="Group 88711" transform="translate(19.902 108.119)">
          <g id="Group_88710" data-name="Group 88710" clip-path="url(#clip-path-40)">
            <rect id="Rectangle_3143" data-name="Rectangle 3143" width="12.016" height="25.725" transform="translate(-0.871)" fill="url(#linear-gradient-11)"/>
          </g>
        </g>
        <g id="Group_88713" data-name="Group 88713" transform="translate(11.504 44.474)">
          <g id="Group_88712" data-name="Group 88712" clip-path="url(#clip-path-41)">
            <rect id="Rectangle_3144" data-name="Rectangle 3144" width="7.508" height="13.696" transform="translate(-0.023 0)" fill="url(#linear-gradient-12)"/>
          </g>
        </g>
        <g id="Group_88715" data-name="Group 88715" transform="translate(13.386 16.013)">
          <g id="Group_88714" data-name="Group 88714" clip-path="url(#clip-path-42)">
            <rect id="Rectangle_3145" data-name="Rectangle 3145" width="47.519" height="47.862" transform="translate(-16.207 19.048) rotate(-50)" fill="url(#linear-gradient-13)"/>
          </g>
        </g>
        <g id="Group_88717" data-name="Group 88717" transform="translate(44.151 5.708)">
          <g id="Group_88716" data-name="Group 88716" clip-path="url(#clip-path-43)">
            <rect id="Rectangle_3146" data-name="Rectangle 3146" width="22.592" height="23.917" transform="translate(-8.929 4.708) rotate(-30)" fill="url(#linear-gradient-14)"/>
          </g>
        </g>
        <g id="Group_88719" data-name="Group 88719" transform="translate(42.569)">
          <g id="Group_88718" data-name="Group 88718" clip-path="url(#clip-path-44)">
            <rect id="Rectangle_3147" data-name="Rectangle 3147" width="17.739" height="16.658" transform="translate(-0.765)" fill="url(#linear-gradient-15)"/>
          </g>
        </g>
        <g id="Group_88721" data-name="Group 88721" transform="translate(77.752 12.066)">
          <g id="Group_88720" data-name="Group 88720" clip-path="url(#clip-path-45)">
            <rect id="Rectangle_3148" data-name="Rectangle 3148" width="13.575" height="17.218" transform="translate(-4.964 1.761) rotate(-19.997)" fill="url(#linear-gradient-16)"/>
          </g>
        </g>
        <g id="Group_88723" data-name="Group 88723" transform="translate(31.092 42.508)">
          <g id="Group_88722" data-name="Group 88722" clip-path="url(#clip-path-46)">
            <rect id="Rectangle_3149" data-name="Rectangle 3149" width="39.023" height="25.257" transform="translate(-1.169 0)" fill="url(#linear-gradient-17)"/>
          </g>
        </g>
        <g id="Group_88725" data-name="Group 88725" transform="translate(22.879 54.998)">
          <g id="Group_88724" data-name="Group 88724" clip-path="url(#clip-path-47)">
            <rect id="Rectangle_3150" data-name="Rectangle 3150" width="72.929" height="63.228" transform="translate(-27.507 47.316) rotate(-60)" fill="url(#linear-gradient-18)"/>
          </g>
        </g>
        <g id="Group_88727" data-name="Group 88727" transform="translate(26.86 16.895)">
          <g id="Group_88726" data-name="Group 88726" clip-path="url(#clip-path-48)">
            <rect id="Rectangle_3151" data-name="Rectangle 3151" width="56.355" height="60.009" transform="translate(-21.473 11.896) rotate(-30)" fill="url(#linear-gradient-19)"/>
          </g>
        </g>
        <g id="Group_88729" data-name="Group 88729" transform="translate(51.703 22.46)">
          <g id="Group_88728" data-name="Group 88728" clip-path="url(#clip-path-49)">
            <rect id="Rectangle_3152" data-name="Rectangle 3152" width="32.145" height="22.572" transform="translate(-0.857 -0.001)" fill="url(#linear-gradient-20)"/>
          </g>
        </g>
        <g id="Group_88731" data-name="Group 88731" transform="translate(40.509 11.72)">
          <g id="Group_88730" data-name="Group 88730" clip-path="url(#clip-path-50)">
            <rect id="Rectangle_3153" data-name="Rectangle 3153" width="9.21" height="9.23" transform="translate(-3.363 3.793) rotate(-50)" fill="url(#linear-gradient-21)"/>
          </g>
        </g>
      </g>
    </g>
  </g>
</svg>
