<svg id="caution" xmlns="http://www.w3.org/2000/svg" width="37.46" height="33.273" viewBox="0 0 37.46 33.273">
  <path id="Path_23435" data-name="Path 23435" d="M.425,57.177l15.586-27a3.139,3.139,0,0,1,5.436,0l15.586,27a3.139,3.139,0,0,1-2.718,4.708H3.143A3.139,3.139,0,0,1,.425,57.177Zm.95,2.59a2.021,2.021,0,0,0,1.768,1.021H34.316a2.041,2.041,0,0,0,1.768-3.062L20.5,30.73a2.041,2.041,0,0,0-3.536,0l-15.586,27h0A2.021,2.021,0,0,0,1.376,59.767Z" transform="translate(0 -28.612)" fill="#fff"/>
  <path id="Path_23436" data-name="Path 23436" d="M292.275,145.2a.549.549,0,0,1,.95.549L282.068,165.07h8.922a.549.549,0,0,1,0,1.1h-9.872a.549.549,0,0,1-.475-.823Z" transform="translate(-276.365 -136.413)" fill="#fff"/>
  <path id="Path_23437" data-name="Path 23437" d="M63.224,113.612h8.922L59.119,91.048l-.636,1.1a.549.549,0,0,1-.95-.549l1.111-1.925a.549.549,0,0,1,.95,0l13.977,24.21a.549.549,0,0,1-.475.823H63.224a.549.549,0,1,1,0-1.1Z" transform="translate(-40.389 -84.955)" fill="#fff"/>
  <path id="Path_23438" data-name="Path 23438" d="M226.776,380.243a2.308,2.308,0,1,1-2.308,2.308A2.311,2.311,0,0,1,226.776,380.243Zm0,3.519a1.211,1.211,0,1,0-1.211-1.211A1.212,1.212,0,0,0,226.776,383.762Z" transform="translate(-208.046 -354.518)" fill="#fff"/>
  <path id="Path_23439" data-name="Path 23439" d="M228.319,195.872a1.135,1.135,0,0,1,1.134,1.195l-.525,9.97a1.135,1.135,0,0,1-1.134,1.076h-1.233a1.135,1.135,0,0,1-1.134-1.076l-.525-9.97a1.135,1.135,0,0,1,1.134-1.195ZM226,197.009l.525,9.97a.038.038,0,0,0,.038.036h1.233a.038.038,0,0,0,.038-.036l.525-9.97a.038.038,0,0,0-.038-.04h-2.282a.038.038,0,0,0-.038.04Z" transform="translate(-208.448 -183.635)" fill="#fff"/>
</svg>
