<svg xmlns="http://www.w3.org/2000/svg" width="30.903" height="33.373" viewBox="0 0 30.903 33.373">
  <g id="check-list" transform="translate(-19.755 0.05)">
    <g id="Group_88517" data-name="Group 88517" transform="translate(19.805 0)">
      <path id="Path_104643" data-name="Path 104643" d="M38.423,5.169V4.043a1.783,1.783,0,0,0-1.781-1.781h-9.9a1.783,1.783,0,0,0-1.781,1.781V5.169A1.783,1.783,0,0,0,26.742,6.95h9.9A1.783,1.783,0,0,0,38.423,5.169Zm-12.487,0V4.043a.807.807,0,0,1,.806-.806h9.9a.807.807,0,0,1,.806.806V5.169a.807.807,0,0,1-.806.806h-9.9a.807.807,0,0,1-.806-.806ZM38.86,22.746H30.941a.487.487,0,1,0,0,.975H38.86a.487.487,0,1,0,0-.975ZM22.961.975H40.422a2.181,2.181,0,0,1,2.111,1.631.487.487,0,1,0,.943-.245A3.156,3.156,0,0,0,40.422,0H22.961A3.16,3.16,0,0,0,19.8,3.156V26.831a3.142,3.142,0,0,0,2.213,3.013.487.487,0,1,0,.291-.93,2.172,2.172,0,0,1-1.53-2.082V3.156A2.184,2.184,0,0,1,22.961.975Zm15.9,15.61H30.941a.487.487,0,0,0,0,.975H38.86a.487.487,0,1,0,0-.975Zm-15.279.487a2.136,2.136,0,1,0,2.136-2.136A2.138,2.138,0,0,0,23.581,17.072Zm3.3,0a1.161,1.161,0,1,1-1.161-1.161A1.162,1.162,0,0,1,26.877,17.072Zm15.3,8.667-1.524,1.524a.487.487,0,1,0,.689.689l1.524-1.524a.487.487,0,1,0-.689-.689Zm-16.463-.371a2.136,2.136,0,1,0-2.136-2.136A2.138,2.138,0,0,0,25.716,25.368Zm0-3.3a1.161,1.161,0,1,1-1.161,1.161A1.162,1.162,0,0,1,25.716,22.072Zm24.125-2.618-.687-.687a2.159,2.159,0,0,0-3.055,0l-2.522,2.522V4.787a.487.487,0,1,0-.975,0V22.263L36.787,28.08a3.922,3.922,0,0,0-.685.932H24.442a.487.487,0,1,0,0,.975H35.734l-.329,1.126a1.687,1.687,0,0,0,1.608,2.16,8.238,8.238,0,0,0,1.866-.474,3.927,3.927,0,0,0,1.649-.977l9.313-9.313A2.163,2.163,0,0,0,49.842,19.454ZM37.222,32.268a.71.71,0,0,1-.881-.881l.382-1.309,1.808,1.808Zm2.246-.823-2.3-2.3c.267-.376,0-.041,5.89-5.949l2.363,2.363c-5.928,5.906-5.576,5.625-5.949,5.89Zm6.639-6.579L43.744,22.5l1.17-1.17L47.277,23.7Zm3.046-3.046-1.187,1.187L45.6,20.643l1.187-1.187a1.185,1.185,0,0,1,1.676,0l.687.687A1.187,1.187,0,0,1,49.153,21.819ZM25.2,12.27,28.068,9.4a.487.487,0,1,0-.689-.689l-2.524,2.524-.8-.8a.487.487,0,1,0-.689.689L24.51,12.27a.487.487,0,0,0,.689,0ZM38.86,10.425H30.941a.487.487,0,0,0,0,.975H38.86a.487.487,0,1,0,0-.975Z" transform="translate(-19.805 0)" fill="#fff" stroke="#fff" stroke-width="0.1"/>
    </g>
  </g>
</svg>
