<svg xmlns="http://www.w3.org/2000/svg" width="33.273" height="33.273" viewBox="0 0 33.273 33.273">
  <path id="circuit" d="M19.717,30.274l-1.044,2.711a.449.449,0,0,1-.419.288H15.019a.449.449,0,0,1-.419-.288L13.644,30.5A14.032,14.032,0,0,1,8.95,28.557L6.517,29.638a.451.451,0,0,1-.5-.093L3.729,27.257a.449.449,0,0,1-.093-.5l1.08-2.432A14.033,14.033,0,0,1,2.77,19.629L.288,18.674A.449.449,0,0,1,0,18.254V15.019A.449.449,0,0,1,.288,14.6l2.482-.956A14.019,14.019,0,0,1,4.717,8.95L3.636,6.517a.45.45,0,0,1,.093-.5L6.017,3.729a.449.449,0,0,1,.5-.093L8.95,4.717a14.027,14.027,0,0,1,4.694-1.946L14.6.288A.45.45,0,0,1,15.019,0h3.235a.449.449,0,0,1,.419.288L19.718,3a.45.45,0,0,1-.839.323L17.946.9H15.328l-.933,2.424a.449.449,0,0,1-.333.28,13.153,13.153,0,0,0-4.819,2,.45.45,0,0,1-.433.038L6.434,4.583,4.583,6.434,5.638,8.81a.45.45,0,0,1-.038.433,13.14,13.14,0,0,0-2,4.82.449.449,0,0,1-.28.333L.9,15.328v2.618l2.423.933a.449.449,0,0,1,.28.333,13.157,13.157,0,0,0,2,4.82.45.45,0,0,1,.038.433L4.583,26.839,6.434,28.69,8.81,27.635a.45.45,0,0,1,.433.038,13.147,13.147,0,0,0,4.819,2,.449.449,0,0,1,.333.28l.933,2.424h2.618l.933-2.423a.449.449,0,1,1,.839.323Zm-6.572-7.854a.45.45,0,0,0,.465-.769,5.858,5.858,0,0,1,0-10.029.45.45,0,0,0-.465-.769,6.757,6.757,0,0,0,0,11.568Zm20.128-5.784a2.091,2.091,0,0,1-4.134.45H17.086v2.043h4.56a.45.45,0,0,1,.318.132l1.657,1.657h1.117a2.092,2.092,0,1,1,0,.9h-1.3a.45.45,0,0,1-.318-.132L21.46,20.029H17.086v2.043h3.7a.45.45,0,0,1,.318.132l3.2,3.2a.45.45,0,0,1,.132.318v1.605a2.075,2.075,0,1,1-.9,0V25.912L20.6,22.971H17.086V26.2a.45.45,0,0,1-.45.45,10.013,10.013,0,1,1,0-20.027.45.45,0,0,1,.45.45V10.3H20.6l2.941-2.941V5.943a2.082,2.082,0,1,1,.991-.019c-.03.008-.061.012-.092.018V7.548a.45.45,0,0,1-.132.318l-3.2,3.2a.45.45,0,0,1-.318.132h-3.7v2.043h4.261L23.3,11.287a.45.45,0,0,1,.318-.132h1.115a2.092,2.092,0,1,1,0,.9h-.928l-1.957,1.958a.45.45,0,0,1-.318.132H17.086v2.043H29.14a2.091,2.091,0,0,1,4.134.45Zm-7.687-5.031a1.193,1.193,0,1,0,1.193-1.193A1.194,1.194,0,0,0,25.587,11.605ZM23.392,4.936a1.193,1.193,0,1,0,.6-2.226,1.2,1.2,0,0,0-.31.041,1.193,1.193,0,0,0-.288,2.185Zm-7.205,2.6a9.114,9.114,0,0,0,0,18.206Zm7.8,20.645a1.193,1.193,0,1,0,1.035.6,1.186,1.186,0,0,0-1.035-.6Zm1.6-6.811a1.193,1.193,0,1,0,1.193-1.193A1.194,1.194,0,0,0,25.587,21.368Zm6.788-4.731a1.193,1.193,0,1,0-1.193,1.193,1.194,1.194,0,0,0,1.193-1.193Z" transform="translate(0 0)" fill="#fff"/>
</svg>
