<svg xmlns="http://www.w3.org/2000/svg" xmlns:xlink="http://www.w3.org/1999/xlink" width="173.487" height="211.358" viewBox="0 0 173.487 211.358">
  <defs>
    <linearGradient id="linear-gradient" x1="0.5" x2="0.5" y2="1" gradientUnits="objectBoundingBox">
      <stop offset="0" stop-color="#0065b6"/>
      <stop offset="0.512" stop-color="#3179b3"/>
      <stop offset="1" stop-color="#6ebdfd"/>
    </linearGradient>
    <linearGradient id="linear-gradient-9" x1="3.232" y1="17.737" x2="3.899" y2="17.737" gradientUnits="objectBoundingBox">
      <stop offset="0" stop-color="#363636"/>
      <stop offset="0.517" stop-color="#3b3b3b"/>
      <stop offset="1" stop-color="#494949"/>
    </linearGradient>
    <linearGradient id="linear-gradient-10" x1="3.232" y1="9.274" x2="3.899" y2="9.274" gradientUnits="objectBoundingBox">
      <stop offset="0" stop-color="#e4e7fb"/>
      <stop offset="0.527" stop-color="#d2d7f6"/>
      <stop offset="1" stop-color="#e4e7fb"/>
    </linearGradient>
    <linearGradient id="linear-gradient-11" x1="65.126" y1="157.598" x2="65.792" y2="157.598" xlink:href="#linear-gradient-10"/>
    <linearGradient id="linear-gradient-12" x1="67.959" y1="159.88" x2="68.625" y2="159.88" xlink:href="#linear-gradient-10"/>
    <linearGradient id="linear-gradient-13" x1="70.873" y1="157.548" x2="71.539" y2="157.548" xlink:href="#linear-gradient-10"/>
    <linearGradient id="linear-gradient-14" x1="68.034" y1="155.216" x2="68.7" y2="155.216" xlink:href="#linear-gradient-10"/>
    <clipPath id="clip-path">
      <rect id="Rectangle_3076" data-name="Rectangle 3076" width="134.447" height="117.595" fill="none"/>
    </clipPath>
    <clipPath id="clip-path-2">
      <path id="Path_104694" data-name="Path 104694" d="M124.215,104.8h0l-.047-.024.048.024M137.4,45.932a16.96,16.96,0,0,0-2.273.575,6.211,6.211,0,0,0-3.921,3.727c-.3.849-1.468,3.341-.413,4.02.244-1.225.215-2.927,1.134-3.887.659-.688,1.653.165,2.262.547a5.831,5.831,0,0,1,2.349,2.788c.953,2.409.283,5.176-.017,7.651q-.529,4.36-1.06,8.721-1.073,8.834-2.147,17.666-.537,4.419-1.073,8.834c-.169,1.391-.363,2.782-.5,4.175a8.21,8.21,0,0,1-.838,3.706c-1.233,1.931-3.909,1.384-5.491.837a10.805,10.805,0,0,1-1.2-.49c.816.427,1.633.839,2.44,1.287a9.326,9.326,0,0,0,4.886,1.332c3.253-.064,6.794-1.65,8.4-4.6a14.574,14.574,0,0,0,.883-3.869c.31-2.1.563-4.2.8-6.3q.719-6.332,1.484-12.652.787-6.46,1.571-12.92c.268-2.191.517-4.386.8-6.576.254-1.971.641-3.935.71-5.923,0-.062.009-.209.01-.477-.064-1.646-.073-1.338-.062-.722-.519-3.873-3.942-7.53-7.784-7.53a5.951,5.951,0,0,0-.956.077" transform="translate(-124.167 -45.855)" fill="none"/>
    </clipPath>
    <linearGradient id="linear-gradient-15" x1="-1.194" y1="1.514" x2="-1.182" y2="1.514" gradientUnits="objectBoundingBox">
      <stop offset="0" stop-color="#b7c0eb"/>
      <stop offset="0.532" stop-color="#e4e7fb"/>
      <stop offset="1" stop-color="#e4e7fb"/>
    </linearGradient>
    <clipPath id="clip-path-3">
      <path id="Path_104695" data-name="Path 104695" d="M123.092,93.06a3.972,3.972,0,0,0,1.8,3.119c1,.576,1.811.113,1.815-1.031a3.978,3.978,0,0,0-1.8-3.121,1.643,1.643,0,0,0-.81-.248c-.592,0-1,.469-1,1.281" transform="translate(-123.092 -91.779)" fill="none"/>
    </clipPath>
    <linearGradient id="linear-gradient-16" x1="-15.625" y1="7.634" x2="-15.497" y2="7.634" gradientUnits="objectBoundingBox">
      <stop offset="0" stop-color="#4cd9ed"/>
      <stop offset="0.181" stop-color="#4bd3ec"/>
      <stop offset="0.421" stop-color="#49c2ec"/>
      <stop offset="0.694" stop-color="#46a6ec"/>
      <stop offset="0.991" stop-color="#4380ec"/>
      <stop offset="1" stop-color="#437fec"/>
    </linearGradient>
    <clipPath id="clip-path-4">
      <path id="Path_104696" data-name="Path 104696" d="M126.027,90.228c-.452.262-.906.522-1.357.787-.757.441-.154.083-.909.521.924-.538,2.029.618,2.458,1.305a3.959,3.959,0,0,1,.612,1.644,1.455,1.455,0,0,1-.511,1.455c1.029-.6.7-.4,1.732-1a2.263,2.263,0,0,0,1.031-.809,1.785,1.785,0,0,0,.142-.806h0a4.094,4.094,0,0,0-1.313-2.68,2.948,2.948,0,0,0-.394-.3.987.987,0,0,0-.371-.192,1.311,1.311,0,0,0-.5-.1,1.211,1.211,0,0,0-.624.18" transform="translate(-123.761 -90.048)" fill="none"/>
    </clipPath>
    <linearGradient id="linear-gradient-17" x1="-12.314" y1="6.166" x2="-12.213" y2="6.166" xlink:href="#linear-gradient-15"/>
    <clipPath id="clip-path-5">
      <path id="Path_104697" data-name="Path 104697" d="M137.387,7.373a18.128,18.128,0,0,0-3.937,2.048q-2.917,1.691-5.829,3.385L115.965,19.58c2.93-1.7,6.483-.74,9.27.773a26.165,26.165,0,0,1,9.5,9.7,28.664,28.664,0,0,1,4.06,11.395c.434,3.823-.105,8.764-3.79,10.9l19.912-11.57c2.967-1.736,3.9-5.344,3.92-8.587v-.246c0-.132,0-.263-.007-.394-.219-8.319-5.294-17.051-12.057-21.756a13.059,13.059,0,0,0-7.317-2.7,7.4,7.4,0,0,0-2.069.284" transform="translate(-115.965 -7.089)" fill="none"/>
    </clipPath>
    <linearGradient id="linear-gradient-18" x1="-1.364" y1="1.995" x2="-1.351" y2="1.995" xlink:href="#linear-gradient-15"/>
    <clipPath id="clip-path-6">
      <path id="Path_104698" data-name="Path 104698" d="M148.263,39.528v0l0,.061c0,.127,0,.066,0,0,0-.032,0-.062,0-.069m0,0h0M112.9.649a30.97,30.97,0,0,0-5.165,2.794q-2.942,1.712-5.885,3.419Q90.392,13.52,78.935,20.179c4.057-2.363,9.059-1.542,13.133.313a34.483,34.483,0,0,1,10.518,7.768,49.459,49.459,0,0,1,12.971,25.168c1.154,6.692.805,15.89-5.827,19.746q13.161-7.648,26.324-15.3c3.7-2.152,7.918-3.909,10.076-7.816a21.744,21.744,0,0,0,2.136-10.469l0-.061v0h0c-.25-8.054-3.389-15.929-7.708-22.646C136.1,9.951,129.472,3,121.318.675A15.951,15.951,0,0,0,116.846,0,11.741,11.741,0,0,0,112.9.649" transform="translate(-78.935)" fill="none"/>
    </clipPath>
    <linearGradient id="linear-gradient-19" x1="0.539" y1="0.844" x2="0.66" y2="0.221" gradientUnits="objectBoundingBox">
      <stop offset="0" stop-color="#002b4e"/>
      <stop offset="0.512" stop-color="#04589a"/>
      <stop offset="1" stop-color="#0465b4"/>
    </linearGradient>
    <clipPath id="clip-path-7">
      <path id="Path_104699" data-name="Path 104699" d="M68.153,17.006c-16.976,3-33.416-.131-33.416-.131S58.376,43.35,58.808,45.11s26.712,64.54,26.712,64.54,4.855-8.8,11.138-20.248c8.053-14.665,20.085-17.843,20.135-30.447.086-21.794-15.1-34.846-22.119-40.245-3.724-2.87-6.131-4.025-10.14-4.025-3.542,0-8.333.9-16.382,2.322" transform="translate(-34.737 -14.684)" fill="none"/>
    </clipPath>
    <linearGradient id="linear-gradient-20" x1="-0.334" y1="1.116" x2="-0.324" y2="1.116" xlink:href="#linear-gradient-15"/>
    <clipPath id="clip-path-9">
      <path id="Path_104701" data-name="Path 104701" d="M89.217,86.46h0M25.631,18.7a49.487,49.487,0,0,0-5.724,3.2L14.928,24.8C23.787,19.651,34.751,23,42.9,27.926c8.828,5.326,16.274,13.026,22.078,21.5A89.819,89.819,0,0,1,78.132,77.8c2.446,9.572,3.388,20.5-.471,29.838a21.041,21.041,0,0,1-8.6,10.313l5.131-2.982a48.736,48.736,0,0,0,6.152-3.822c7.189-5.769,9.11-15.72,8.883-24.48,0,.046,0,.049,0-.071,0,.033,0,.066,0,.1,0-.033,0-.066,0-.1s0-.078,0-.133c-.28-9.741-3.092-19.379-7.146-28.19a92.5,92.5,0,0,0-16.9-24.907,60.962,60.962,0,0,0-7.5-6.745,45.34,45.34,0,0,0-7.744-5.082,29.812,29.812,0,0,0-5.869-2.665,34.472,34.472,0,0,0-5.86-1.541,23.469,23.469,0,0,0-3.978-.344,22.384,22.384,0,0,0-8.59,1.716" transform="translate(-14.928 -16.987)" fill="none"/>
    </clipPath>
    <linearGradient id="linear-gradient-21" x1="-0.039" y1="0.978" x2="-0.031" y2="0.978" xlink:href="#linear-gradient-15"/>
    <linearGradient id="linear-gradient-22" x1="0.5" x2="0.5" y2="1" gradientUnits="objectBoundingBox">
      <stop offset="0" stop-color="#0465b4"/>
      <stop offset="1" stop-color="#02335a"/>
    </linearGradient>
    <clipPath id="clip-path-11">
      <path id="Path_104705" data-name="Path 104705" d="M20.94,32.285C17.1,35.7,14.951,41.74,14.928,49.8,14.866,71.6,30.842,99.26,49.815,110.21c4.965,2.866,9.786,4.383,13.938,4.383a14.3,14.3,0,0,0,4.034-.554c3.839-3.415,5.986-9.458,6.009-17.52.064-21.79-15.912-49.452-34.88-60.4-4.967-2.869-9.787-4.383-13.942-4.383a14.293,14.293,0,0,0-4.034.554" transform="translate(-14.928 -31.731)" fill="none"/>
    </clipPath>
    <linearGradient id="linear-gradient-23" x1="0.372" y1="0.03" x2="0.606" y2="0.955" xlink:href="#linear-gradient-19"/>
    <clipPath id="clip-path-12">
      <path id="Path_104708" data-name="Path 104708" d="M8.929,52.43c-.062,21.791,15.913,49.453,34.885,60.406,4.965,2.867,9.785,4.38,13.938,4.38,9.219,0,14.744-7.739,14.78-20.7.064-21.79-15.912-49.452-34.88-60.4-4.967-2.869-9.787-4.383-13.942-4.383-9.22,0-14.746,7.738-14.783,20.7" transform="translate(-8.929 -31.731)" fill="none"/>
    </clipPath>
    <clipPath id="clip-path-13">
      <path id="Path_104709" data-name="Path 104709" d="M59.028,59.585,49.37,65.2c3.942-2.3,8.652,2.625,10.482,5.558a16.856,16.856,0,0,1,2.61,7.017c.235,2.18-.08,4.98-2.18,6.2q6.585-3.825,13.169-7.652c.449-.261.915-.505,1.375-.76A87.516,87.516,0,0,0,63.534,56.966q-2.254,1.309-4.507,2.619" transform="translate(-49.37 -56.966)" fill="none"/>
    </clipPath>
    <linearGradient id="linear-gradient-24" x1="-0.955" y1="2.141" x2="-0.933" y2="2.141" xlink:href="#linear-gradient-15"/>
    <clipPath id="clip-path-14">
      <path id="Path_104710" data-name="Path 104710" d="M59.4,56.377l-.584,2.712A1.372,1.372,0,0,0,59.2,60.27c.3.264.6.165.684-.22l.584-2.712a1.37,1.37,0,0,0-.385-1.179.5.5,0,0,0-.329-.149c-.167,0-.3.129-.355.366" transform="translate(-58.796 -56.011)" fill="url(#linear-gradient)"/>
    </clipPath>
    <linearGradient id="linear-gradient-25" x1="-9.828" y1="16.748" x2="-9.656" y2="16.748" xlink:href="#linear-gradient"/>
    <clipPath id="clip-path-15">
      <path id="Path_104711" data-name="Path 104711" d="M59.845,60.347l.012,0Zm.78-4.6a.385.385,0,0,0-.043,0c-.018,0-.037.006-.054.012l-.647.213a.332.332,0,0,1,.1-.016.378.378,0,0,1,.1.017h0a.5.5,0,0,1,.107.05h0a.689.689,0,0,1,.111.083.794.794,0,0,1,.1.109l0,0a1.335,1.335,0,0,1,.088.126l0,.006a1.435,1.435,0,0,1,.134.3l0,.006a1.438,1.438,0,0,1,.043.158v0c.01.055.018.108.024.16v0a1.154,1.154,0,0,1,0,.156v0a1,1,0,0,1-.018.15L60.1,59.994a.763.763,0,0,1-.039.128l0,0a.412.412,0,0,1-.059.1.265.265,0,0,1-.061.062l-.02.018a.372.372,0,0,1-.067.036l.635-.208a.373.373,0,0,0,.078-.042c.008-.006.014-.013.021-.017a.234.234,0,0,0,.028-.021.293.293,0,0,0,.031-.038l0,0h0a.253.253,0,0,1,.019-.028.24.24,0,0,1,.019-.03.161.161,0,0,1,.013-.029l0-.013,0,0,.006-.011.011-.027.009-.03c0-.009,0-.018.008-.028a.168.168,0,0,1,.008-.028v0l.582-2.71c0-.01,0-.02.006-.029l.006-.028c0-.012,0-.021,0-.032s0-.021,0-.03,0-.02,0-.032,0-.021,0-.032v-.068c0-.01,0-.021,0-.033s0-.018,0-.028v0a.257.257,0,0,0,0-.036c0-.011,0-.022,0-.033l0-.032-.006-.031,0-.024v0l0,0-.006-.035a.346.346,0,0,0-.01-.034.246.246,0,0,0-.012-.041.375.375,0,0,0-.012-.043l0-.007,0-.011c-.009-.027-.018-.054-.028-.082l-.028-.062c-.006-.013-.013-.027-.019-.042s-.012-.021-.017-.034-.013-.021-.018-.032-.012-.021-.018-.029l0-.007,0,0a.205.205,0,0,0-.014-.025l-.021-.029c-.006-.011-.014-.021-.02-.032s-.017-.019-.024-.028l-.009-.013,0-.006a.025.025,0,0,1-.007-.009l-.023-.026L61,55.941a.208.208,0,0,0-.022-.023l-.023-.024-.006,0a.066.066,0,0,0-.017-.017.129.129,0,0,0-.023-.018.2.2,0,0,0-.021-.017l-.021-.016a.2.2,0,0,0-.024-.015l0,0-.019-.009a.068.068,0,0,0-.023-.011l-.024-.013a.212.212,0,0,1-.027-.009.038.038,0,0,0-.016-.006h0l-.006,0-.028-.006a.2.2,0,0,1-.032-.006l-.036,0Z" transform="translate(-59.845 -55.742)" fill="none"/>
    </clipPath>
    <linearGradient id="linear-gradient-26" x1="-9.466" y1="29.821" x2="-9.302" y2="29.821" gradientUnits="objectBoundingBox">
      <stop offset="0" stop-color="#5fefc0"/>
      <stop offset="0.586" stop-color="#24cfc0"/>
      <stop offset="1" stop-color="#00bbc1"/>
    </linearGradient>
    <clipPath id="clip-path-16">
      <path id="Path_104712" data-name="Path 104712" d="M46.232,51.7c-.268.084-.363.526-.212.989l1.053,3.235a1.286,1.286,0,0,0,.333.544.435.435,0,0,0,.422.133c.267-.083.36-.526.211-.987l-1.053-3.234a1.257,1.257,0,0,0-.332-.546.51.51,0,0,0-.329-.148.288.288,0,0,0-.093.015" transform="translate(-45.948 -51.684)" fill="none"/>
    </clipPath>
    <linearGradient id="linear-gradient-27" x1="-6.504" y1="23.029" x2="-6.356" y2="23.029" gradientUnits="objectBoundingBox">
      <stop offset="0" stop-color="#5fefc0"/>
      <stop offset="0.196" stop-color="#5beac9"/>
      <stop offset="1" stop-color="#4cd9ed"/>
    </linearGradient>
    <clipPath id="clip-path-17">
      <path id="Path_104713" data-name="Path 104713" d="M47.9,56.543l.017-.006Zm-.848-5.127h0a.416.416,0,0,0-.044,0,.185.185,0,0,0-.054.013l-.647.212a.291.291,0,0,1,.1-.015h0a.436.436,0,0,1,.1.019l0,0a.478.478,0,0,1,.1.049h0a1.267,1.267,0,0,1,.1.078.846.846,0,0,1,.1.105l0,0a1.117,1.117,0,0,1,.087.124l0,.006a1.268,1.268,0,0,1,.077.141l0,0a1.085,1.085,0,0,1,.063.163l1.053,3.234a1.024,1.024,0,0,1,.045.172l0,0c.009.054.017.108.021.16V55.9a1.121,1.121,0,0,1,0,.154v0a.976.976,0,0,1-.019.14h0a.585.585,0,0,1-.039.122v0a.592.592,0,0,1-.054.1l0,0a.371.371,0,0,1-.062.065.138.138,0,0,1-.021.017.335.335,0,0,1-.066.036l.628-.2a.364.364,0,0,0,.083-.045.177.177,0,0,0,.022-.017.323.323,0,0,1,.026-.02.266.266,0,0,0,.032-.036l0-.008,0,0c0-.006.009-.013.013-.02s.013-.021.018-.031a.24.24,0,0,1,.015-.028l.007-.019,0,0,0-.007a.1.1,0,0,0,.011-.026c0-.01.006-.021.009-.032a.175.175,0,0,0,.007-.028.222.222,0,0,0,.009-.028v0h0c0-.009,0-.017,0-.027s0-.021.006-.03,0-.02,0-.028a.2.2,0,0,0,0-.031c0-.008,0-.017,0-.025V55.73l0-.034a.065.065,0,0,0,0-.014v0a.081.081,0,0,0,0-.016c0-.012,0-.022,0-.034s0-.021,0-.035a.157.157,0,0,1-.006-.03l0-.031,0-.012,0-.007,0-.015-.007-.031c0-.015-.006-.024-.009-.037s-.007-.027-.011-.039a.349.349,0,0,0-.015-.049L47.71,52.109l0,0c-.01-.036-.023-.069-.036-.1s-.015-.036-.024-.056a.335.335,0,0,0-.018-.038c-.006-.011-.011-.023-.017-.034a.186.186,0,0,1-.017-.033.264.264,0,0,1-.018-.029c0-.007-.008-.01-.01-.016v0l-.009-.014a.392.392,0,0,0-.022-.032.271.271,0,0,0-.02-.029l-.022-.028a.119.119,0,0,0-.017-.021l0,0,0-.006a.251.251,0,0,1-.022-.028.209.209,0,0,1-.023-.023.306.306,0,0,1-.022-.023c-.006-.007-.014-.013-.021-.02s0-.006-.006-.006l-.016-.013a.157.157,0,0,0-.022-.019.147.147,0,0,1-.021-.017.257.257,0,0,0-.022-.014l-.022-.016h0a.157.157,0,0,1-.023-.013c-.008-.006-.017-.008-.023-.012l-.026-.012a.136.136,0,0,1-.024-.011h-.012a.032.032,0,0,0-.015-.006l-.028-.007a.091.091,0,0,0-.032-.006.145.145,0,0,0-.026,0Z" transform="translate(-46.308 -51.416)" fill="url(#linear-gradient)"/>
    </clipPath>
    <linearGradient id="linear-gradient-28" x1="-6.329" y1="21.567" x2="-6.186" y2="21.567" xlink:href="#linear-gradient"/>
    <clipPath id="clip-path-18">
      <path id="Path_104714" data-name="Path 104714" d="M37.519,63.465a1.367,1.367,0,0,0,.383,1.18l2.071,1.864c.3.266.6.167.684-.219a1.361,1.361,0,0,0-.383-1.177L38.2,63.246a.5.5,0,0,0-.328-.148c-.167,0-.3.129-.355.367" transform="translate(-37.498 -63.098)" fill="url(#linear-gradient)"/>
    </clipPath>
    <linearGradient id="linear-gradient-29" x1="-6.788" y1="15.087" x2="-6.603" y2="15.087" xlink:href="#linear-gradient"/>
    <clipPath id="clip-path-19">
      <path id="Path_104715" data-name="Path 104715" d="M41.4,65.871h0m0,0h0m0,0h0m-3.544-2.815.007,0-.007,0m.744-.227h0a.361.361,0,0,0-.042,0,.3.3,0,0,0-.054.012q-.32.107-.639.21a.293.293,0,0,1,.088-.011h0a.4.4,0,0,1,.1.015l0,0a.612.612,0,0,1,.107.046l0,0a.835.835,0,0,1,.11.083l2.072,1.867a.92.92,0,0,1,.105.109c.032.041.062.085.091.131v0c.028.046.052.092.076.142v0a1.067,1.067,0,0,1,.058.148l.006.013c.016.05.029.1.039.152l0,.006a1.137,1.137,0,0,1,.023.16v0a1.168,1.168,0,0,1,0,.157h0a.905.905,0,0,1-.02.15.857.857,0,0,1-.039.129l0,0a.463.463,0,0,1-.058.1h0a.462.462,0,0,1-.06.063.116.116,0,0,1-.022.016.293.293,0,0,1-.079.042l.647-.212a.3.3,0,0,0,.079-.043l.021-.016.028-.022c.01-.013.022-.024.032-.038l0,0,.019-.029c.006-.009.011-.019.019-.029s.009-.019.014-.029,0-.008,0-.014l0,0a.052.052,0,0,1,.006-.013.23.23,0,0,1,.009-.028l.009-.028.009-.028a.2.2,0,0,0,.006-.03h0a.2.2,0,0,0,0-.028.105.105,0,0,0,.006-.03l0-.032c0-.009,0-.02,0-.028s0-.021,0-.034,0-.019,0-.03v-.066a.244.244,0,0,1,0-.034c0-.008,0-.018,0-.027v-.008a.224.224,0,0,1,0-.033c0-.01,0-.023,0-.035a.3.3,0,0,1-.007-.031.16.16,0,0,0,0-.033c0-.009,0-.021-.006-.03s0-.022-.008-.033l-.009-.036-.011-.039c0-.016-.009-.028-.013-.043l0-.009,0-.009c-.01-.026-.02-.053-.031-.082s-.017-.04-.026-.06v0l-.021-.039a.246.246,0,0,0-.017-.036.313.313,0,0,0-.018-.031.182.182,0,0,0-.017-.032l0-.006,0,0-.013-.024-.021-.029a.35.35,0,0,0-.021-.03.283.283,0,0,0-.022-.032s-.008-.009-.012-.012l0,0s-.006-.009-.007-.01l-.023-.028a.214.214,0,0,1-.022-.024.291.291,0,0,1-.021-.022c-.009-.007-.017-.015-.024-.021l0-.006-2.073-1.864a.109.109,0,0,0-.017-.016.218.218,0,0,1-.021-.019.065.065,0,0,1-.022-.017.175.175,0,0,1-.021-.015.11.11,0,0,1-.024-.013l0,0,0,0c-.006,0-.009-.006-.016-.01l-.024-.012-.023-.009-.027-.012-.017,0h0a.009.009,0,0,0-.008,0l-.028-.006-.032-.007-.036,0Z" transform="translate(-37.855 -62.828)" fill="none"/>
    </clipPath>
    <linearGradient id="linear-gradient-30" x1="-6.675" y1="16.058" x2="-6.496" y2="16.058" xlink:href="#linear-gradient-26"/>
    <clipPath id="clip-path-20">
      <path id="Path_104716" data-name="Path 104716" d="M41.294,82.821l-1.879.6c-.268.086-.361.525-.212.989a1.305,1.305,0,0,0,.334.544.441.441,0,0,0,.422.134l1.878-.6c.267-.084.362-.527.212-.989a1.274,1.274,0,0,0-.334-.544.511.511,0,0,0-.328-.149.3.3,0,0,0-.092.014" transform="translate(-39.132 -82.807)" fill="url(#linear-gradient)"/>
    </clipPath>
    <linearGradient id="linear-gradient-31" x1="-8.924" y1="19.131" x2="-8.694" y2="19.131" xlink:href="#linear-gradient"/>
    <clipPath id="clip-path-21">
      <path id="Path_104717" data-name="Path 104717" d="M41.911,84.432l.011,0Zm.206-1.894h-.006a.275.275,0,0,0-.044,0,.434.434,0,0,0-.054.012l-1.877.6-.647.213,1.879-.6a.307.307,0,0,1,.1-.013h0a.344.344,0,0,1,.1.018l0,0a.433.433,0,0,1,.1.05v0a.658.658,0,0,1,.105.077.84.84,0,0,1,.1.105l0,0a1.361,1.361,0,0,1,.088.126l0,0a1.466,1.466,0,0,1,.142.31,1.327,1.327,0,0,1,.044.171v0a1.377,1.377,0,0,1,.022.16l0,.008a1.39,1.39,0,0,1,0,.152v0a.768.768,0,0,1-.058.265l0,0a.466.466,0,0,1-.053.1l0,0a.276.276,0,0,1-.062.063.161.161,0,0,1-.021.019.343.343,0,0,1-.071.038l.636-.208a.293.293,0,0,0,.081-.045c.007,0,.013-.01.021-.013a.22.22,0,0,0,.025-.022.225.225,0,0,0,.031-.036l.006-.009,0,0a.165.165,0,0,0,.013-.022c.007-.009.012-.019.018-.029l.015-.03c0-.006,0-.011.009-.019l0,0,0-.006c0-.011.008-.021.009-.03a.222.222,0,0,0,.01-.03.078.078,0,0,0,.006-.026l.008-.029v0c0-.009,0-.017.006-.028a.16.16,0,0,0,0-.029.193.193,0,0,1,0-.031c0-.01,0-.02,0-.03v-.064c0-.012,0-.022,0-.032s0-.024,0-.036,0-.023,0-.036v-.034a.341.341,0,0,0,0-.036l0-.029a.123.123,0,0,0-.006-.034c0-.009,0-.021,0-.03a.121.121,0,0,1,0-.013l0-.006,0-.013-.006-.034c0-.011-.006-.023-.01-.033l-.009-.041c-.006-.016-.009-.032-.014-.047l0-.007a.765.765,0,0,0-.036-.1.544.544,0,0,0-.024-.054l0-.006,0,0a.264.264,0,0,1-.013-.03c-.006-.012-.012-.021-.018-.034l-.017-.03a.346.346,0,0,0-.019-.032s-.008-.012-.01-.017v0l-.009-.013c-.006-.01-.012-.02-.019-.032s-.015-.021-.022-.03a.3.3,0,0,0-.023-.03.073.073,0,0,0-.017-.021l0,0,0,0-.022-.028a.173.173,0,0,1-.023-.024.2.2,0,0,1-.023-.022.172.172,0,0,0-.022-.02l0-.006-.018-.013a.114.114,0,0,0-.021-.019l-.022-.017-.023-.016a.21.21,0,0,1-.019-.013h0a.255.255,0,0,0-.024-.013.109.109,0,0,0-.024-.011.094.094,0,0,0-.024-.012.158.158,0,0,0-.027-.011l-.006,0h0l-.017-.006-.028-.006a.152.152,0,0,0-.031-.006l-.028,0Z" transform="translate(-39.49 -82.538)" fill="none"/>
    </clipPath>
    <linearGradient id="linear-gradient-32" x1="-12.391" y1="14.508" x2="-12.082" y2="14.508" xlink:href="#linear-gradient-26"/>
    <clipPath id="clip-path-22">
      <path id="Path_104718" data-name="Path 104718" d="M50.5,98.031l-.583,2.713a1.375,1.375,0,0,0,.383,1.179c.295.265.6.167.684-.22l.584-2.713a1.371,1.371,0,0,0-.383-1.178.5.5,0,0,0-.328-.149c-.167,0-.306.129-.358.368" transform="translate(-49.893 -97.663)" fill="url(#linear-gradient)"/>
    </clipPath>
    <linearGradient id="linear-gradient-33" x1="-8.291" y1="9.23" x2="-8.119" y2="9.23" xlink:href="#linear-gradient"/>
    <clipPath id="clip-path-23">
      <path id="Path_104719" data-name="Path 104719" d="M51.723,97.4h0l-.042,0a.22.22,0,0,0-.054.013l-.648.213a.282.282,0,0,1,.1-.014h0a.419.419,0,0,1,.1.015h0a.45.45,0,0,1,.107.049l0,0a.629.629,0,0,1,.111.081.924.924,0,0,1,.1.111v0A1.079,1.079,0,0,1,51.6,98l0,0a1.4,1.4,0,0,1,.075.141l0,.006a1.426,1.426,0,0,1,.058.151v.008a1.627,1.627,0,0,1,.068.32v0c0,.053,0,.106,0,.156v0a.686.686,0,0,1-.02.148l-.584,2.713a.581.581,0,0,1-.038.13l0,0a.5.5,0,0,1-.058.1v0a.426.426,0,0,1-.059.06.055.055,0,0,0-.022.018.407.407,0,0,1-.079.039l.647-.212a.46.46,0,0,0,.079-.039l.021-.019c.008-.007.018-.013.027-.022s.021-.024.032-.038h0c.007-.01.013-.018.02-.029l.018-.031c0-.009.009-.018.014-.03l.006-.012v0l.008-.013.009-.028c0-.01.007-.021.009-.031a.268.268,0,0,0,.008-.027.26.26,0,0,1,.008-.029l.582-2.715a.081.081,0,0,0,.006-.027.19.19,0,0,0,.006-.029.12.12,0,0,1,0-.03c0-.011,0-.023,0-.032v-.064a.142.142,0,0,0,0-.032c0-.012,0-.021,0-.033v-.035a.152.152,0,0,0,0-.026v-.006a.117.117,0,0,0,0-.035.283.283,0,0,0,0-.034c0-.009,0-.021,0-.031a.21.21,0,0,1,0-.033l-.007-.032c0-.009,0-.021-.007-.032a.343.343,0,0,0-.009-.036c0-.012-.006-.024-.012-.039s-.009-.029-.013-.047v0s0-.007-.006-.011l-.028-.082c-.009-.021-.019-.043-.027-.062a.83.83,0,0,0-.038-.076c-.006-.013-.013-.023-.017-.032s-.013-.021-.019-.029,0-.007,0-.007-.012-.018-.016-.026l-.02-.031a.169.169,0,0,0-.022-.028.363.363,0,0,0-.021-.032s-.008-.01-.013-.013v0s-.006-.006-.009-.013-.016-.017-.024-.024l-.021-.024-.024-.023-.021-.022-.006,0a.066.066,0,0,0-.017-.017.1.1,0,0,0-.022-.018l-.021-.017c-.007,0-.015-.011-.024-.016a.116.116,0,0,0-.021-.013l0,0h0a.053.053,0,0,0-.018-.008.069.069,0,0,0-.024-.013.052.052,0,0,0-.023-.011.219.219,0,0,0-.024-.011.169.169,0,0,1-.019-.006l0,0H51.82l-.029-.008a.138.138,0,0,0-.03,0l-.037,0Z" transform="translate(-50.942 -97.395)" fill="none"/>
    </clipPath>
    <linearGradient id="linear-gradient-34" x1="-8.005" y1="16.285" x2="-7.841" y2="16.285" xlink:href="#linear-gradient-26"/>
    <clipPath id="clip-path-25">
      <path id="Path_104749" data-name="Path 104749" d="M62.43,101.341c-.269.087-.364.527-.212.989l1.051,3.235a1.282,1.282,0,0,0,.334.544.447.447,0,0,0,.422.136c.268-.086.362-.528.212-.989l-1.053-3.235a1.267,1.267,0,0,0-.333-.545.5.5,0,0,0-.328-.149.305.305,0,0,0-.092.014" transform="translate(-62.146 -101.327)" fill="none"/>
    </clipPath>
    <linearGradient id="linear-gradient-35" x1="-8.904" y1="11.141" x2="-8.756" y2="11.141" xlink:href="#linear-gradient-27"/>
    <clipPath id="clip-path-26">
      <path id="Path_104750" data-name="Path 104750" d="M63.255,101.059h-.007a.266.266,0,0,0-.043,0,.242.242,0,0,0-.053.011l-.646.212a.259.259,0,0,1,.1-.012h0a.293.293,0,0,1,.1.017h0a.519.519,0,0,1,.1.049l0,0a.926.926,0,0,1,.1.077c.033.032.066.065.1.1v0a1.486,1.486,0,0,1,.088.123l0,.008a1,1,0,0,1,.077.141l0,0a1.453,1.453,0,0,1,.062.163l1.053,3.235c.15.461.056.9-.212.989l.646-.213c.268-.086.362-.525.212-.987l-1.053-3.238,0,0c-.009-.035-.023-.067-.035-.1s-.017-.036-.024-.054l0,0,0,0c-.006-.01-.009-.021-.015-.032a.325.325,0,0,0-.017-.032l-.017-.033-.018-.031a.062.062,0,0,1-.009-.016l0,0a.047.047,0,0,1-.008-.013l-.022-.032a.227.227,0,0,0-.022-.03l-.021-.032a.2.2,0,0,1-.017-.022h0l0,0a.136.136,0,0,0-.022-.028l-.023-.024a.188.188,0,0,0-.021-.022c-.007-.007-.016-.014-.024-.023l0,0-.018-.016a.168.168,0,0,0-.021-.017.255.255,0,0,1-.023-.018.188.188,0,0,1-.021-.016h0a.129.129,0,0,1-.021-.011h0a.07.07,0,0,0-.023-.014l-.024-.013-.023-.009a.074.074,0,0,0-.025-.01l-.009,0h0l-.014,0-.028-.007a.153.153,0,0,0-.032,0l-.028,0Z" transform="translate(-62.506 -101.059)" fill="url(#linear-gradient)"/>
    </clipPath>
    <linearGradient id="linear-gradient-36" x1="-8.614" y1="10.26" x2="-8.472" y2="10.26" xlink:href="#linear-gradient"/>
    <clipPath id="clip-path-27">
      <path id="Path_104751" data-name="Path 104751" d="M69.326,92.018a1.369,1.369,0,0,0,.385,1.179l2.071,1.865c.294.264.6.167.682-.22a1.362,1.362,0,0,0-.382-1.179L70.012,91.8a.507.507,0,0,0-.329-.15c-.167,0-.306.129-.357.368" transform="translate(-69.305 -91.65)" fill="url(#linear-gradient)"/>
    </clipPath>
    <linearGradient id="linear-gradient-37" x1="-12.653" y1="11.36" x2="-12.468" y2="11.36" xlink:href="#linear-gradient"/>
    <clipPath id="clip-path-28">
      <path id="Path_104752" data-name="Path 104752" d="M70.407,91.383h0a.347.347,0,0,0-.041,0,.255.255,0,0,0-.055.013c-.216.069-.431.142-.647.211a.325.325,0,0,1,.1-.015h0a.394.394,0,0,1,.1.017h0a.553.553,0,0,1,.109.049,1.059,1.059,0,0,1,.112.084l2.071,1.864a1.125,1.125,0,0,1,.1.109l0,0a.942.942,0,0,1,.088.128h0a1.546,1.546,0,0,1,.138.3l0,.007c.017.052.028.1.04.156v0a.944.944,0,0,1,.023.16v0a.961.961,0,0,1-.017.307.681.681,0,0,1-.039.13h0a.477.477,0,0,1-.058.1l0,0a.471.471,0,0,1-.06.059l-.022.017a.344.344,0,0,1-.077.04l.646-.213A.3.3,0,0,0,73,94.888a.154.154,0,0,1,.022-.017l.028-.025a.218.218,0,0,0,.032-.036h0c.006-.01.013-.019.021-.029l.018-.03c0-.009.009-.02.013-.03a.024.024,0,0,0,.006-.013v0l.006-.012.01-.028.009-.029.008-.029a.214.214,0,0,1,.007-.028v0l0-.028a.151.151,0,0,0,.006-.029c0-.009,0-.021,0-.031l0-.029,0-.032a.222.222,0,0,0,0-.032.255.255,0,0,0,0-.035c0-.009,0-.022,0-.032s0-.024,0-.036a.138.138,0,0,0,0-.026h0v-.006c0-.011,0-.022,0-.034s0-.021,0-.033,0-.022-.006-.031a.244.244,0,0,0-.006-.033.136.136,0,0,1,0-.024V94.1a.237.237,0,0,1-.008-.032l-.009-.036c0-.013-.008-.028-.012-.04s-.009-.031-.014-.043l0-.009,0-.009c-.009-.028-.02-.055-.031-.081a.465.465,0,0,0-.025-.061l0,0c0-.013-.011-.025-.018-.04a.231.231,0,0,0-.017-.034c0-.01-.012-.021-.017-.031L73,93.644l0,0,0,0-.015-.024a.258.258,0,0,1-.019-.032c-.007-.01-.016-.021-.024-.03s-.013-.021-.021-.03-.006-.009-.012-.013l0,0s0-.01-.008-.011a.261.261,0,0,0-.022-.028.306.306,0,0,0-.022-.024.122.122,0,0,0-.023-.022.089.089,0,0,0-.022-.021l0-.007-2.072-1.864a.144.144,0,0,1-.017-.015.248.248,0,0,0-.022-.018.127.127,0,0,1-.021-.017.267.267,0,0,1-.024-.014l-.021-.016h0l0,0-.017-.01-.023-.012a.107.107,0,0,1-.025-.012.173.173,0,0,1-.026-.009l-.017,0h0l-.006,0-.028-.007-.032-.006a.277.277,0,0,0-.036,0Z" transform="translate(-69.662 -91.383)" fill="none"/>
    </clipPath>
    <linearGradient id="linear-gradient-38" x1="-12.373" y1="10.751" x2="-12.194" y2="10.751" xlink:href="#linear-gradient-26"/>
    <clipPath id="clip-path-29">
      <path id="Path_104753" data-name="Path 104753" d="M70.079,73.558l-1.876.6c-.268.085-.363.526-.212.987a1.267,1.267,0,0,0,.333.546.44.44,0,0,0,.42.132l1.879-.6c.268-.084.363-.528.211-.988a1.258,1.258,0,0,0-.332-.543.511.511,0,0,0-.329-.15.288.288,0,0,0-.093.015" transform="translate(-67.918 -73.543)" fill="url(#linear-gradient)"/>
    </clipPath>
    <linearGradient id="linear-gradient-39" x1="-14.356" y1="18.833" x2="-14.143" y2="18.833" xlink:href="#linear-gradient"/>
    <clipPath id="clip-path-30">
      <path id="Path_104754" data-name="Path 104754" d="M70.7,75.168l.012,0Zm.205-1.893h0a.278.278,0,0,0-.043,0c-.017,0-.037.006-.054.009l-1.877.6-.646.212,1.876-.6a.281.281,0,0,1,.1-.013h0a.311.311,0,0,1,.1.017h0a.614.614,0,0,1,.211.13,1.014,1.014,0,0,1,.1.1l0,0c.03.039.059.08.088.124l0,0a1.523,1.523,0,0,1,.078.147,1.474,1.474,0,0,1,.063.164,1.093,1.093,0,0,1,.046.173,1.2,1.2,0,0,1,.022.163l0,0a1.418,1.418,0,0,1,0,.153v0a.963.963,0,0,1-.018.14h0a.665.665,0,0,1-.038.123l0,0a.6.6,0,0,1-.054.1l0,0a.408.408,0,0,1-.062.066l-.021.018a.319.319,0,0,1-.07.038l.633-.206a.346.346,0,0,0,.085-.045l.021-.017a.261.261,0,0,0,.025-.021.207.207,0,0,0,.032-.037l0-.006,0,0a.138.138,0,0,0,.014-.021.224.224,0,0,0,.018-.032.137.137,0,0,0,.014-.028.1.1,0,0,1,.009-.018v0l0,0c0-.013.009-.022.012-.032l.009-.028a.1.1,0,0,0,.006-.029.3.3,0,0,0,.009-.028c0-.009,0-.018,0-.028a.152.152,0,0,0,.006-.03.206.206,0,0,0,0-.031c0-.01,0-.02,0-.032v-.032l0-.03v-.034c0-.011,0-.023,0-.034v-.05h0l0-.017c0-.01,0-.022,0-.032s0-.024,0-.033,0-.022-.006-.032,0-.021,0-.032l0-.018,0-.014a.151.151,0,0,0-.007-.032.244.244,0,0,0-.008-.035.412.412,0,0,0-.012-.042c0-.017-.01-.033-.014-.049l0,0c-.011-.034-.023-.069-.035-.1s-.017-.039-.026-.056l0,0v0c-.006-.011-.01-.023-.016-.033l-.017-.034a.136.136,0,0,0-.017-.03.122.122,0,0,0-.018-.032.029.029,0,0,0-.009-.014l0,0a.049.049,0,0,1-.008-.014.2.2,0,0,1-.02-.03l-.023-.03c-.007-.01-.013-.021-.021-.031s-.01-.013-.017-.018l0-.006,0,0L71.3,73.5a.214.214,0,0,1-.023-.024l-.022-.023-.022-.021,0,0a.106.106,0,0,0-.017-.016.119.119,0,0,0-.021-.018.148.148,0,0,0-.022-.017c-.008-.006-.016-.01-.023-.017l-.023-.015a.212.212,0,0,1-.023-.013c-.008,0-.014-.008-.024-.012a.167.167,0,0,1-.024-.012l-.025-.009-.01,0h0a.052.052,0,0,0-.015-.007l-.029-.006a.148.148,0,0,0-.03,0,.126.126,0,0,0-.028,0Z" transform="translate(-68.278 -73.275)" fill="none"/>
    </clipPath>
    <linearGradient id="linear-gradient-40" x1="-21.327" y1="16.512" x2="-21.017" y2="16.512" xlink:href="#linear-gradient-26"/>
  </defs>
  <g id="Group_88537" data-name="Group 88537" transform="translate(-602.023 -3847.46)">
    <g id="Group_87289" data-name="Group 87289" transform="translate(603.626 3928.012)">
      <g id="Group_87287" data-name="Group 87287" transform="translate(0 51.636)" style="mix-blend-mode: multiply;isolation: isolate">
        <path id="Path_99155" data-name="Path 99155" d="M872.406,385.539C828.617,394.929,826.6,417.5,826.6,417.5l1.341,2.537,1.593,1.557,69.207,39.166,4.374.926,3.054.215,3.067-.108,7.311-1.563,5.526-3.426,69.676-42.625,1.079-.679.964-.738.824-.776.682-.808.542-.834.4-.854.259-.867.118-.875s8.061-13.965-9.3-20.906S882.473,383.381,872.406,385.539Z" transform="translate(-826.6 -382.732)" fill="#fff" opacity="0"/>
        <path id="Path_99156" data-name="Path 99156" d="M872.786,386.817c-2.334.5-4.541,1.087-6.63,1.662-2.35.647-4.54,1.381-6.6,2.1-2.384.839-4.561,1.768-6.579,2.685a63.342,63.342,0,0,0-6.555,3.486,48.636,48.636,0,0,0-6.377,4.609,36.015,36.015,0,0,0-5.725,6.127,24.125,24.125,0,0,0-3.975,7.943,9.618,9.618,0,0,0-.333,1.66l1.272,2.39,1.5,1.467,1.153.656L901,459.6l1.392.314,1.473.327,1.435.313,1.552.125,1.461.114,1.6-.042,1.435-.04,1.641-.33,1.612-.328,1.617-.333,2.3-.485,1.372-.816,1.354-.809,1.307-.787,1.445-.878.848-.51,1.19-.723,66.715-40.7,1.053-.662.365-.277.576-.441.8-.75.669-.785.244-.368.292-.444.4-.826.262-.842.063-.41.066-.442s.14-.247.325-.643c.123-.264.286-.652.442-1.061.117-.306.243-.695.357-1.07,1.152-3.773,1.443-11.464-7.123-16.228-.309-.172-.632-.387-.966-.553s-.664-.363-1.01-.517-.706-.345-1.069-.49c-.191-.076-.414-.2-.622-.269s-.453-.188-.677-.259-.489-.179-.728-.247-.533-.174-.789-.239c-.174-.044-.386-.114-.567-.156-16.224-3.864-67.076-2.748-93.66-1.267A145.394,145.394,0,0,0,872.786,386.817Z" transform="translate(-827.961 -382.995)" fill="#fafbfe" opacity="0.063"/>
        <path id="Path_99157" data-name="Path 99157" d="M873.167,388.073c-2.179.467-4.237,1.064-6.187,1.6-2.193.6-4.228,1.338-6.147,2.013-2.225.783-4.241,1.7-6.123,2.553a58.438,58.438,0,0,0-6.094,3.3,44.947,44.947,0,0,0-5.919,4.348,33.352,33.352,0,0,0-5.3,5.763,22.243,22.243,0,0,0-3.661,7.456,8.193,8.193,0,0,0-.3,1.557l1.2,2.242,1.415,1.378,1.136.65,66.076,37.485,1.366.327,1.447.336,1.416.318,1.528.138,1.445.123,1.574-.026,1.425-.029,1.618-.3,1.59-.307,1.594-.317,2.235-.462,1.363-.776,1.344-.774,1.3-.757,1.422-.848.84-.5,1.177-.709,65.813-40.041,1.028-.646.356-.268.562-.43.778-.723.656-.763.242-.356.288-.433.392-.8.265-.818.068-.4.069-.43s.144-.26.317-.63c.115-.247.282-.657.427-1.038.109-.285.233-.7.339-1.047a13.8,13.8,0,0,0-7-15.9c-.289-.161-.591-.41-.9-.565s-.629-.387-.951-.531-.677-.371-1.016-.506c-.178-.071-.411-.229-.605-.3s-.456-.221-.665-.288-.5-.212-.719-.275-.547-.2-.785-.265c-.162-.041-.4-.134-.567-.174-15.142-3.606-68.654-2.118-94.48-.646A119.983,119.983,0,0,0,873.167,388.073Z" transform="translate(-829.321 -383.235)" fill="#f6f7fc" opacity="0.125"/>
        <path id="Path_99158" data-name="Path 99158" d="M873.547,389.291c-2.024.434-3.934,1.04-5.743,1.538-2.037.56-3.916,1.295-5.7,1.922-2.067.726-3.919,1.628-5.668,2.422a53.68,53.68,0,0,0-5.631,3.116,41.251,41.251,0,0,0-5.461,4.087,30.68,30.68,0,0,0-4.881,5.4,20.41,20.41,0,0,0-3.348,6.968,7.013,7.013,0,0,0-.268,1.454l1.136,2.1,1.325,1.288,1.119.644L905.524,457.2l1.339.341,1.422.344,1.4.324,1.5.152,1.43.133,1.551-.011,1.413-.018,1.594-.279,1.568-.286,1.572-.3,2.165-.44,1.355-.735,1.334-.739,1.289-.729,1.4-.816.832-.485,1.164-.694,64.911-39.38,1-.629.348-.261.547-.418.755-.7.643-.741.24-.345.283-.421.389-.769.268-.792.074-.387.073-.419s.149-.273.309-.617c.107-.229.277-.662.411-1.016.1-.265.223-.7.323-1.025a14.154,14.154,0,0,0-6.884-15.572c-.268-.149-.551-.433-.84-.577s-.594-.412-.894-.546-.646-.4-.961-.521c-.166-.066-.409-.264-.589-.327s-.458-.255-.653-.316-.506-.245-.712-.3-.559-.236-.781-.292c-.15-.038-.409-.154-.566-.191-14.06-3.349-70.235-1.556-95.3-.027A97.484,97.484,0,0,0,873.547,389.291Z" transform="translate(-830.682 -383.438)" fill="#f1f3fb" opacity="0.188"/>
        <path id="Path_99159" data-name="Path 99159" d="M873.928,390.5c-1.868.4-3.629,1.016-5.3,1.476-1.88.517-3.6,1.251-5.25,1.83-1.907.671-3.6,1.559-5.212,2.292a48.88,48.88,0,0,0-5.17,2.931,37.572,37.572,0,0,0-5,3.826,28,28,0,0,0-4.458,5.035,18.564,18.564,0,0,0-3.035,6.481,5.871,5.871,0,0,0-.235,1.351l1.067,1.948,1.236,1.2,1.1.638,64.115,36.466,1.312.354,1.4.353,1.376.33,1.479.165,1.413.143,1.528,0,1.4-.007,1.57-.253,1.546-.265,1.549-.283,2.1-.417,1.346-.695,1.325-.7,1.28-.7,1.378-.785.824-.473,1.15-.68,64.01-38.718.976-.614.339-.251.532-.407.731-.669.63-.718.238-.335.28-.41.384-.741.27-.767.08-.374.078-.409s.153-.285.3-.6c.1-.211.273-.667.4-.994.093-.245.213-.7.3-1,.922-3.019.089-11.433-6.764-15.244-.248-.138-.51-.457-.777-.589s-.558-.437-.835-.56-.616-.42-.907-.536c-.152-.061-.406-.3-.572-.357s-.461-.288-.64-.345-.514-.277-.7-.331-.571-.266-.776-.318c-.139-.036-.421-.175-.566-.209-12.979-3.091-71.814-.939-96.12.593A81.969,81.969,0,0,0,873.928,390.5Z" transform="translate(-832.043 -383.629)" fill="#edeffa" opacity="0.25"/>
        <path id="Path_99160" data-name="Path 99160" d="M874.308,391.682c-1.712.367-3.325.993-4.857,1.414-1.724.474-3.293,1.208-4.8,1.738-1.748.615-3.277,1.489-4.757,2.161a44.283,44.283,0,0,0-4.707,2.745,34.014,34.014,0,0,0-4.544,3.565,25.371,25.371,0,0,0-4.036,4.671,16.731,16.731,0,0,0-2.722,5.994,4.883,4.883,0,0,0-.2,1.248l1,1.8,1.147,1.109,1.085.631,63.134,35.957,1.286.368,1.369.362,1.356.335,1.454.178,1.4.152,1.5.02,1.392,0,1.546-.227,1.525-.244,1.527-.266,2.027-.394,1.338-.655,1.316-.669,1.271-.67,1.356-.754.816-.46,1.136-.666,63.108-38.056.95-.6.331-.243.518-.4.708-.642.617-.7.236-.323.276-.4.381-.713.273-.742.085-.362.082-.4s.157-.3.293-.589c.091-.194.268-.671.382-.971.085-.224.2-.705.288-.98.845-2.768-.363-11.423-6.646-14.916-.227-.126-.469-.48-.714-.6s-.524-.461-.777-.574-.587-.446-.852-.552c-.14-.055-.4-.332-.556-.386s-.464-.322-.628-.374-.522-.31-.7-.359-.584-.3-.772-.345c-.127-.033-.433-.195-.566-.226-11.9-2.833-73.393-.318-96.941,1.213A69.759,69.759,0,0,0,874.308,391.682Z" transform="translate(-833.404 -383.798)" fill="#e8ebf9" opacity="0.313"/>
        <path id="Path_99161" data-name="Path 99161" d="M874.688,392.843c-1.557.334-3.022.969-4.414,1.353-1.567.431-2.981,1.164-4.351,1.647-1.59.559-2.956,1.419-4.3,2.03a39.633,39.633,0,0,0-4.245,2.561,30.468,30.468,0,0,0-4.087,3.3,22.768,22.768,0,0,0-3.613,4.308,14.951,14.951,0,0,0-2.409,5.506,4.06,4.06,0,0,0-.171,1.145l.93,1.653,1.058,1.019,1.068.625,62.153,35.448,1.26.381,1.343.371,1.337.341,1.43.191,1.381.162,1.482.035,1.381.015,1.522-.2,1.5-.222,1.5-.249,1.958-.372,1.329-.614,1.306-.634L932.3,452l1.334-.723.808-.447,1.123-.652,62.206-37.395.925-.581.322-.234.5-.384.685-.616.6-.673.234-.312.271-.388.377-.684.276-.718.092-.35.086-.386s.162-.31.285-.575c.082-.176.264-.676.367-.949.078-.2.194-.707.271-.957.768-2.516-.815-11.411-6.526-14.587-.206-.114-.428-.5-.651-.613s-.489-.486-.719-.588-.557-.47-.8-.567c-.127-.051-.4-.367-.539-.416s-.466-.356-.615-.4-.53-.342-.689-.387-.6-.327-.767-.371c-.116-.03-.445-.215-.566-.244-10.816-2.576-74.971.307-97.761,1.833C881.9,389.409,876.2,392.519,874.688,392.843Z" transform="translate(-834.764 -383.943)" fill="#e4e7f7" opacity="0.375"/>
        <path id="Path_99162" data-name="Path 99162" d="M875.067,393.982c-1.4.3-2.717.946-3.97,1.291-1.41.388-2.669,1.121-3.9,1.555-1.43.5-2.635,1.35-3.845,1.9a34.778,34.778,0,0,0-3.783,2.375,26.953,26.953,0,0,0-3.629,3.042,20.167,20.167,0,0,0-3.191,3.943,13.185,13.185,0,0,0-2.1,5.02,3.283,3.283,0,0,0-.138,1.041l.861,1.506.969.93,1.05.619,61.173,34.938,1.233.394,1.317.38,1.316.345,1.406.205,1.366.172,1.459.051,1.37.026,1.5-.176,1.481-.2,1.482-.232,1.889-.35,1.321-.575,1.3-.6,1.253-.611,1.312-.692.8-.434,1.109-.638,61.3-36.732.9-.565.313-.226.487-.373.662-.588.592-.65.232-.3.267-.376.374-.656.279-.693.1-.338.091-.375s.166-.324.277-.561c.074-.159.259-.682.352-.927.07-.184.185-.71.253-.935.691-2.264-1.267-11.4-6.407-14.259-.186-.1-.387-.526-.588-.625s-.454-.51-.661-.6-.526-.5-.744-.583c-.114-.046-.4-.4-.523-.445s-.469-.389-.6-.431-.538-.375-.68-.415-.61-.359-.764-.4c-.1-.026-.457-.235-.565-.261-9.734-2.318-76.548.934-98.58,2.453C881.93,390.165,876.43,393.69,875.067,393.982Z" transform="translate(-836.124 -384.067)" fill="#dfe3f6" opacity="0.438"/>
        <path id="Path_99163" data-name="Path 99163" d="M875.445,395.1c-1.245.267-2.413.922-3.527,1.229-1.253.345-2.357,1.078-3.454,1.463-1.271.448-2.313,1.28-3.39,1.769a30.433,30.433,0,0,0-3.322,2.19,23.494,23.494,0,0,0-3.171,2.781,17.639,17.639,0,0,0-2.768,3.58,11.479,11.479,0,0,0-1.783,4.532,2.633,2.633,0,0,0-.106.939l.792,1.358.88.841,1.034.612,60.192,34.429,1.207.407,1.291.389,1.3.351,1.381.218,1.35.182,1.436.067,1.359.037,1.474-.15,1.46-.18,1.46-.215,1.819-.327,1.312-.535,1.288-.563,1.244-.582,1.289-.661.793-.422,1.1-.624,60.4-36.071.873-.548.305-.218.472-.362.639-.561.578-.628.23-.291.263-.365.37-.628.281-.667.1-.326.1-.364s.17-.336.269-.548c.066-.141.254-.686.337-.9.062-.163.175-.712.236-.912.614-2.013-1.719-11.391-6.287-13.932-.166-.091-.347-.549-.525-.637s-.418-.534-.6-.617-.5-.521-.69-.6c-.1-.04-.4-.435-.506-.474s-.472-.422-.591-.46-.547-.408-.673-.443-.621-.389-.759-.424c-.092-.024-.469-.256-.565-.279-8.652-2.061-78.126,1.565-99.4,3.073C881.957,390.9,876.656,394.841,875.445,395.1Z" transform="translate(-837.482 -384.169)" fill="#dbdff5" opacity="0.5"/>
        <path id="Path_99164" data-name="Path 99164" d="M875.821,396.2c-1.09.234-2.109.9-3.084,1.167-1.1.3-2.044,1.034-3,1.372a32.633,32.633,0,0,0-2.934,1.638,25.841,25.841,0,0,0-2.86,2,20.092,20.092,0,0,0-2.713,2.52,15.167,15.167,0,0,0-2.346,3.215,9.815,9.815,0,0,0-1.47,4.045,2.1,2.1,0,0,0-.073.836l.724,1.211.791.75,1.016.607,59.212,33.92,1.18.421,1.265.4,1.277.356,1.356.232,1.334.191,1.413.082,1.348.048,1.451-.125,1.437-.159,1.438-.2,1.75-.3,1.3-.494,1.278-.528,1.235-.552,1.267-.63.785-.409,1.082-.61,59.5-35.409.847-.532.3-.209.457-.35.616-.535.565-.605.229-.279.259-.353.366-.6.285-.643.108-.314.1-.353s.175-.35.262-.535c.057-.123.249-.691.321-.882.055-.143.166-.714.219-.889.538-1.761-2.17-11.381-6.168-13.6-.144-.08-.306-.572-.462-.649s-.383-.559-.545-.631-.466-.546-.635-.614c-.089-.036-.393-.469-.49-.5s-.474-.456-.579-.489-.554-.44-.665-.472-.634-.419-.754-.45c-.081-.02-.48-.276-.565-.3-7.571-1.8-79.7,2.2-100.22,3.693C881.982,391.62,876.88,395.971,875.821,396.2Z" transform="translate(-838.838 -384.252)" fill="#d6dcf4" opacity="0.563"/>
        <path id="Path_99165" data-name="Path 99165" d="M876.2,397.278c-.934.2-1.8.875-2.64,1.105-.94.258-1.733.991-2.556,1.28a27.31,27.31,0,0,0-2.478,1.507,21.6,21.6,0,0,0-2.4,1.819c-1,.6-1.535,1.649-2.255,2.259-.989.839-1.357,2.085-1.924,2.852a8.2,8.2,0,0,0-1.156,3.558,1.608,1.608,0,0,0-.041.733l.655,1.064.7.661,1,.6,58.231,33.41,1.153.435,1.239.407,1.257.362,1.332.245,1.318.2,1.39.1,1.337.058,1.427-.1,1.416-.138,1.416-.181,1.68-.282,1.295-.454,1.268-.493,1.225-.523,1.245-.6.777-.4,1.069-.6,58.6-34.747.821-.516.288-.2.443-.339.592-.508.552-.582.227-.268.255-.342.362-.572.287-.618.115-.3.1-.342s.179-.362.253-.52c.049-.106.244-.7.306-.86.047-.123.156-.717.2-.867.461-1.51-2.622-11.37-6.049-13.276-.124-.069-.265-.6-.4-.661s-.348-.584-.486-.645-.436-.572-.582-.629c-.076-.031-.39-.5-.473-.534s-.477-.489-.566-.517-.563-.473-.658-.5-.647-.451-.75-.477c-.069-.018-.492-.3-.565-.314-6.49-1.546-81.281,2.835-101.04,4.313C882.005,392.322,877.1,397.084,876.2,397.278Z" transform="translate(-840.193 -384.317)" fill="#d2d8f2" opacity="0.625"/>
        <path id="Path_99166" data-name="Path 99166" d="M876.567,398.341c-.779.167-1.5.851-2.2,1.043-.783.215-1.421.948-2.106,1.189-.795.279-1.35,1.071-2.023,1.376-.813.369-1.285,1.242-1.936,1.635-.83.5-1.2,1.489-1.8,2-.824.7-1.029,1.849-1.5,2.487a6.7,6.7,0,0,0-.843,3.071,1.214,1.214,0,0,0-.008.629l.587.916.612.572.982.595,57.251,32.9,1.127.448,1.213.416,1.238.367,1.307.258,1.3.211,1.367.113,1.326.07,1.4-.073,1.394-.117,1.393-.164,1.612-.259,1.286-.414,1.259-.458,1.216-.494,1.223-.568.77-.384,1.055-.582,57.7-34.085.8-.5.279-.191.428-.328.569-.481.539-.56.224-.258.251-.33.359-.543.29-.593.12-.289.108-.331s.183-.375.245-.507c.041-.088.24-.7.291-.838.039-.1.147-.72.185-.844.384-1.258-3.073-11.359-5.929-12.948-.1-.057-.224-.618-.336-.673s-.313-.608-.428-.659-.406-.6-.527-.644c-.064-.026-.387-.538-.457-.563s-.48-.523-.554-.546-.57-.505-.65-.528-.66-.481-.745-.5c-.058-.014-.5-.316-.564-.331-5.408-1.288-82.859,3.474-101.861,4.933C882.027,393.008,877.324,398.179,876.567,398.341Z" transform="translate(-841.545 -384.364)" fill="#cdd4f1" opacity="0.688"/>
        <path id="Path_99167" data-name="Path 99167" d="M876.937,399.389c-.623.134-1.2.828-1.754.981-.627.172-1.109.9-1.657,1.1-.636.224-1.03,1-1.567,1.246-.651.3-.953,1.135-1.474,1.449-.665.4-.859,1.33-1.339,1.736-.659.56-.7,1.613-1.079,2.124-.658.89-.4,2.131-.529,2.584a.9.9,0,0,0,.023.526l.518.77.523.481.965.588,56.27,32.391,1.1.461,1.187.425,1.218.372,1.283.272,1.286.22,1.344.129,1.316.081,1.378-.048,1.372-.1,1.371-.147,1.542-.237,1.277-.374,1.25-.422,1.207-.465,1.2-.537.762-.371,1.041-.568,56.8-33.423.77-.484.271-.183.413-.316.546-.454.526-.537.222-.247.248-.319.354-.515.293-.569.126-.277.112-.32s.188-.388.238-.494c.032-.07.235-.706.277-.815.031-.082.136-.722.167-.822.307-1.007-3.526-11.349-5.81-12.62-.083-.046-.184-.641-.273-.685s-.277-.632-.369-.673-.377-.622-.474-.661c-.051-.02-.385-.572-.44-.592s-.481-.557-.541-.575-.579-.538-.642-.556-.673-.511-.741-.529c-.047-.012-.516-.337-.564-.348-4.327-1.031-84.436,4.114-102.681,5.553C882.046,393.681,877.542,399.259,876.937,399.389Z" transform="translate(-842.895 -384.396)" fill="#c9d0f0" opacity="0.75"/>
        <path id="Path_99168" data-name="Path 99168" d="M877.284,400.422c-.467.1-.893.8-1.31.919-.47.129-.8.861-1.209,1.005-.477.168-.708.931-1.111,1.115-.488.222-.621,1.028-1.012,1.264-.5.3-.521,1.17-.881,1.475-.495.42-.374,1.377-.657,1.76-.493.667-.123,1.756-.217,2.1a.646.646,0,0,0,.057.423l.449.622.434.392.948.582,55.29,31.882,1.074.475,1.161.434,1.2.377,1.259.285,1.27.23,1.321.144,1.305.091,1.354-.022,1.351-.074,1.348-.13,1.473-.214,1.268-.333,1.24-.388,1.2-.436,1.179-.506.755-.359,1.027-.554,55.895-32.761.744-.468.262-.174.4-.3.523-.428.514-.515.22-.235.244-.307.351-.487.3-.543.131-.266.117-.309s.192-.4.229-.48c.025-.053.23-.711.262-.793.023-.061.127-.724.15-.8.23-.754-3.977-11.338-5.691-12.291-.061-.034-.142-.664-.209-.7s-.243-.656-.312-.688-.346-.647-.419-.676c-.039-.016-.382-.607-.424-.622s-.484-.59-.529-.6-.586-.57-.634-.584-.685-.542-.737-.555c-.034-.009-.528-.357-.564-.366-3.245-.773-86.012,4.757-103.5,6.173C882.044,394.343,877.739,400.324,877.284,400.422Z" transform="translate(-844.223 -384.413)" fill="#c4ccef" opacity="0.813"/>
        <path id="Path_99169" data-name="Path 99169" d="M877.534,401.442c-.311.067-.589.78-.867.857-.313.086-.486.817-.76.914-.318.111-.387.862-.656.984-.326.148-.289.922-.55,1.079-.332.2-.183,1.01-.423,1.214-.33.28-.046,1.141-.235,1.4-.329.445.159,1.383.1,1.609a.47.47,0,0,0,.088.319l.38.475.345.3.931.576,54.309,31.373,1.048.488,1.134.443,1.179.383,1.234.3,1.255.24,1.3.159,1.294.1,1.331,0,1.329-.053,1.326-.113,1.4-.191,1.26-.294,1.23-.352,1.189-.406,1.156-.475.747-.346,1.014-.54,54.993-32.1.718-.451.254-.166.383-.294.5-.4.5-.492.218-.224.24-.3.347-.459.3-.518.138-.253.12-.3s.2-.413.222-.466c.016-.035.226-.716.247-.77s.118-.727.133-.777c.153-.5-4.429-11.328-5.572-11.964-.041-.023-.1-.687-.146-.709s-.208-.681-.253-.7-.316-.672-.365-.692c-.025-.01-.379-.641-.407-.65s-.486-.623-.516-.633-.595-.6-.627-.612-.7-.573-.732-.582-.54-.378-.564-.383c-2.163-.515-87.589,5.4-104.321,6.793C881.943,394.994,877.837,401.377,877.534,401.442Z" transform="translate(-845.453 -384.418)" fill="#c0c8ed" opacity="0.875"/>
        <path id="Path_99170" data-name="Path 99170" d="M877.583,402.449c-.156.034-.285.758-.424.8-.156.043-.173.774-.311.822-.159.056-.065.792-.2.854-.162.073.042.815-.088.893-.166.1.155.851.035.952-.165.14.282.9.188,1.032-.164.223.441,1.008.41,1.122-.019.07.121.217.121.217l.312.327.255.213.914.569,53.328,30.863,1.022.5,1.108.452,1.158.388,1.21.312,1.238.25,1.275.175,1.283.113,1.307.03,1.307-.032,1.3-.1,1.335-.168,1.251-.253,1.221-.317,1.18-.377,1.134-.444.739-.333,1-.526,54.091-31.437.692-.435.245-.158.369-.282.476-.374.487-.47.217-.214.235-.285.344-.43.3-.493.143-.241.125-.286.214-.453c.008-.017.221-.72.232-.748s.108-.729.116-.754c.077-.251-4.88-11.318-5.451-11.635-.021-.011-.062-.711-.084-.722s-.173-.706-.2-.716-.286-.7-.311-.707-.376-.675-.391-.68-.489-.657-.5-.662-.6-.636-.619-.64-.71-.6-.727-.608-.552-.4-.564-.4c-1.081-.257-89.163,6.065-105.141,7.413C881.643,395.652,877.734,402.417,877.583,402.449Z" transform="translate(-846.481 -384.41)" fill="#bbc4ec" opacity="0.938"/>
        <path id="Path_99171" data-name="Path 99171" d="M895.592,394.933c-15.22,1.339-18.93,8.514-18.93,8.514l.019.734.138.73.256.723.374.709.493.691.61.668.723.635.563.417.9.564,52.348,30.354,1,.515,1.082.461,1.139.393,1.185.325,1.223.259,1.251.191,1.272.124,1.283.056,1.285-.011,1.281-.079,1.266-.146,1.243-.213,1.212-.282,1.171-.348,1.112-.413.731-.321.987-.511,53.19-30.776.9-.567.807-.618.69-.65.571-.676.453-.7.335-.714.217-.726.1-.732-5.333-11.307-.02-.734-.137-.73-.256-.723-.374-.71-.492-.69-.611-.668-.723-.635-.564-.418S910.812,393.594,895.592,394.933Z" transform="translate(-846.541 -384.392)" fill="#b7c0eb"/>
      </g>
      <path id="Path_99172" data-name="Path 99172" d="M880.047,353.794l-.792.614-.677.645-.561.672-.444.693-.329.71-.212.721-.1.727v31.376l.019.729.136.726.251.718.367.7.484.687.6.663.71.63.553.415.88.559,52.948,30.569.977.512,1.062.457,1.118.391,1.163.323,1.2.257,1.229.189,1.249.123,1.26.056,1.262-.011,1.257-.079,1.243-.145,1.22-.212,1.19-.279,1.15-.346,1.092-.41.718-.319.969-.508,52.948-30.57.886-.564.792-.614.677-.645.56-.672.445-.693.329-.71.212-.721.1-.727V359.06l-.02-.728-.135-.725-.251-.718-.367-.7-.483-.687-.6-.663-.71-.63-.553-.415Z" transform="translate(-846.65 -319.567)" fill="#b7c0eb"/>
      <path id="Path_99173" data-name="Path 99173" d="M1010.184,362.229l-.1.728-.212.721-.329.71-.445.693-.56.672-.677.646-.792.613-.887.564-52.948,30.57-.969.508-.718.32-1.092.409-1.15.347-1.189.279-1.22.212-1.243.145-1.257.078-1.262.011-1.26-.056-1.249-.122-1.229-.19-1.2-.257-1.163-.324-1.118-.391-1.062-.458-.977-.512-52.948-30.569-.88-.559-.553-.414-.71-.63-.6-.664-.484-.686-.367-.7-.251-.718-.135-.726-.019-.728Z" transform="translate(-846.65 -322.736)" fill="url(#linear-gradient-9)"/>
      <path id="Path_99174" data-name="Path 99174" d="M880.933,351.958l-.886.564-.792.614-.677.645-.561.672-.444.693-.329.71-.212.721-.1.727v31.376l.019.728.136.726.251.718.367.7.484.687.6.664.71.63.553.414.88.559,52.948,30.569.977.512,1.062.457,1.118.391,1.163.323,1.2.258,1.229.189,1.249.123,1.26.056,1.262-.011,1.257-.078,1.243-.145,1.22-.212,1.19-.279,1.15-.346,1.092-.41.718-.319.969-.508,52.948-30.57.886-.564.792-.614.677-.645.56-.671.445-.693.329-.71.212-.721.1-.727V357.789l-.02-.729-.135-.725-.251-.718-.367-.7-.483-.686-.6-.664-.71-.631-.553-.415-1.178-.7Z" transform="translate(-846.65 -318.783)" fill="url(#linear-gradient-10)"/>
      <path id="Path_99175" data-name="Path 99175" d="M1008.482,338.945l-.615.587-.72.558-.826.525L952.7,371.507l-.91.477-.638.284-1,.375-1.044.315-1.08.253-1.109.193-1.13.132-1.142.071-1.147.01-1.145-.051-1.135-.111-1.117-.172-1.09-.233-1.057-.294-1.015-.355-.967-.416-.909-.477-53.669-30.892-.825-.525-.492-.369-.649-.577-.545-.6-.439-.623-.334-.64-.229-.652-.122-.659-.017-.663.087-.661.194-.655.3-.645.4-.63.509-.61.615-.587.72-.558.825-.525,53.669-30.2.909-.477.639-.284,1-.375,1.044-.314,1.08-.254,1.109-.193,1.129-.132,1.142-.071,1.148-.01,1.144.051,1.135.111,1.116.172,1.091.233,1.057.294,1.015.355.966.416.91.477,53.624,30.2.826.525.492.369.649.578.545.6.439.623.333.64.228.652.123.66.018.662-.088.661-.193.656-.3.644-.4.63-.509.61Z" transform="translate(-846.971 -297.394)" fill="#d2d7f6"/>
      <path id="Path_99176" data-name="Path 99176" d="M1008.269,338.076l-.614.586-.72.558-.826.525L953.2,370.292l-.91.477-.638.284-1,.375-1.044.314-1.08.253-1.109.193-1.13.132-1.142.071L944,372.4l-1.145-.051-1.135-.112-1.117-.172-1.09-.233-1.057-.294-1.015-.355-.966-.416-.909-.477-52.905-30.545-.826-.525-.492-.369-.65-.577-.545-.6-.439-.623-.334-.64-.229-.652-.122-.659-.018-.663.087-.661.193-.655.3-.645.4-.63.51-.61.615-.587.72-.558.826-.525,52.905-30.545.909-.477.639-.284,1-.376,1.044-.314,1.08-.254,1.109-.193,1.129-.132,1.142-.071,1.148-.01,1.144.051,1.135.111,1.117.172,1.091.233,1.056.294,1.015.355.966.416.91.477,52.906,30.544.826.525.492.369.65.578.545.6.439.623.333.641.228.652.123.66.018.662-.088.661-.193.655-.3.645-.4.63-.51.61Z" transform="translate(-847.477 -296.91)" fill="#fdfcff"/>
      <g id="Group_87288" data-name="Group 87288" transform="translate(41.712 5.236)">
        <path id="Path_99177" data-name="Path 99177" d="M1074.591,356.854v-.066l-.012-.066-.023-.066-.033-.064-.044-.063-.055-.06-.064-.057-.049-.037-.082-.053-1.769-1.02-.09-.047-.1-.042-.1-.036-.105-.029-.108-.023-.112-.017-.113-.011-.114-.005h-.114l-.114.008-.113.013-.11.019-.108.025-.1.032-.1.037-.064.029-.09.047-1.769,1.02-.082.053-.072.055-.061.058-.052.061-.04.063-.029.064-.02.065-.008.128v.753l0,.066.012.067.023.064.033.064.044.063.054.06.064.058.049.037.082.052,1.769,1.021.09.048.1.041.1.035.105.029.109.023.111.018.113.011.114,0h.115l.113-.007.113-.013.111-.019.108-.026.1-.031.1-.038.064-.028.09-.048,1.769-1.021.082-.052.072-.056.061-.058.052-.061.04-.064.029-.063.019-.065.009-.066,0-.764Z" transform="translate(-964.696 -325.322)" fill="#b7c0eb"/>
        <path id="Path_99178" data-name="Path 99178" d="M1074.591,356.7v-.066l-.012-.066-.023-.065-.033-.064-.044-.062-.055-.06-.064-.057-.049-.037-.082-.052-1.769-1.021-.09-.048-.1-.041-.1-.036-.105-.029-.108-.024-.112-.017-.113-.011-.114,0h-.114l-.114.007-.113.013-.11.02-.108.025-.1.031-.1.037-.064.029-.09.048-1.769,1.021-.082.052-.072.056-.061.058-.052.061-.04.063-.029.065-.02.065-.008.127v.753l0,.066.012.066.023.064.033.064.044.063.054.06.064.058.049.036.082.052,1.769,1.021.09.048.1.041.1.035.105.029.109.023.111.017.113.011.114,0h.115l.113-.007.113-.013.111-.019.108-.026.1-.031.1-.037.064-.028.09-.048,1.769-1.021.082-.052.072-.056.061-.058.052-.061.04-.063.029-.064.019-.065.009-.066,0-.763Z" transform="translate(-964.696 -325.259)" fill="url(#linear-gradient-11)"/>
        <path id="Path_99179" data-name="Path 99179" d="M1074.534,356.892l-.04.063-.052.061-.061.059-.072.056-.082.052-1.769,1.021-.09.048-.064.027-.1.038-.1.031-.108.026-.111.019-.113.013-.114.007-.115,0-.114-.005-.113-.011-.111-.017-.109-.023-.105-.029-.1-.035-.1-.041-.09-.048-1.769-1.021-.082-.052-.049-.037-.064-.058-.054-.06-.044-.062-.033-.063-.023-.065-.012-.066,0-.066.008-.066.02-.065.029-.065.04-.063.051-.061.061-.058.072-.056.082-.053,1.769-1.021.09-.048.064-.029.1-.037.1-.031.108-.025.111-.019.113-.013.114-.007h.114l.115.005.113.011.112.017.108.023.106.029.1.035.1.042.09.048,1.769,1.021.082.053.049.036.065.057.054.06.044.062.033.064.023.065.013.066v.066l-.009.066-.019.065-.029.064Z" transform="translate(-964.696 -325.259)" fill="#eff1fe"/>
        <path id="Path_99180" data-name="Path 99180" d="M989.3,307.53v-.066l-.013-.066-.023-.065-.033-.064-.044-.063-.055-.06-.064-.057-.049-.037-.082-.052-1.77-1.02-.09-.048-.1-.042-.1-.036-.106-.029-.108-.024-.112-.016-.113-.011-.114-.005h-.114l-.114.008-.113.013-.111.019-.108.025-.1.032-.1.037-.064.028-.09.048L983.637,307l-.082.052-.072.056-.061.058-.052.061-.04.063-.029.065-.02.065-.008.127v.753l0,.066.013.066.023.064.032.064.044.063.055.06.064.058.049.036.082.053,1.769,1.021.09.048.1.041.1.035.106.029.108.023.111.017.113.011.114,0h.114l.114-.007.113-.013.11-.019.108-.026.1-.032.1-.037.064-.028.09-.048,1.77-1.021.082-.053.071-.055.061-.058.052-.061.04-.064.029-.063.019-.066.009-.066,0-.764Z" transform="translate(-930.72 -305.675)" fill="#b7c0eb"/>
        <path id="Path_99181" data-name="Path 99181" d="M989.3,307.373v-.066l-.013-.066-.023-.065-.033-.064-.044-.062-.055-.06-.064-.057-.049-.037-.082-.053-1.77-1.02-.09-.048-.1-.042-.1-.035-.106-.029-.108-.024-.112-.017-.113-.011-.114-.005h-.114l-.114.007-.113.013-.111.02-.108.024-.1.032-.1.037-.064.029-.09.048-1.769,1.02-.082.053-.072.056-.061.058-.052.061-.04.063-.029.064-.02.065-.008.128v.753l0,.066.013.066.023.064.032.064.044.062.055.06.064.058.049.036.082.052,1.769,1.021.09.048.1.041.1.035.106.03.108.023.111.017.113.011.114.005.114,0,.114-.007.113-.013.11-.019.108-.026.1-.031.1-.038.064-.027.09-.048,1.77-1.021.082-.052.071-.056.061-.058.052-.061.04-.063.029-.064.019-.065.009-.066,0-.764Z" transform="translate(-930.72 -305.612)" fill="url(#linear-gradient-12)"/>
        <path id="Path_99182" data-name="Path 99182" d="M989.24,307.568l-.04.063-.052.061-.061.059-.072.056-.082.052-1.769,1.021-.09.048-.064.027-.1.038-.1.031-.108.026-.111.019-.113.013-.114.007-.114,0-.114-.005-.113-.011-.111-.017-.109-.023-.106-.03-.1-.035-.1-.041-.09-.048-1.769-1.021-.082-.052-.049-.036-.064-.058-.054-.06-.044-.062-.033-.064-.023-.065-.013-.065,0-.066.008-.066.02-.065.029-.064.04-.063.051-.061.061-.058.072-.056.082-.053,1.769-1.021.09-.048.064-.029.1-.037.1-.031.108-.025.111-.019.113-.013.114-.007h.114l.115.005.113.011.112.017.109.023.106.029.1.035.1.042.09.048,1.769,1.021.082.053.049.036.065.057.054.06.044.062.033.064.023.065.013.066v.066l-.009.066-.019.065-.029.064Z" transform="translate(-930.721 -305.612)" fill="#eff1fe"/>
        <path id="Path_99183" data-name="Path 99183" d="M901.951,357.917v-.066l-.013-.066-.022-.065-.033-.064-.044-.062-.055-.06-.064-.057-.049-.037-.082-.052-1.769-1.021-.09-.048-.1-.042-.1-.035-.105-.029-.109-.024-.111-.017-.113-.011-.114-.005h-.114l-.114.008-.113.013-.111.02-.107.024-.1.032-.1.037-.063.029-.09.048-1.769,1.021-.082.052-.072.056-.061.058-.051.061-.04.063-.029.064-.02.065-.008.128v.753l0,.066.012.066.023.064.033.064.044.062.054.06.064.058.049.036.082.052,1.769,1.021.09.048.1.041.1.035.105.03.109.023.111.018.113.011.114,0h.114l.114-.007.113-.013.111-.019.108-.026.1-.031.1-.038.064-.027.09-.048,1.769-1.021.082-.052.072-.056.061-.058.052-.061.04-.064.029-.064.019-.065.008-.066,0-.764Z" transform="translate(-895.928 -325.745)" fill="#b7c0eb"/>
        <path id="Path_99184" data-name="Path 99184" d="M901.951,357.76v-.066l-.013-.066-.022-.066-.033-.064-.044-.062-.055-.061-.064-.057-.049-.036-.082-.053-1.769-1.02-.09-.048-.1-.042-.1-.036-.105-.029-.109-.023-.111-.017-.113-.011-.114-.005h-.114l-.114.008-.113.013-.111.019-.107.025-.1.032-.1.037-.063.028-.09.048-1.769,1.02-.082.053-.072.056-.061.058-.051.061-.04.063-.029.064-.02.065-.008.127v.754l0,.066.012.066.023.064.033.064.044.063.054.06.064.058.049.037.082.052,1.769,1.02.09.048.1.041.1.035.105.029.109.024.111.017.113.011.114,0h.114l.114-.007.113-.013.111-.019.108-.025.1-.032.1-.037.064-.028.09-.048,1.769-1.02.082-.052.072-.056.061-.058.052-.061.04-.064.029-.064.019-.065.008-.066,0-.764Z" transform="translate(-895.928 -325.683)" fill="url(#linear-gradient-13)"/>
        <path id="Path_99185" data-name="Path 99185" d="M901.895,357.955l-.04.063-.051.061-.061.059-.072.056-.082.052-1.769,1.021-.09.048-.064.027-.1.038-.1.031-.108.026-.111.019-.113.013-.114.007-.114,0-.114-.005-.113-.011-.111-.017-.109-.023-.106-.029-.1-.035-.1-.041-.09-.048-1.769-1.021-.082-.052-.049-.037-.064-.058-.054-.06-.044-.062-.033-.064-.023-.065-.013-.065v-.066l.008-.066.02-.065.029-.065.04-.063.051-.061.061-.058.072-.055.082-.053,1.769-1.021.09-.048.064-.029.1-.037.1-.031.108-.025.111-.019.113-.013.114-.007h.114l.115.005.113.011.112.017.108.023.106.029.1.035.1.042.09.048,1.769,1.021.082.053.049.036.065.057.054.06.044.062.033.064.023.065.013.066v.066l-.009.066-.019.065-.029.064Z" transform="translate(-895.928 -325.683)" fill="#eff1fe"/>
        <path id="Path_99186" data-name="Path 99186" d="M987.245,407.363V407.3l-.013-.066-.022-.065-.033-.064-.044-.062-.055-.06-.064-.057-.049-.037-.083-.052-1.769-1.021-.09-.048-.1-.042-.1-.035-.105-.029-.109-.024-.111-.017-.113-.01-.114-.005h-.114l-.114.008-.113.013-.111.019-.108.025-.1.032-.1.037-.063.028-.09.048-1.769,1.02-.083.052-.072.056-.061.058-.051.061-.04.063-.029.064-.02.066-.008.127v.753l0,.066.013.066.022.064.033.064.044.063.054.06.065.058.049.036.083.053,1.769,1.02.09.048.1.041.1.035.105.03.109.023.111.017.113.011.114,0h.114l.114-.007.113-.013.111-.019.108-.026.1-.032.1-.037.064-.028.09-.048,1.769-1.021.083-.052.072-.055.061-.058.052-.061.04-.064.029-.064.019-.065.008-.066,0-.763Z" transform="translate(-929.904 -345.441)" fill="#b7c0eb"/>
        <path id="Path_99187" data-name="Path 99187" d="M987.245,407.205v-.066l-.013-.066-.022-.065-.033-.064-.044-.062-.055-.06-.064-.057-.049-.037-.083-.053-1.769-1.02-.09-.048-.1-.042-.1-.035-.105-.029-.109-.023-.111-.017-.113-.011-.114-.005h-.114l-.114.007-.113.013-.111.019-.108.025-.1.032-.1.037-.063.029-.09.048-1.769,1.02-.083.053-.072.056-.061.058-.051.061-.04.063-.029.064-.02.065-.008.128v.753l0,.066.013.067.022.064.033.064.044.063.054.06.065.058.049.036.083.052,1.769,1.021.09.047.1.041.1.035.105.029.109.023.111.017.113.011.114.005.114,0,.114-.007.113-.013.111-.019.108-.026.1-.031.1-.038.064-.028.09-.047,1.769-1.021.083-.052.072-.056.061-.058.052-.061.04-.063.029-.064.019-.065.008-.066,0-.764Z" transform="translate(-929.904 -345.378)" fill="url(#linear-gradient-14)"/>
        <path id="Path_99188" data-name="Path 99188" d="M987.189,407.4l-.04.063-.052.061-.061.059-.072.056-.082.052-1.769,1.021-.09.048-.064.028-.1.038-.1.031-.108.026-.111.019-.113.013-.114.007-.115,0-.114-.005-.113-.011-.111-.017-.109-.023-.106-.029-.1-.035-.1-.041-.09-.048-1.769-1.021-.082-.052-.049-.036-.064-.058-.054-.06-.044-.062-.033-.063-.023-.065-.013-.065v-.066l.008-.066.02-.065.029-.064.04-.063.051-.061.061-.058.072-.055.082-.053,1.769-1.021.09-.048.064-.029.1-.037.1-.031.108-.025.111-.019.113-.013.114-.007h.114l.115.005.113.011.112.017.109.023.106.029.1.035.1.042.09.048,1.769,1.021.082.053.049.036.065.057.054.06.044.062.033.064.023.065.012.066v.066l-.009.066-.019.065-.029.064Z" transform="translate(-929.904 -345.379)" fill="#eff1fe"/>
      </g>
    </g>
    <ellipse id="Ellipse_14119" data-name="Ellipse 14119" cx="38.5" cy="13.5" rx="38.5" ry="13.5" transform="translate(654.614 3962.458) rotate(-19)" fill="#13100d" opacity="0.07"/>
    <g id="Group_88733" data-name="Group 88733" transform="matrix(0.985, 0.174, -0.174, 0.985, 622.443, 3847.46)">
      <g id="Group_88538" data-name="Group 88538">
        <g id="Group_88537-2" data-name="Group 88537" clip-path="url(#clip-path)">
          <path id="Path_104693" data-name="Path 104693" d="M133,52.027c-.608-.338-1.648-1.272-2.255-.462-.757,1.009-.893,2.63-1.131,3.822a.719.719,0,0,1-.384-.738q-3.8,15.419-7.624,30.833-1.1,4.411-2.2,8.817c-.37,1.463-1.012,3.029-.857,4.56a9.368,9.368,0,0,0,1.113,3.665,7.625,7.625,0,0,0,2.792,3.031c-.426-.235,5.818,3.366,7.477,1.887,1.915-1.706.524-4.759.773-6.814q1.067-8.787,2.135-17.573,1.074-8.826,2.147-17.655l.516-4.254a22.538,22.538,0,0,0,.393-3.991,6.33,6.33,0,0,0-2.9-5.127c-.37-.206,2.029,1.123,0,0" transform="translate(-24.929 -10.778)" fill="#eff1fe"/>
        </g>
      </g>
      <g id="Group_88540" data-name="Group 88540" transform="translate(98.051 36.21)">
        <g id="Group_88539" data-name="Group 88539" clip-path="url(#clip-path-2)">
          <rect id="Rectangle_3077" data-name="Rectangle 3077" width="64.369" height="49.888" transform="translate(-26.675 46.202) rotate(-60)" fill="url(#linear-gradient-15)"/>
        </g>
      </g>
      <g id="Group_88542" data-name="Group 88542" transform="translate(97.202 72.475)">
        <g id="Group_88541" data-name="Group 88541" clip-path="url(#clip-path-3)">
          <rect id="Rectangle_3078" data-name="Rectangle 3078" width="6.14" height="5.973" transform="matrix(0.643, -0.766, 0.766, 0.643, -2.454, 2.92)" fill="url(#linear-gradient-16)"/>
        </g>
      </g>
      <g id="Group_88544" data-name="Group 88544" transform="translate(97.73 71.108)">
        <g id="Group_88543" data-name="Group 88543" clip-path="url(#clip-path-4)">
          <rect id="Rectangle_3079" data-name="Rectangle 3079" width="7.84" height="7.687" transform="translate(-2.552 4.42) rotate(-60.001)" fill="url(#linear-gradient-17)"/>
        </g>
      </g>
      <g id="Group_88546" data-name="Group 88546" transform="translate(91.574 5.598)">
        <g id="Group_88545" data-name="Group 88545" clip-path="url(#clip-path-5)">
          <rect id="Rectangle_3080" data-name="Rectangle 3080" width="60.629" height="59.757" transform="translate(-19.596 33.942) rotate(-60)" fill="url(#linear-gradient-18)"/>
        </g>
      </g>
      <g id="Group_88548" data-name="Group 88548" transform="translate(62.333)">
        <g id="Group_88547" data-name="Group 88547" clip-path="url(#clip-path-6)">
          <rect id="Rectangle_3081" data-name="Rectangle 3081" width="98.087" height="96.717" transform="translate(-31.686 54.882) rotate(-60)" fill="url(#linear-gradient-19)"/>
        </g>
      </g>
      <g id="Group_88550" data-name="Group 88550" transform="translate(27.431 11.595)">
        <g id="Group_88549" data-name="Group 88549" clip-path="url(#clip-path-7)">
          <rect id="Rectangle_3082" data-name="Rectangle 3082" width="82.143" height="94.966" transform="translate(0 0)" fill="url(#linear-gradient-20)"/>
        </g>
      </g>
      <g id="Group_88552" data-name="Group 88552">
        <g id="Group_88551" data-name="Group 88551" clip-path="url(#clip-path)">
          <path id="Path_104700" data-name="Path 104700" d="M68.7,117.315a20.319,20.319,0,0,0,8.366-10.041c3.273-7.917,3.424-17.837.447-29.485a88.994,88.994,0,0,0-13.069-28.2,72.937,72.937,0,0,0-21.9-21.336c-6.008-3.626-12.3-5.624-17.708-5.624a19.044,19.044,0,0,0-9.687,2.5l-.573-.961,4.98-2.893c.512-.3,1.023-.612,1.541-.929a30.639,30.639,0,0,1,4.252-2.309,22.955,22.955,0,0,1,8.8-1.759,24.087,24.087,0,0,1,4.071.352A35.177,35.177,0,0,1,44.174,18.2a30.434,30.434,0,0,1,5.951,2.7,44.179,44.179,0,0,1,7.556,4.936l.253.19A61.3,61.3,0,0,1,65.5,32.829a92.941,92.941,0,0,1,17,25.058c4.518,9.819,6.938,19.376,7.2,28.409l.013.449,0,0c.137,6.572-.922,18.125-9.1,24.686-1.492,1.2-10.649,6.58-10.649,6.58Z" transform="translate(-3.065 -3.424)" fill="#fff"/>
        </g>
      </g>
      <g id="Group_88554" data-name="Group 88554" transform="translate(11.788 13.414)">
        <g id="Group_88553" data-name="Group 88553" clip-path="url(#clip-path-9)">
          <rect id="Rectangle_3084" data-name="Rectangle 3084" width="90.921" height="112.368" transform="matrix(0.985, -0.174, 0.174, 0.985, -17.265, 3.044)" fill="url(#linear-gradient-21)"/>
        </g>
      </g>
      <g id="Group_88556" data-name="Group 88556">
        <g id="Group_88555" data-name="Group 88555" clip-path="url(#clip-path)">
          <path id="Path_104702" data-name="Path 104702" d="M55.875,122.391c-5.467,0-11.342-1.793-17.464-5.326C17.16,104.8-.07,74.951,0,50.531.047,33.429,8.414,22.8,21.833,22.8,27.3,22.8,33.178,24.6,39.3,28.129,60.548,40.4,77.776,70.242,77.707,94.66c-.047,17.1-8.413,27.732-21.832,27.732" transform="translate(0 -4.796)" fill="#fff"/>
          <path id="Path_104703" data-name="Path 104703" d="M39.27,29.538C60.123,41.575,76.969,70.762,76.9,94.725s-17.025,33.628-37.877,21.589S1.32,75.087,1.388,51.124,18.417,17.5,39.27,29.538" transform="translate(-0.292 -5.123)" fill="#eff1fe"/>
          <path id="Path_104704" data-name="Path 104704" d="M57.753,117.218c-4.154,0-8.975-1.513-13.938-4.381C24.842,101.884,8.867,74.221,8.929,52.431c.036-12.961,5.562-20.7,14.783-20.7,4.154,0,8.975,1.515,13.942,4.383,18.968,10.951,34.944,38.613,34.88,60.4-.036,12.961-5.561,20.7-14.78,20.7" transform="translate(-1.878 -6.674)" fill="url(#linear-gradient-22)"/>
        </g>
      </g>
      <g id="Group_88558" data-name="Group 88558" transform="translate(11.788 25.057)">
        <g id="Group_88557" data-name="Group 88557" clip-path="url(#clip-path-11)">
          <rect id="Rectangle_3086" data-name="Rectangle 3086" width="80.641" height="96.489" transform="matrix(0.956, -0.292, 0.292, 0.956, -23.229, 7.083)" fill="url(#linear-gradient-23)"/>
        </g>
      </g>
      <g id="Group_88560" data-name="Group 88560" transform="translate(7.051 25.057)">
        <g id="Group_88559" data-name="Group 88559" clip-path="url(#clip-path-12)">
          <path id="Path_104706" data-name="Path 104706" d="M54.252,67.784c4.249,2.453,7.7,8.422,7.68,13.3s-3.48,6.861-7.73,4.407a16.95,16.95,0,0,1-7.682-13.3c.015-4.883,3.482-6.859,7.732-4.408" transform="translate(-16.835 -39.093)" fill="#eff1fe"/>
          <path id="Path_104707" data-name="Path 104707" d="M57.355,85.95a5.2,5.2,0,0,1-2.491-.8,15.051,15.051,0,0,1-6.72-11.633c0-1.067.238-3.543,2.357-3.543a5.166,5.166,0,0,1,2.491.8,15.044,15.044,0,0,1,6.718,11.631c0,1.065-.239,3.542-2.356,3.542" transform="translate(-17.177 -39.776)" fill="#b89535"/>
        </g>
      </g>
      <g id="Group_88562" data-name="Group 88562" transform="translate(38.986 44.984)">
        <g id="Group_88561" data-name="Group 88561" clip-path="url(#clip-path-13)">
          <rect id="Rectangle_3087" data-name="Rectangle 3087" width="35.549" height="36.116" transform="translate(-11.694 6.752) rotate(-30)" fill="url(#linear-gradient-24)"/>
        </g>
      </g>
      <g id="Group_88564" data-name="Group 88564" transform="translate(46.43 44.23)">
        <g id="Group_88563" data-name="Group 88563" clip-path="url(#clip-path-14)">
          <rect id="Rectangle_3088" data-name="Rectangle 3088" width="4.577" height="4.375" transform="matrix(0.669, -0.743, 0.743, 0.669, -2.311, 2.5)" fill="url(#linear-gradient-25)"/>
        </g>
      </g>
      <g id="Group_88566" data-name="Group 88566" transform="translate(47.258 44.018)">
        <g id="Group_88565" data-name="Group 88565" clip-path="url(#clip-path-15)">
          <rect id="Rectangle_3089" data-name="Rectangle 3089" width="4.818" height="2.432" transform="matrix(0.208, -0.978, 0.978, 0.208, -0.935, 4.406)" fill="url(#linear-gradient-26)"/>
        </g>
      </g>
      <g id="Group_88568" data-name="Group 88568" transform="translate(36.284 40.813)">
        <g id="Group_88567" data-name="Group 88567" clip-path="url(#clip-path-16)">
          <rect id="Rectangle_3090" data-name="Rectangle 3090" width="5.335" height="3.298" transform="translate(-1.086 4.748) rotate(-78.016)" fill="url(#linear-gradient-27)"/>
        </g>
      </g>
      <g id="Group_88570" data-name="Group 88570" transform="translate(36.568 40.602)">
        <g id="Group_88569" data-name="Group 88569" clip-path="url(#clip-path-17)">
          <rect id="Rectangle_3091" data-name="Rectangle 3091" width="5.54" height="3.533" transform="matrix(0.208, -0.978, 0.978, 0.208, -1.041, 4.906)" fill="url(#linear-gradient-28)"/>
        </g>
      </g>
      <g id="Group_88572" data-name="Group 88572" transform="translate(29.611 49.827)">
        <g id="Group_88571" data-name="Group 88571" clip-path="url(#clip-path-18)">
          <rect id="Rectangle_3092" data-name="Rectangle 3092" width="4.281" height="4.52" transform="matrix(0.951, -0.309, 0.309, 0.951, -1.145, 0.352)" fill="url(#linear-gradient-29)"/>
        </g>
      </g>
      <g id="Group_88574" data-name="Group 88574" transform="translate(29.893 49.613)">
        <g id="Group_88573" data-name="Group 88573" clip-path="url(#clip-path-19)">
          <rect id="Rectangle_3093" data-name="Rectangle 3093" width="4.413" height="4.249" transform="translate(-0.763 3.597) rotate(-78.016)" fill="url(#linear-gradient-30)"/>
        </g>
      </g>
      <g id="Group_88576" data-name="Group 88576" transform="translate(30.901 65.39)">
        <g id="Group_88575" data-name="Group 88575" clip-path="url(#clip-path-20)">
          <rect id="Rectangle_3094" data-name="Rectangle 3094" width="3.437" height="2.74" transform="translate(-0.399 0.046) rotate(-8.029)" fill="url(#linear-gradient-31)"/>
        </g>
      </g>
      <g id="Group_88578" data-name="Group 88578" transform="translate(31.184 65.178)">
        <g id="Group_88577" data-name="Group 88577" clip-path="url(#clip-path-21)">
          <rect id="Rectangle_3095" data-name="Rectangle 3095" width="2.549" height="3.671" transform="translate(-0.385 1.813) rotate(-78.016)" fill="url(#linear-gradient-32)"/>
        </g>
      </g>
      <g id="Group_88580" data-name="Group 88580" transform="translate(39.399 77.121)">
        <g id="Group_88579" data-name="Group 88579" clip-path="url(#clip-path-22)">
          <rect id="Rectangle_3096" data-name="Rectangle 3096" width="4.578" height="4.376" transform="translate(-2.311 2.501) rotate(-48.021)" fill="url(#linear-gradient-33)"/>
        </g>
      </g>
      <g id="Group_88582" data-name="Group 88582" transform="translate(40.227 76.91)">
        <g id="Group_88581" data-name="Group 88581" clip-path="url(#clip-path-23)">
          <rect id="Rectangle_3097" data-name="Rectangle 3097" width="4.819" height="2.434" transform="translate(-0.935 4.407) rotate(-78.016)" fill="url(#linear-gradient-34)"/>
        </g>
      </g>
      <g id="Group_88584" data-name="Group 88584">
        <g id="Group_88583" data-name="Group 88583" clip-path="url(#clip-path)">
          <path id="Path_104720" data-name="Path 104720" d="M64.793,106.247l.647-.212c.006.016.01.032.015.047l-.648.214a.379.379,0,0,0-.014-.049" transform="translate(-13.628 -22.302)" fill="#77e2f1"/>
          <path id="Path_104721" data-name="Path 104721" d="M64.81,106.307l.648-.214c0,.016.008.028.011.043l-.646.212a.325.325,0,0,0-.013-.042" transform="translate(-13.632 -22.315)" fill="#71e1f1"/>
          <path id="Path_104722" data-name="Path 104722" d="M64.827,106.36l.646-.212a.265.265,0,0,1,.009.034l-.646.212a.269.269,0,0,1-.009-.034" transform="translate(-13.635 -22.326)" fill="#6adff0"/>
          <path id="Path_104723" data-name="Path 104723" d="M64.838,106.4l.646-.212c0,.012.006.022.008.034l-.648.212c0-.012,0-.021-.006-.033" transform="translate(-13.637 -22.335)" fill="#61deef"/>
          <path id="Path_104724" data-name="Path 104724" d="M64.846,106.446l.648-.212a.154.154,0,0,0,.006.031l-.648.211c0-.01,0-.021-.006-.03" transform="translate(-13.639 -22.344)" fill="#4cd9ed"/>
          <path id="Path_104725" data-name="Path 104725" d="M64.854,106.485l.648-.211c0,.01,0,.022,0,.032l-.646.212-.006-.033" transform="translate(-13.641 -22.353)" fill="#4ad5e8"/>
          <path id="Path_104726" data-name="Path 104726" d="M64.862,106.527l.646-.212c0,.009,0,.021.006.032l-.648.211c0-.009,0-.021,0-.031" transform="translate(-13.642 -22.361)" fill="#49d0e4"/>
          <path id="Path_104727" data-name="Path 104727" d="M64.867,106.566l.648-.211,0,.032-.646.214c0-.013,0-.023-.006-.035" transform="translate(-13.644 -22.37)" fill="#47ccdf"/>
          <path id="Path_104728" data-name="Path 104728" d="M64.874,106.608l.646-.214c0,.013,0,.023,0,.035l-.648.213c0-.012,0-.024,0-.034" transform="translate(-13.645 -22.378)" fill="#46c8da"/>
          <path id="Path_104729" data-name="Path 104729" d="M64.877,106.652l.647-.214,0,.034-.647.215a.162.162,0,0,0,0-.035" transform="translate(-13.646 -22.387)" fill="#44c3d5"/>
          <path id="Path_104730" data-name="Path 104730" d="M64.881,106.695l.647-.214v.034l-.646.213c0-.012,0-.023,0-.033" transform="translate(-13.646 -22.396)" fill="#43bfd1"/>
          <path id="Path_104731" data-name="Path 104731" d="M64.882,106.737l.647-.213v.035l-.646.212a.239.239,0,0,0,0-.034" transform="translate(-13.647 -22.405)" fill="#41bbcc"/>
          <path id="Path_104732" data-name="Path 104732" d="M64.884,106.78l.647-.212v.033l-.647.212Z" transform="translate(-13.647 -22.414)" fill="#40b6c7"/>
          <path id="Path_104733" data-name="Path 104733" d="M64.884,106.821l.647-.211c0,.009,0,.021,0,.032l-.646.213a.25.25,0,0,1,0-.034" transform="translate(-13.647 -22.423)" fill="#3eb2c2"/>
          <path id="Path_104734" data-name="Path 104734" d="M64.882,106.864l.646-.214a.2.2,0,0,1,0,.032l-.645.212,0-.03" transform="translate(-13.646 -22.432)" fill="#3daebe"/>
          <path id="Path_104735" data-name="Path 104735" d="M64.879,106.9l.646-.212a.119.119,0,0,1,0,.029l-.645.215c0-.011,0-.021,0-.032" transform="translate(-13.645 -22.44)" fill="#3ba9b9"/>
          <path id="Path_104736" data-name="Path 104736" d="M64.875,106.941l.646-.215a.276.276,0,0,0,0,.033l-.647.211c0-.009,0-.02,0-.029" transform="translate(-13.644 -22.448)" fill="#3aa5b4"/>
          <path id="Path_104737" data-name="Path 104737" d="M64.869,106.979l.647-.211,0,.028-.648.212c0-.009,0-.021.006-.03" transform="translate(-13.643 -22.457)" fill="#38a1af"/>
          <path id="Path_104738" data-name="Path 104738" d="M64.863,107.016l.648-.212a.119.119,0,0,0-.006.03l-.648.211c0-.011,0-.019.006-.028" transform="translate(-13.641 -22.464)" fill="#379cab"/>
          <path id="Path_104739" data-name="Path 104739" d="M64.855,107.053l.647-.211a.187.187,0,0,0-.007.028l-.647.212c0-.011,0-.019.007-.029" transform="translate(-13.64 -22.472)" fill="#3598a6"/>
          <path id="Path_104740" data-name="Path 104740" d="M64.846,107.09l.647-.212c0,.008,0,.02-.008.028l-.647.212.008-.029" transform="translate(-13.637 -22.48)" fill="#3494a1"/>
          <path id="Path_104741" data-name="Path 104741" d="M64.836,107.126l.647-.213a.207.207,0,0,1-.009.029l-.646.212c0-.01.006-.019.009-.028" transform="translate(-13.635 -22.487)" fill="#328f9c"/>
          <path id="Path_104742" data-name="Path 104742" d="M64.824,107.162l.646-.212a.2.2,0,0,1-.01.028l-.646.212c0-.01.007-.019.01-.028" transform="translate(-13.632 -22.495)" fill="#318b98"/>
          <path id="Path_104743" data-name="Path 104743" d="M64.81,107.2l.646-.212c0,.009-.007.018-.011.028l-.648.211a.285.285,0,0,0,.013-.027" transform="translate(-13.629 -22.502)" fill="#2f8793"/>
          <path id="Path_104744" data-name="Path 104744" d="M64.793,107.232l.648-.211a.257.257,0,0,1-.016.028l-.647.214a.145.145,0,0,0,.015-.032" transform="translate(-13.625 -22.51)" fill="#2e828e"/>
          <path id="Path_104745" data-name="Path 104745" d="M64.774,107.272l.647-.214c-.006.012-.012.021-.016.03l-.648.212a.267.267,0,0,0,.017-.028" transform="translate(-13.62 -22.518)" fill="#2c7e89"/>
          <path id="Path_104746" data-name="Path 104746" d="M64.751,107.307l.647-.212c-.008.012-.014.022-.023.033l-.645.211a.365.365,0,0,0,.021-.032" transform="translate(-13.615 -22.525)" fill="#2b7a85"/>
          <path id="Path_104747" data-name="Path 104747" d="M64.721,107.348l.645-.211-.032.036-.648.213c.012-.012.023-.024.035-.039" transform="translate(-13.605 -22.534)" fill="#297580"/>
          <path id="Path_104748" data-name="Path 104748" d="M64.653,107.4l.648-.213a.293.293,0,0,1-.13.081l-.646.213a.3.3,0,0,0,.128-.081" transform="translate(-13.572 -22.544)" fill="#28717b"/>
        </g>
      </g>
      <g id="Group_88586" data-name="Group 88586" transform="translate(49.074 80.015)">
        <g id="Group_88585" data-name="Group 88585" clip-path="url(#clip-path-25)">
          <rect id="Rectangle_3099" data-name="Rectangle 3099" width="5.334" height="3.298" transform="translate(-1.086 4.746) rotate(-78.016)" fill="url(#linear-gradient-35)"/>
        </g>
      </g>
      <g id="Group_88588" data-name="Group 88588" transform="translate(49.359 79.803)">
        <g id="Group_88587" data-name="Group 88587" clip-path="url(#clip-path-26)">
          <rect id="Rectangle_3100" data-name="Rectangle 3100" width="5.558" height="3.61" transform="translate(-1.041 4.909) rotate(-78.016)" fill="url(#linear-gradient-36)"/>
        </g>
      </g>
      <g id="Group_88590" data-name="Group 88590" transform="translate(54.728 72.373)">
        <g id="Group_88589" data-name="Group 88589" clip-path="url(#clip-path-27)">
          <rect id="Rectangle_3101" data-name="Rectangle 3101" width="4.282" height="3.995" transform="translate(-0.808 3.518) rotate(-78.029)" fill="url(#linear-gradient-37)"/>
        </g>
      </g>
      <g id="Group_88592" data-name="Group 88592" transform="translate(55.01 72.162)">
        <g id="Group_88591" data-name="Group 88591" clip-path="url(#clip-path-28)">
          <rect id="Rectangle_3102" data-name="Rectangle 3102" width="4.411" height="4.249" transform="translate(-0.763 3.595) rotate(-78.016)" fill="url(#linear-gradient-38)"/>
        </g>
      </g>
      <g id="Group_88594" data-name="Group 88594" transform="translate(53.633 58.075)">
        <g id="Group_88593" data-name="Group 88593" clip-path="url(#clip-path-29)">
          <rect id="Rectangle_3103" data-name="Rectangle 3103" width="3.711" height="3.183" transform="translate(-0.763 0.223) rotate(-18.027)" fill="url(#linear-gradient-39)"/>
        </g>
      </g>
      <g id="Group_88596" data-name="Group 88596" transform="translate(53.917 57.863)">
        <g id="Group_88595" data-name="Group 88595" clip-path="url(#clip-path-30)">
          <rect id="Rectangle_3104" data-name="Rectangle 3104" width="2.547" height="3.669" transform="matrix(0.208, -0.978, 0.978, 0.208, -0.384, 1.811)" fill="url(#linear-gradient-40)"/>
        </g>
      </g>
    </g>
  </g>
</svg>
