<svg xmlns="http://www.w3.org/2000/svg" width="33.573" height="33.573" viewBox="0 0 33.573 33.573">
  <g id="engineering" transform="translate(0.15 0.15)">
    <g id="Group_27875" data-name="Group 27875" transform="translate(2.792 23.785)">
      <g id="Group_27874" data-name="Group 27874">
        <path id="Path_23440" data-name="Path 23440" d="M43.6,366.2a.694.694,0,0,1,.981,0h0a.692.692,0,0,1,0,.98.694.694,0,0,0,0,.981l2.941,2.941a.694.694,0,0,0,.981,0l2.331-2.331a.7.7,0,0,1,.815-.122,11.01,11.01,0,0,0,1.924.8.691.691,0,0,1,.49.662V373.4a.694.694,0,0,0,.693.693h4.159a.694.694,0,0,0,.693-.693v-3.293a.693.693,0,0,1,.489-.663,11,11,0,0,0,1.924-.8.694.694,0,0,1,.815.122l2.331,2.331a.7.7,0,0,0,.981,0l2.941-2.941a.694.694,0,0,0,0-.981.693.693,0,0,1,.98-.98,2.079,2.079,0,0,1,0,2.941l-2.941,2.941a2.082,2.082,0,0,1-2.941,0L62.206,370.1a12.287,12.287,0,0,1-1.217.507V373.4a2.082,2.082,0,0,1-2.08,2.08H54.751a2.082,2.082,0,0,1-2.08-2.08v-2.792a12.466,12.466,0,0,1-1.217-.507l-1.977,1.977a2.082,2.082,0,0,1-2.941,0l-2.941-2.94a2.08,2.08,0,0,1,0-2.942Z" transform="translate(-42.987 -365.991)" fill="#fff" stroke="#2a4d91" stroke-width="0.3"/>
      </g>
    </g>
    <g id="Group_27877" data-name="Group 27877">
      <g id="Group_27876" data-name="Group 27876">
        <path id="Path_23441" data-name="Path 23441" d="M2.08,15.943h.028a14.186,14.186,0,0,1,10.37-13V2.08A2.082,2.082,0,0,1,14.557,0h4.159A2.082,2.082,0,0,1,20.8,2.08v.859a14.186,14.186,0,0,1,10.37,13h.028a2.082,2.082,0,0,1,2.08,2.08v3.466a.693.693,0,1,1-1.386,0V18.023a.694.694,0,0,0-.693-.693H2.08a.694.694,0,0,0-.693.693v3.466a.693.693,0,1,1-1.386,0V18.023A2.082,2.082,0,0,1,2.08,15.943Zm27.71,0A12.8,12.8,0,0,0,20.8,4.4V6.932a2.021,2.021,0,0,1-2.08,2.08.693.693,0,1,1,0-1.386.634.634,0,0,0,.693-.693V2.08a.694.694,0,0,0-.693-.693H14.557a.694.694,0,0,0-.693.693V6.924a.637.637,0,0,0,.693.7.693.693,0,0,1,0,1.386,2.021,2.021,0,0,1-2.08-2.08V4.4A12.8,12.8,0,0,0,3.484,15.943H29.789Z" fill="#fff" stroke="#2a4d91" stroke-width="0.3"/>
      </g>
    </g>
    <g id="Group_27879" data-name="Group 27879" transform="translate(15.25 2.773)">
      <g id="Group_27878" data-name="Group 27878">
        <path id="Path_23442" data-name="Path 23442" d="M235.36,42.667h1.386a.693.693,0,0,1,0,1.386H235.36a.693.693,0,1,1,0-1.386Z" transform="translate(-234.667 -42.667)" fill="#fff" stroke="#2a4d91" stroke-width="0.3"/>
      </g>
    </g>
    <g id="Group_27881" data-name="Group 27881" transform="translate(15.25 5.546)">
      <g id="Group_27880" data-name="Group 27880">
        <path id="Path_23443" data-name="Path 23443" d="M235.36,85.333h1.386a.693.693,0,0,1,0,1.386H235.36a.693.693,0,0,1,0-1.386Z" transform="translate(-234.667 -85.333)" fill="#fff" stroke="#2a4d91" stroke-width="0.3"/>
      </g>
    </g>
    <g id="Group_27883" data-name="Group 27883" transform="translate(6.239 13.171)">
      <g id="Group_27882" data-name="Group 27882">
        <path id="Path_23444" data-name="Path 23444" d="M96.693,202.667H116.1a.693.693,0,1,1,0,1.386H96.693a.693.693,0,1,1,0-1.386Z" transform="translate(-96 -202.667)" fill="#fff" stroke="#2a4d91" stroke-width="0.3"/>
      </g>
    </g>
    <g id="Group_27885" data-name="Group 27885" transform="translate(2.773 20.796)">
      <g id="Group_27884" data-name="Group 27884">
        <path id="Path_23445" data-name="Path 23445" d="M43.359,320H69.7a.693.693,0,0,1,0,1.386H43.359a.693.693,0,0,1,0-1.386Z" transform="translate(-42.666 -320)" fill="#fff" stroke="#2a4d91" stroke-width="0.3"/>
      </g>
    </g>
  </g>
</svg>
