<svg id="Group_27886" data-name="Group 27886" xmlns="http://www.w3.org/2000/svg" width="33.908" height="33.273" viewBox="0 0 33.908 33.273">
  <path id="Path_23446" data-name="Path 23446" d="M55.1,18.712A13.258,13.258,0,0,0,50.093,13.3l.741-2.251.65.214a1.232,1.232,0,0,0,1.552-.784l.584-1.773a1.231,1.231,0,0,0-.784-1.552L50.458,6.37a.5.5,0,0,0-.311.944l2.379.783a.239.239,0,0,1,.151.3l-.584,1.773a.239.239,0,0,1-.3.151l-6.972-2.3a.232.232,0,0,1-.135-.117.238.238,0,0,1-.014-.181l.584-1.773a.239.239,0,0,1,.3-.151l2.472.815a.5.5,0,0,0,.311-.943l-2.473-.815a1.232,1.232,0,0,0-1.552.784L43.73,7.414a1.231,1.231,0,0,0,.782,1.552l.65.214-.742,2.25a13.226,13.226,0,0,0-3.059.07.5.5,0,1,0,.136.984,12.355,12.355,0,0,1,13.421,16.1,12.351,12.351,0,1,1-15.586-15.6.5.5,0,0,0-.311-.943,13.423,13.423,0,0,0-2.43,1.081H32.612a.5.5,0,1,0,0,.993h2.477a13.209,13.209,0,0,0-4.41,5.96H27.206a.5.5,0,1,0,0,.993h3.147a13.249,13.249,0,0,0-.316,5.958H24.732a.5.5,0,0,0,0,.993h5.521a13.5,13.5,0,0,0,3.315,5.96H29.1a.5.5,0,0,0,0,.993h5.53A13.349,13.349,0,0,0,55.1,18.712Zm-9.68-7.149.684-2.073,3.786,1.247-.683,2.074a13.571,13.571,0,0,0-3.787-1.247Z" transform="translate(-22.63 -4.796)" fill="#fff"/>
  <path id="Path_23447" data-name="Path 23447" d="M.5,131.547H6.673a.5.5,0,0,0,0-.993H.5a.5.5,0,0,0,0,.993Z" transform="translate(0 -122.225)" fill="#fff"/>
  <path id="Path_23448" data-name="Path 23448" d="M30.486,183.049a.5.5,0,1,0,0,.993h4.669a.5.5,0,1,0,0-.993Z" transform="translate(-28.003 -171.244)" fill="#fff"/>
  <path id="Path_23449" data-name="Path 23449" d="M4.487,288.508a.5.5,0,0,0-.5-.5H.5A.5.5,0,0,0,.5,289H3.99A.5.5,0,0,0,4.487,288.508Z" transform="translate(0 -269.254)" fill="#fff"/>
  <path id="Path_23450" data-name="Path 23450" d="M49.43,393.5a.5.5,0,0,0-.5-.5H46.5a.5.5,0,0,0,0,.993h2.433A.5.5,0,0,0,49.43,393.5Z" transform="translate(-42.957 -367.292)" fill="#fff"/>
  <path id="Path_23451" data-name="Path 23451" d="M152.229,154.147a10.51,10.51,0,0,0,19.965,6.575l0-.013,0-.013a10.525,10.525,0,0,0-9.848-13.777,10.415,10.415,0,0,0-3.17.447,10.646,10.646,0,0,0-1.706.684A10.445,10.445,0,0,0,152.229,154.147Zm19.169,5.769-7.039-2.318a2.152,2.152,0,0,0-1.016-2.014l2.313-7.021A9.532,9.532,0,0,1,171.4,159.917Zm-8.66-1.468a1.157,1.157,0,1,1-.16-2.131h0a1.157,1.157,0,0,1,.736,1.46h0A1.148,1.148,0,0,1,162.738,158.449Zm-.536-10.536a9.5,9.5,0,0,1,2.511.34l-2.313,7.021a2.136,2.136,0,0,0-1.151.223,2.176,2.176,0,0,0-.344.216l-3.313-3.02a.5.5,0,0,0-.669.734l3.357,3.06a2.185,2.185,0,0,0-.1.257,2.15,2.15,0,0,0,1.37,2.714,2.171,2.171,0,0,0,.434.094l.169,1.445a.5.5,0,0,0,.493.439.508.508,0,0,0,.058,0,.5.5,0,0,0,.436-.551l-.169-1.449a2.2,2.2,0,0,0,.221-.1,2.134,2.134,0,0,0,.863-.793l7.041,2.319a9.439,9.439,0,0,1-4.143,4.827l-.554-1.1a.5.5,0,0,0-.887.447l.555,1.1a9.436,9.436,0,0,1-6.351.478l.387-1.174a.5.5,0,0,0-.943-.311l-.387,1.174a9.477,9.477,0,0,1-4.819-4.16l1.1-.552a.5.5,0,0,0-.447-.887l-1.094.552a9.479,9.479,0,0,1-.468-6.343l1.157.382a.5.5,0,0,0,.311-.943l-1.155-.381a9.442,9.442,0,0,1,4.151-4.805l.544,1.076a.5.5,0,0,0,.887-.448l-.543-1.074A9.449,9.449,0,0,1,162.2,147.913Z" transform="translate(-141.654 -137.507)" fill="#fff"/>
</svg>
