<svg xmlns="http://www.w3.org/2000/svg" width="29.12" height="34.572" viewBox="0 0 29.12 34.572">
  <g id="security" transform="translate(0.581 0.699)">
    <path id="Path_105007" data-name="Path 105007" d="M45.035,8.568C45.018,7.669,45,6.821,45,6a1.165,1.165,0,0,0-1.165-1.165C38.856,4.835,35.064,3.4,31.9.33a1.164,1.164,0,0,0-1.624,0c-3.161,3.073-6.952,4.5-11.933,4.5A1.165,1.165,0,0,0,17.181,6c0,.821-.016,1.67-.033,2.569-.16,8.36-.378,19.809,13.562,24.641a1.163,1.163,0,0,0,.763,0C45.413,28.377,45.195,16.928,45.035,8.568ZM31.091,30.873C19.136,26.53,19.316,17.017,19.477,8.613c.01-.5.019-.993.025-1.472A17.96,17.96,0,0,0,31.091,2.748,17.962,17.962,0,0,0,42.681,7.14c.007.479.016.968.025,1.472C42.866,17.016,43.047,26.53,31.091,30.873Z" transform="translate(-17.112 0)" fill="#fff" stroke="#326ac2" stroke-width="1.2"/>
    <path id="Path_105008" data-name="Path 105008" d="M78.517,79.227,72.9,84.848l-2.4-2.4A1.165,1.165,0,0,0,68.85,84.1l3.222,3.222a1.165,1.165,0,0,0,1.647,0l6.445-6.444a1.165,1.165,0,0,0-1.647-1.647Z" transform="translate(-60.528 -66.636)" fill="#fff" stroke="#326ac2" stroke-width="1.2"/>
  </g>
</svg>
