<svg id="Group_88747" data-name="Group 88747" xmlns="http://www.w3.org/2000/svg" xmlns:xlink="http://www.w3.org/1999/xlink" width="495.565" height="538.613" viewBox="0 0 495.565 538.613">
  <defs>
    <clipPath id="clip-path">
      <rect id="Rectangle_3163" data-name="Rectangle 3163" width="495.565" height="538.613" fill="none"/>
    </clipPath>
  </defs>
  <g id="Group_88746" data-name="Group 88746" clip-path="url(#clip-path)">
    <path id="Path_104814" data-name="Path 104814" d="M313.379,148.3a277.384,277.384,0,0,1-62.354-17.662,276.952,276.952,0,0,1-43.973-23.067,276.948,276.948,0,0,1-43.973,23.067A277.383,277.383,0,0,1,100.726,148.3c-1.409,10.219-14,112.949,54.785,168.321a141.212,141.212,0,0,0,51.542,25.951,141.2,141.2,0,0,0,51.541-25.951C327.379,261.251,314.787,158.522,313.379,148.3Z" transform="translate(40.73 44.287)" fill="none" stroke="#fff" stroke-miterlimit="10" stroke-width="1" stroke-dasharray="10 10"/>
    <path id="Path_104815" data-name="Path 104815" d="M397.531,122.356A446.779,446.779,0,0,1,297.114,93.915,446.077,446.077,0,0,1,226.3,56.765a446.138,446.138,0,0,1-70.814,37.15A446.82,446.82,0,0,1,55.068,122.356C52.8,138.815,32.52,304.252,143.3,393.425c27.1,21.812,56.339,34.478,83,41.793,26.664-7.315,55.907-19.981,83-41.793C420.077,304.252,399.8,138.815,397.531,122.356Z" transform="translate(21.484 23.369)" fill="none" stroke="#fff" stroke-miterlimit="10" stroke-width="1" stroke-dasharray="10 10" opacity="0.4"/>
    <path id="Path_104816" data-name="Path 104816" d="M490.562,93.67a633.916,633.916,0,0,1-142.5-40.359A633.029,633.029,0,0,1,247.576.6,633.028,633.028,0,0,1,147.087,53.312,633.916,633.916,0,0,1,4.59,93.67C1.373,117.026-27.4,351.79,129.789,478.33c38.45,30.953,79.948,48.926,117.787,59.306,37.839-10.38,79.335-28.354,117.787-59.306C522.557,351.79,493.779,117.026,490.562,93.67Z" transform="translate(0.206 0.245)" fill="none" stroke="#fff" stroke-miterlimit="10" stroke-width="1" stroke-dasharray="10 10" opacity="0.15"/>
    <path id="Path_105054" data-name="Path 105054" d="M2,29.935l0-.274.005-.274.008-.274.011-.274.014-.274.017-.274.02-.274.022-.274.025-.274.028-.274.031-.273.034-.273.036-.273.039-.273.042-.273.045-.272.048-.272.05-.271.053-.271.056-.271.059-.27.062-.27.064-.269.067-.269.07-.268.073-.268.076-.267.078-.266.081-.266.084-.265.087-.264.089-.264L3.569,21l.095-.262.1-.261.1-.26.1-.259.106-.259.108-.258.111-.257.114-.256.116-.255.119-.254.122-.253.124-.252.127-.25.13-.249.132-.248.135-.247.137-.246.14-.244.142-.243.145-.242.148-.24.15-.239.153-.238L6.579,15l.158-.235.16-.233.162-.232.165-.23.167-.229.17-.227.172-.226.175-.224.177-.223.179-.221.182-.219.184-.218.186-.216L9,11.848l.191-.212.193-.211.2-.209.2-.207.2-.205.2-.2.2-.2.206-.2L10.8,10l.21-.2.212-.193.214-.191.217-.189.219-.187.221-.185.223-.183L12.54,8.5l.226-.179L13,8.141l.23-.175.232-.172.234-.17.236-.168.238-.166.239-.163.241-.161.243-.159.245-.157L15.38,6.5l.248-.152.25-.149.251-.147.253-.145.255-.142.256-.14.258-.137.259-.135.261-.132.262-.13.263-.127.265-.125.266-.122.268-.12.269-.117.27-.115.271-.112.273-.109.274-.107.275-.1.276-.1.278-.1.279-.1.28-.093.281-.091.282-.088.283-.085.284-.082.285-.08.286-.077.287-.074.287-.071.288-.069.289-.066.29-.063.29-.06.291-.057.292-.054.293-.052.293-.049.294-.046.294-.043.295-.04.3-.037.3-.034.3-.032.3-.029.3-.026.3-.023.3-.02L30.9,2l.091,7.722h.274l.221,0,.221,0,.222.006.221.008.222.011.222.013.222.015.221.017.222.019.221.021.221.024.221.026.221.028.221.03.221.032.22.035.22.037.22.039.22.041.219.043.219.045.219.048.218.05.218.052.217.054.217.056.216.058.216.061.216.063.215.065.214.067.214.069.213.071.213.073.212.076.211.078.211.08.21.082.209.084.208.086.208.088.207.09.206.092.205.094.2.1.2.1.2.1.2.1.2.1.2.107.2.109.2.111.2.113.2.115.194.117.193.119.192.121.191.123.19.124.189.126.188.128.186.13.185.132.184.134.182.136.181.138.18.14.179.141.177.143.176.145.174.147.173.149.172.15.17.152.168.154.167.156.166.157.164.159.162.161.161.162.159.164.158.166.156.167.154.169.153.171.151.172.149.174.148.175.146.177.144.178.142.18.141.181.139.183.137.184.135.186.133.187.132.189.13.19.128.191.126.193.124.194.122.2.12.2.118.2.116.2.114.2.112.2.11.2.108.2.106.205.1.206.1.207.1.208.1.209.1.211.094.212.091.213.089.214.087.214.085.216.083.216.081.217.078.218.076.219.074.22.072.221.07.222L53,26l.065.223.063.224.061.225.058.225.056.226.054.227.051.227.049.228.047.228.044.229.042.23.04.23.037.231.035.231.033.232.03.232.028.233.026.233.023.233.021.233.019.234.016.234.014.234.011.235.009.235.006.235,0,.235,0,.235v.236l0,.236-.006.236-.008.236-.01.236-.013.236-.015.236-.018.236-.02.236-.023.236-.025.236-.027.235-.03.235-.032.235-.035.235-.037.235-.04.234-.042.234-.044.234-.047.233-.049.233-.052.233-.054.232-.056.232-.059.231-.061.231-.064.23-.066.23-.068.229-.071.229L52.8,39.7l-.075.228-.078.227-.08.226-.083.226-.085.225-.087.224-.09.224-.092.223-.094.222-.1.221-.1.22-.1.219-.1.218-.106.217-.108.217-.11.216-.113.215-.115.214-.117.213-.119.211-.122.211-.124.209-.126.208-.128.207-.131.206-.133.2-.135.2-.137.2-.139.2-.141.2-.143.2-.145.2-.147.2-.15.195-.152.193-.154.192-.156.19-.158.189-.16.187L48,48.077l-.164.184-.166.183-.168.181-.17.18-.172.178-.173.176-.175.175-.177.173-.179.172-.181.17-.183.168-.185.167-.186.165-.188.163-.19.161-.192.16-.193.158-.195.156-.2.154-.2.152-.2.15-.2.148-.2.147-.2.144-.206.143-.208.141-.209.139-.211.137-.212.135-.214.133L42.087,53l-.217.128-.218.127-.22.124-.221.122-.222.12-.224.118-.225.116-.226.114-.228.112-.229.109-.23.107-.231.1-.232.1-.234.1-.235.1-.236.1-.237.094-.238.091-.239.089-.24.087-.241.085-.242.082-.243.08-.244.078-.245.075-.246.073-.246.07-.247.068-.248.066-.249.063-.25.061-.25.059-.251.056-.252.054-.252.051-.253.049-.254.046-.254.044-.255.041-.255.039-.256.036-.256.034-.257.031-.257.029-.258.026-.258.024-.258.021-.259.019-.259.016-.259.014-.26.011-.26.008-.26.006-.26,0h-.26l-.26,0-.261,0-.261-.007-.261-.009-.261-.012-.261-.014-.261-.017-.261-.02-.26-.022-.26-.025-.26-.027-.26-.03-.26-.032L25,56.424l-.259-.038-.259-.04-.259-.043-.259-.045-.258-.048-.258-.05-.257-.053-.257-.056-.257-.058-.256-.06-.255-.063-.255-.066-.254-.068-.254-.071-.253-.073-.253-.076-.252-.078-.251-.081-.25-.083-.25-.086-.249-.088-.248-.09-.247-.093-.246-.1-.246-.1-.245-.1-.244-.1-.243-.105-.242-.108-.241-.11-.24-.113-.239-.115-.238-.117-.237-.12-.235-.122-.234-.125-.233-.127-.232-.129-.231-.132-.229-.134-.228-.136-.227-.138-.226-.141-.224-.143-.223-.145-.221-.147-.22-.15-.218-.152-.217-.154L12.88,51.5l-.214-.158-.213-.161-.211-.163-.209-.165-.208-.167-.206-.169-.2-.171-.2-.173-.2-.175-.2-.178-.2-.179-.2-.181-.194-.184-.192-.185L9.841,48.9l-.189-.189-.187-.191-.185-.193-.183-.2-.181-.2-.179-.2-.177-.2-.175-.2-.173-.2-.171-.206-.169-.208-.167-.21L7.539,46.3l-.163-.213-.161-.215-.159-.216L6.9,45.435l-.154-.22-.152-.221-.15-.223L6.3,44.547l-.145-.226-.143-.227-.141-.229-.139-.23L5.592,43.4l-.134-.233-.132-.235L5.2,42.7l-.127-.238-.125-.239-.122-.24-.12-.241L4.586,41.5l-.115-.244-.112-.245-.11-.246-.107-.247-.1-.249-.1-.25-.1-.251-.1-.252-.095-.253-.092-.254-.09-.255L3.373,38.5l-.085-.257-.082-.258-.079-.259-.077-.26L2.976,37.2,2.9,36.939l-.069-.262-.066-.263-.063-.264-.061-.265-.058-.265-.055-.266-.053-.267-.05-.267-.047-.268-.045-.268L2.3,34.016l-.039-.269-.036-.27-.034-.27-.031-.271-.028-.271L2.1,32.392,2.08,32.12l-.02-.272-.017-.273L2.029,31.3l-.011-.273-.009-.273L2,30.483l0-.274ZM28.49,9.884,28.428,4.62l-.059.006-.272.029-.271.032-.271.034-.27.037-.27.039-.269.042-.268.045-.268.047-.267.05-.267.053-.265.055-.266.058-.264.06-.264.063-.263.065-.262.068-.262.07-.261.073-.259.075L23.05,5.7l-.258.08-.257.083-.256.085-.255.088-.254.09-.253.093-.252.1-.251.1-.249.1-.249.1-.247.1-.246.107-.245.109-.243.112-.242.114-.241.117-.239.119-.238.121-.237.123-.236.126-.234.128-.233.13-.231.132-.229.134-.229.137-.227.139-.225.141-.224.143L16.049,9l-.22.147-.218.149-.218.152-.215.153-.214.156-.212.158-.21.16-.208.161-.207.164-.2.165-.2.167-.2.169-.2.171-.2.173-.2.175-.194.177-.192.179-.19.18-.188.182-.186.184-.184.186-.183.187-.18.189-.178.19-.177.193-.174.194-.172.2-.17.2-.168.2-.166.2-.164.2-.161.2-.159.2-.157.206-.155.208-.153.209-.15.21L8.97,15.9l-.146.213-.144.214-.142.216-.139.217-.137.218-.135.219L8,17.42l-.13.222-.128.223-.125.224-.123.225-.121.226-.118.227L7.135,19l-.113.229-.111.23-.109.231-.106.232-.1.233-.1.234-.1.235-.1.236-.094.237-.091.237-.089.238-.086.239-.084.24-.081.24-.079.241-.076.242-.074.242-.071.243L5.4,23.5l-.066.244-.064.244-.061.245-.059.245-.056.246-.054.246-.051.247-.049.247-.046.247-.043.248-.041.248-.038.248-.036.249-.033.249-.031.249-.028.249-.025.249L4.6,27.95l-.02.249-.018.25-.015.25-.013.249-.01.25-.008.249,0,.249,0,.249V30.2l0,.249.005.249.008.249.01.249.013.248.015.248.018.248.02.247.023.247.026.247.028.246.031.246.033.246.036.245.038.245.041.244.043.244.045.243.048.242.05.242.053.241.055.241.058.24.06.239.063.239.065.238.067.237.07.236.072.235.075.235.077.234.079.233.082.232L6,38.429l.086.23.089.229.091.228.093.227.1.226.1.225.1.224.1.223.1.222.107.22.109.219.111.218.113.217.115.216.117.214.12.213.122.212.124.211.126.209.128.208.13.207.132.205.134.2.136.2.138.2.14.2.142.2.144.2.146.195.148.193.15.192.152.19.153.189.155.187.157.185.159.184.161.182.163.18.164.179.166.177.168.175.169.174.171.172.173.17.174.168.176.166.178.165.179.163.181.161.182.159.184.157.186.155.187.153.189.152.19.149.191.148.193.146.194.144.2.142.2.14.2.138.2.136.2.134.2.132.2.13.2.127.206.125.207.123.208.121.209.119.21.117.211.115.212.113.213.111.214.109.215.106.216.1.217.1.218.1.219.1.22.1.221.093.222.091.222.089.223.086.224.084.224.082.225.08.226.078.227.075.227.073.228.071.229.068.229.066.23.064.23.062.231.059.231.057.231.055.232.052.232.05.233.048.233.046.233.043.234.041.234.039.234.036.235.034.235.032.235.029.235.027.235.025.235.022.236.02.236.018.236.015.236.013.236.011.236.008.236.006.236,0,.235,0h.235l.235,0,.235-.005.235-.008.235-.01.234-.012.234-.015.234-.017.233-.019L31,54.118l.233-.024.232-.026.232-.028.232-.03.231-.033.231-.035.23-.037.23-.04.229-.042.228-.044.228-.046.227-.048.227-.05.226-.053.225-.055.225-.057.224-.059.223-.061.223-.064.222-.066.221-.068.22-.07.219-.072.218-.074.217-.076.217-.078.216-.08.215-.083.214-.084.213-.087.212-.089.211-.091.21-.093.208-.095.208-.1.206-.1.205-.1.2-.1.2-.1.2-.106.2-.108.2-.11.2-.112.2-.114.2-.116.194-.118.193-.12.191-.121.19-.123.189-.125.187-.127.186-.128.184-.13.183-.132.182-.134.18-.135.178-.137.177-.139.175-.14.174-.142.173-.144.171-.145.169-.147.168-.148.166-.15.164-.151.163-.153.161-.154.16-.156.158-.157.156-.159.154-.16.152-.162.151-.163.149-.165.147-.166.146-.167.144-.168.142-.17.14-.171.138-.172.136-.174.134-.175.133-.176.131-.177.129-.179.127-.18.125-.18.123-.182.121-.183.119-.184.117-.185.115-.186.113-.187.111-.189.109-.189.107-.19.105-.191.1-.192.1-.193.1-.194.1-.194.1-.2.093-.2.091-.2.089-.2.087-.2.085-.2.083-.2.081-.2.078-.2.076-.2.074-.2.072-.2.07-.2.068-.2.065-.2.064-.206.061-.206.059-.206.057-.207.055-.207.053-.207.051-.208.048-.208.046-.209.044-.209.042-.209.04-.21.038-.209.035-.21.033-.21.031-.21.029-.211.027-.211.025-.211.022-.211.02-.211.018-.211.016-.212.014-.211.011-.211.009-.212.007-.211.005-.211,0-.211v-.211l0-.211,0-.211-.006-.211-.008-.21-.01-.211L51.4,31.2l-.014-.21-.017-.209-.019-.209-.021-.208-.023-.209-.025-.208-.027-.208-.029-.207-.032-.207-.033-.206-.036-.206-.038-.206-.04-.205-.042-.2-.044-.2-.046-.2-.048-.2-.05-.2-.052-.2-.054-.2-.056-.2-.058-.2-.06-.2-.062-.2-.064-.2-.066-.2-.068-.2L50.2,25.5l-.072-.195-.074-.193-.076-.193-.078-.192-.08-.191-.082-.19-.084-.189-.085-.188-.088-.188-.089-.186-.091-.185-.093-.184-.095-.183-.1-.182-.1-.181-.1-.179-.1-.179-.1-.178-.106-.177L48.4,21.79l-.109-.175-.11-.173-.113-.172-.114-.171-.116-.169-.118-.168-.119-.167-.121-.166-.122-.164L47.24,20.1l-.125-.162-.127-.16-.129-.159-.13-.158-.132-.156-.133-.155L46.329,19l-.136-.152-.138-.151-.139-.149-.14-.147-.142-.147-.143-.144-.145-.143-.146-.142-.148-.141-.148-.138-.15-.137-.152-.136-.152-.134-.154-.132-.156-.131-.157-.129-.158-.128-.159-.126-.16-.124-.161-.122-.163-.121L43.018,16l-.165-.118-.166-.116-.167-.114-.168-.113-.168-.11-.17-.109-.171-.107-.172-.106-.173-.1-.174-.1-.175-.1-.176-.1-.176-.1-.178-.1-.178-.093-.179-.091-.18-.09-.181-.088-.182-.086-.182-.084-.183-.082-.184-.08-.19-.081-.179-.074-.186-.075-.186-.073-.188-.071-.188-.069-.188-.067-.189-.065-.19-.064-.19-.061-.191-.06L36.915,13l-.191-.056-.192-.054-.193-.052-.192-.05-.193-.048L35.76,12.7l-.193-.044-.194-.042-.194-.04-.195-.038-.195-.036-.2-.035-.2-.033-.2-.031-.2-.029-.2-.027-.2-.025-.2-.023-.2-.021-.2-.019-.2-.017-.2-.015-.2-.013-.2-.011-.2-.009-.2-.007-.2-.005-.2,0-.2,0h-.236l.062,5.225h.255l.143,0,.144,0,.144.005.144.007.144.008.144.009.144.011.144.012.144.014.144.015.144.017.144.018.144.019.144.021.143.022.143.024.143.025.143.027.143.028.143.029.143.031.142.032.142.034.142.035.141.036.141.038.141.039.141.041.141.042.14.044.14.045.139.046.139.048.139.049.138.051.138.052.138.054.137.055.137.056L37,18.6l.136.059.135.061.135.062.134.063.134.065.133.066.132.067.132.069.131.07.131.071.13.073.129.074.129.075.128.077.127.078.126.079.126.081.125.082.124.083.124.085.123.086.122.087.121.088.12.09.12.091.119.092.118.094.117.095.116.1.115.1.114.1.113.1.112.1.111.1.11.1.109.1.108.105.107.107.106.108.105.109.1.11.1.111.1.112.1.113.1.114.1.116.1.116.1.118.1.119.094.12.093.121.092.122.091.123.09.124.089.125.087.126.086.127.085.128.084.128.082.129.081.13.08.131.078.132.077.133.076.134.075.135.073.135.072.136.071.137.069.138.068.139.066.139.065.14.064.141.062.142.061.142.059.143.058.144.056.144.055.145.054.146.052.146.051.147.049.148.048.148.046.149.045.149.043.15.042.151.04.151.039.151.037.152.036.152.034.153.032.153.031.154.029.154.028.155.026.155.025.155.023.156.021.156.02.156L46,30.8l.017.157.015.157.014.158.012.158.01.158.008.158.007.158.005.159,0,.159,0,.159V32.7l0,.159,0,.159-.006.16-.008.159-.009.16-.011.16-.013.16-.014.16-.016.16-.018.159-.019.16-.021.159-.023.159-.024.159-.026.159-.028.159-.029.159-.031.159-.033.158-.034.158-.036.158-.038.158-.039.157-.041.157-.043.157-.044.157-.046.156-.047.156-.049.156-.051.155-.052.155-.054.154-.056.154-.057.153-.059.153-.06.153-.062.152-.064.152-.065.151-.067.151-.068.15-.07.149-.072.149-.073.148-.075.147-.076.147-.078.146-.08.146-.081.145-.083.144-.084.143-.086.143-.087.142-.089.141-.09.14-.092.14-.093.139-.095.138-.1.137-.1.136-.1.135-.1.135-.1.134-.1.133-.1.132-.106.131-.108.13-.109.129-.111.128-.112.127-.113.126-.115.125-.116.124-.117.123-.119.122-.12.121-.122.119-.123.119-.124.117-.125.116-.127.115-.128.114-.129.113-.131.112-.132.11-.133.109-.134.108-.135.106-.137.105-.138.1-.139.1-.14.1-.141.1-.142.1-.143.1-.145.1-.146.095-.147.093-.148.092-.149.09-.15.089-.151.088-.152.086-.153.085-.154.084-.155.082-.156.081-.157.079-.157.078-.158.076-.159.075-.16.073-.161.071-.162.07-.163.068-.163.067-.164.065-.165.064-.166.062-.167.061-.167.059-.168.057-.169.056-.17.054-.17.052-.171.051-.171.049-.172.048-.173.046-.173.044-.174.043-.174.041-.175.039-.175.037-.176.036-.176.034-.177.032-.177.031-.178.029-.178.027-.179.025-.179.024-.179.022-.179.02-.18.018-.18.017-.18.015-.181.013-.181.011-.181.01-.181.008-.182.006-.182,0-.182,0h-.364l-.182,0-.182,0-.182-.007-.182-.008-.183-.01-.182-.012-.183-.014-.182-.016-.182-.017-.182-.019-.182-.021-.182-.023-.182-.025-.182-.026-.182-.028-.182-.03-.182-.032-.181-.033-.181-.035-.181-.037-.181-.039-.18-.041-.18-.043-.18-.044-.179-.046-.179-.048-.179-.05-.178-.052-.178-.053-.177-.055-.177-.057-.176-.059-.176-.06-.175-.062-.175-.064L22,47.756l-.174-.068-.173-.069-.173-.071-.172-.073-.171-.074-.17-.076-.17-.078-.169-.08-.168-.081L20.291,47l-.167-.085-.166-.086-.165-.088-.165-.09-.164-.091-.163-.093-.162-.095-.161-.1-.16-.1-.159-.1-.158-.1-.157-.1-.157-.1-.156-.106-.155-.108-.154-.109-.153-.111-.151-.113-.151-.114-.149-.116-.148-.117-.147-.119-.146-.12-.145-.122-.144-.123-.142-.125-.141-.126-.14-.128-.139-.129-.138-.131-.136-.132-.135-.133-.134-.135-.132-.136-.131-.138-.13-.139-.128-.14-.127-.142-.126-.143-.124-.144-.123-.146-.121-.147-.12-.148-.119-.149-.117-.151-.116-.152-.114-.153-.113-.154-.111-.156-.109-.157-.108-.158-.106-.159-.1-.16-.1-.161-.1-.163-.1-.164-.1-.165-.1-.166-.1-.167-.094-.168-.092-.169-.09-.17-.089-.171-.087-.172-.085-.173-.083-.174-.082-.175-.08-.176-.078-.176-.076-.177-.075-.178-.073-.179-.071-.18-.069-.181-.067-.181-.066-.182-.064-.183-.062-.184-.06-.184L10.7,35.68l-.056-.186-.054-.186-.053-.187-.051-.188-.049-.188-.047-.189-.045-.189-.043-.19-.041-.191-.039-.191L10.19,33.6l-.035-.192-.033-.192-.031-.193-.029-.193-.027-.194-.025-.194-.023-.195-.021-.195-.019-.2-.017-.2-.015-.2-.013-.2-.011-.2-.009-.2-.007-.2-.005-.2,0-.2V29.9l0-.2,0-.2.007-.2.009-.2.011-.2.013-.2.015-.2.017-.2.019-.2.021-.2.023-.2.025-.2.027-.2.029-.2.031-.2.033-.2.035-.2.037-.2.039-.2.041-.2.043-.2.045-.195.047-.195.049-.194.052-.194.054-.194.056-.193L10.7,24.4l.06-.192.062-.192.064-.191.066-.191.068-.19.07-.19.072-.189.074-.188.076-.188.077-.187.079-.186.081-.186.083-.185.085-.184.087-.184L11.9,21.4l.091-.182.093-.181.095-.18.1-.18.1-.179.1-.178.1-.177.1-.176.106-.175.108-.174L13,19.44l.112-.172.114-.171.115-.17.117-.169.119-.168.121-.167.123-.166.124-.165.126-.164.128-.163.13-.161.131-.16.133-.159.135-.158.137-.157.138-.155.14-.154.141-.153.143-.151.145-.15.146-.149.148-.147.15-.146.151-.145.153-.143.154-.142.156-.141.157-.139.159-.138.16-.136.162-.135.163-.133.165-.132.166-.13.168-.128L18.1,14l.171-.125.172-.124.173-.122.175-.12.176-.119.177-.117.179-.115.18-.114.181-.112.182-.11.184-.108.185-.107.186-.1.187-.1.188-.1.189-.1.191-.1.192-.1.193-.094.194-.092.195-.09.2-.089.2-.087.2-.085.2-.083.2-.081.2-.079.2-.077.2-.075.2-.073.2-.071.205-.069.206-.067.207-.065.208-.063.208-.061.209-.059.21-.057.211-.055.211-.053.212-.051.212-.049.213-.047.214-.045.214-.043.215-.041.215-.039.216-.037.216-.035.217-.032.217-.03.218-.028Zm.092,7.75-.063-5.282-.178.025-.192.029-.192.031-.191.032-.191.034-.19.036-.19.038-.189.04-.189.042-.188.044-.188.045-.187.047-.187.049-.179.049-.191.054L25.515,13l-.184.056-.183.058-.182.06-.182.061L24.6,13.3l-.18.065-.179.067-.178.068-.178.07-.176.071-.176.073-.175.075-.174.077-.173.078-.172.08-.171.082-.17.083-.17.085-.168.086L22,14.445l-.166.089-.166.091-.164.092-.163.094-.162.1-.161.1-.16.1-.158.1-.158.1-.156.1-.155.1-.154.106-.153.108-.151.109-.151.111-.149.112-.148.113-.147.114-.146.116-.144.117-.143.119-.142.12-.14.121L18.322,17l-.138.124-.136.125-.135.126-.134.128-.132.128-.13.13-.129.131-.128.132-.126.134-.125.135-.123.136-.122.137-.12.138-.118.139-.117.14-.116.141-.114.142-.113.143-.111.144-.109.145-.108.146-.106.147-.1.148-.1.149-.1.15-.1.151-.1.152-.1.152-.1.153-.094.154-.092.155-.09.156-.089.157-.087.157-.085.158-.084.159-.082.159-.08.16-.078.161L14,22.784l-.075.162-.073.163-.071.163-.07.164-.068.164-.066.165-.065.166-.063.166-.061.166-.059.167-.057.167-.056.168-.054.168L13.1,25.1l-.05.169-.049.169-.047.17-.045.17-.043.17-.042.171-.04.171-.038.171-.036.172-.034.172-.033.172-.031.172-.029.172-.027.173-.026.172-.024.173-.022.173-.02.173-.018.173-.017.173-.015.173-.013.173-.011.173-.009.173-.008.173-.006.173,0,.173,0,.173v.345l0,.172,0,.172.007.172.008.172.01.172.012.171.014.171.015.171.017.171.019.17.02.17.022.17.024.169.026.169.027.168.029.168.031.168.032.167.034.167.036.166.038.166.039.165.041.165.043.164.044.164.046.163.048.163.049.162.051.162.052.161.054.16.056.16.057.159.059.158.06.158.062.157.063.156.065.155.067.155.068.154.07.153.071.152.073.151.074.151.076.15.077.149.079.148.08.147.081.146.083.145.084.144.086.143.087.143.089.141.09.141.091.14.093.138.094.138.1.136.1.135.1.134.1.133.1.132.1.131.1.13.1.129.106.128.107.127.108.125.109.125.11.123.112.122.113.121.114.12.115.118.116.117.117.116.119.115.12.113.12.112.122.111.123.11.124.108.125.107.126.106.127.1.128.1.129.1.13.1.131.1.132.1.132.1.133.095.134.093.135.092.136.091.137.089.137.088.138.087.139.085.14.084.141.082.141.081.142.079L21,44.6l.143.076.144.075.144.073.145.072.146.07.146.069.147.067.148.066.148.064.149.063.149.062.15.06.15.058.151.057.151.055.152.054.152.052.153.051.153.049.153.048.154.046.154.045.154.043.155.041.155.04.155.038.155.037.156.035.156.034.156.032.156.03.157.029.157.027.157.026.157.024.157.023.157.021.157.02.157.018.157.017.157.015.157.013.157.012.157.01.157.009.157.007.157.006.157,0,.157,0h.314l.157,0,.157,0,.156-.005.156-.007.156-.008.156-.01.156-.011.155-.013.155-.014.155-.016.155-.017.154-.019.154-.02L31,46.378l.153-.023.153-.025.152-.026.152-.028.152-.029.151-.031.151-.032.15-.034.15-.035.149-.037.149-.038L32.812,46l.148-.041.147-.042.147-.044.146-.045.145-.046.145-.048.144-.049.144-.051.143-.052.142-.053.142-.055.141-.056.14-.057.14-.059.139-.06.138-.061.137-.063.137-.064.136-.065.135-.066.135-.068.133-.069.133-.07.132-.071.131-.073.13-.074.129-.075.128-.076.127-.078.126-.079.126-.08.124-.081.124-.082.123-.084.122-.084.121-.085.12-.087.119-.088.118-.089.117-.09.115-.091.115-.092.114-.093.112-.094.112-.1.11-.1.109-.1.109-.1.107-.1.106-.1.1-.1.1-.1.1-.1.1-.1.1-.1.1-.106.1-.107.1-.107.1-.108.095-.109.093-.11.092-.111L40.546,41l.089-.112.088-.113.087-.114.086-.115.084-.115.083-.116.082-.117.081-.117.079-.118.078-.119.077-.119.076-.12.074-.121.073-.121.071-.122.071-.123.069-.123.068-.124.066-.124.065-.125.064-.126.062-.125.061-.127.059-.126.059-.128.057-.128.056-.129.054-.128.053-.129.051-.13.05-.13.048-.13.047-.131.046-.131.044-.131.043-.132.042-.132.04-.132.039-.132.037-.133.036-.133.035-.133.033-.133.032-.133.03-.134.029-.134.028-.134.026-.134.025-.134.023-.135.022-.134.021-.135.019-.135.018-.135.016-.135.015-.135.014-.134.012-.135.011-.135.009-.135.008-.135.007-.135.005-.135,0-.135,0-.134V32.4l0-.134,0-.134,0-.134-.006-.134-.007-.133-.009-.134-.01-.133-.011-.133-.013-.133-.014-.132-.015-.132-.017-.132-.018-.132-.019-.132-.021-.131-.022-.131-.023-.13-.025-.13-.026-.13-.027-.129-.029-.129-.03-.128-.031-.128-.032-.127-.034-.128-.035-.126-.036-.126-.038-.125-.039-.125-.04-.125-.041-.124-.043-.124-.044-.123-.045-.122-.046-.122-.047-.121-.049-.121-.05-.12-.051-.119-.052-.119-.053-.118-.055-.118-.056-.117-.057-.117-.058-.116-.059-.115-.06-.114-.061-.113-.063-.113-.063-.112-.065-.112-.066-.111-.067-.11-.068-.109-.069-.109-.07-.107-.071-.107-.072-.106-.073-.105-.074-.1-.075-.1-.076-.1-.077-.1-.078-.1-.079-.1-.08-.1-.081-.1-.082-.1-.083-.1-.084-.1-.085-.095-.085-.094-.086-.093-.087-.092-.088-.091-.089-.09L39.8,23.4l-.09-.088-.091-.087-.092-.086-.093-.085-.094-.084-.094-.083-.1-.082-.1-.081-.1-.08-.1-.079-.1-.078-.1-.077-.1-.076-.1-.075-.1-.074-.1-.073-.1-.071-.1-.071-.1-.069-.1-.068-.1-.067-.105-.066-.106-.065-.107-.064-.107-.063-.108-.062-.108-.06-.109-.059-.109-.058-.109-.057-.11-.056-.11-.055-.111-.054-.111-.052-.111-.051-.113-.05-.112-.049-.113-.048-.113-.047-.114-.046-.114-.044-.114-.043-.115-.042-.115-.041-.115-.04-.116-.039-.116-.037-.116-.036-.116-.035-.117-.034-.117-.033-.117-.031-.117-.03-.117-.029-.118-.028-.118-.027-.118-.025-.118-.024-.118-.023-.118-.022-.119-.021L33.09,20l-.119-.018-.118-.017-.119-.016-.118-.015-.119-.014-.119-.012-.119-.011-.119-.01-.118-.009-.119-.008-.118-.007-.118-.005-.119,0-.118,0-.118,0h-.2l.061,5.161h.1l.068,0,.068,0,.068,0,.068,0,.068,0,.068.005.068.006.068.007.068.007.068.008.069.009.068.009.069.01.069.011.069.012.068.012.069.013.068.014.068.015.068.015.068.016.068.017.068.017.068.018.068.019.068.02.068.02.068.021.068.022.068.023.067.023.067.024.067.025.067.025.067.026.067.027.066.028.066.028.066.029.066.03.066.03.065.031.065.032.065.033.065.033.065.034.064.035.064.036.064.036.063.037.063.038.063.038.062.039.062.04.062.04.062.041.061.042.061.043.06.043.06.044.06.045.059.045.059.046.059.047.058.047.058.048.057.049.057.049.056.05.056.051.056.051.055.052.055.052.054.053.054.054.053.054.053.055.052.056.052.056.051.057.051.057.05.058.049.059.049.059.048.06.048.06.047.061.047.062.046.062.046.063.045.063.044.064.044.064.043.065.043.065.042.066.041.066.041.067.04.068.039.068.039.068.038.069.037.069.037.07.036.07.035.071.034.071.034.072.033.072.032.073.032.073.031.074.03.074.029.074.029.075.028.075.027.076.026.076.026.076.025.077.024.077.023.077.023.078L38,30.42l.021.078.02.079.019.079.019.079.018.08.017.08.016.08.015.08.014.081.014.081.013.081.012.082.011.082.01.082.009.082.009.082.008.083.007.083.006.083.005.083,0,.083,0,.084,0,.084,0,.084v.252l0,.084,0,.084,0,.084,0,.084-.005.085-.006.085-.007.085-.008.085-.009.085-.01.085-.011.085-.012.085-.013.085-.014.085-.015.085-.015.085-.016.085-.017.085-.018.085-.019.084-.02.084-.021.084L38,34.574l-.023.084-.024.084-.025.084-.026.084-.026.084-.027.083-.028.083-.029.083-.03.083-.031.083-.032.082-.033.082-.034.082-.035.082-.036.082-.036.081-.037.081-.038.081-.039.081-.04.08-.041.08-.042.08-.043.079-.044.079-.044.079-.045.078-.046.078-.047.078-.048.077-.049.077-.05.076-.051.076-.051.076-.052.075-.053.075-.054.074-.055.074-.056.073-.057.073-.057.073-.058.072-.059.071-.06.071-.061.071-.062.07-.062.069-.063.069-.064.068-.065.068-.066.067-.066.067-.067.066-.068.066-.069.065-.069.064-.07.064-.071.063-.072.062-.072.062-.073.061L35,39.151l-.075.06-.075.059-.076.059-.077.058-.078.057-.078.056-.079.056-.079.055-.08.054-.081.054-.081.053-.082.052-.083.051-.083.05-.084.05-.085.049-.085.048-.086.047-.086.047-.087.046-.088.045L33.2,40.3l-.089.043-.089.042-.09.042-.09.041-.091.04-.091.039-.092.038-.093.037-.093.036-.094.036-.094.035-.094.034-.095.033-.1.032-.1.031-.1.03-.1.029-.1.028-.1.027-.1.026-.1.025-.1.024-.1.023-.1.023-.1.021-.1.021-.1.02-.1.019-.1.018-.1.017-.1.016-.1.015-.1.014-.1.013-.1.012-.1.011-.1.01-.1.008-.1.008-.1.006-.1.006-.1,0-.1,0-.1,0h-.314l-.1,0-.105,0-.105,0-.105,0-.105-.006-.105-.007-.105-.008-.105-.009-.106-.01-.105-.011-.106-.012-.105-.013-.106-.014-.105-.015-.105-.017-.105-.018-.105-.019-.105-.02-.105-.021-.1-.022-.1-.023-.1-.024-.1-.025-.1-.026-.1-.027-.1-.028-.1-.029-.1-.03-.1-.032-.1-.033-.1-.034-.1-.035-.1-.036-.1-.037-.1-.038-.1-.039-.1-.04-.1-.041-.1-.042-.1-.043-.1-.044-.1-.045-.1-.046-.1-.047-.1-.048-.1-.049-.1-.05-.1-.052-.1-.052-.1-.054-.1-.055-.1-.056-.1-.057-.095-.058-.094-.059-.094-.06-.093-.061-.093-.062-.092-.063-.091-.064-.091-.065-.09-.065-.09-.067-.089-.067-.089-.068-.088-.069-.087-.07-.087-.071-.086-.072-.085-.073-.085-.074-.084-.075-.083-.076-.083-.077-.082-.078-.081-.079-.081-.079-.08-.08-.079-.081-.078-.082-.078-.083-.077-.084-.076-.085-.075-.085-.074-.086-.074-.087-.073-.088-.072-.089-.071-.09-.07-.09-.069-.091-.068-.092-.067-.093-.067-.094-.066-.094-.065-.1-.064-.1-.063-.1-.062-.1-.061-.1-.06-.1-.059-.1-.058-.1-.057-.1-.056-.1-.055-.1-.054-.1-.053-.1-.052-.1-.051-.1-.05-.105-.049-.106-.048-.106-.047-.107-.046-.108-.045-.108-.044-.109-.043-.109-.042-.11-.04-.11-.039-.111-.038-.111-.037-.112-.036-.112-.035-.113-.034-.113-.033-.114-.031-.114-.03-.114-.029-.115-.028-.115-.027-.116-.026-.116-.024-.116-.023-.117-.022-.117-.021-.117-.02-.118-.018-.118-.017-.118-.016-.119-.015-.119-.014-.119-.012-.119-.011-.12-.01-.12-.009-.12-.008-.12-.006-.12-.005-.121,0-.121,0-.121v-.364l0-.121,0-.122.005-.122.006-.122.008-.122.009-.122.01-.122.011-.122.013-.122.014-.122.015-.122.016-.122.018-.122.019-.122.02-.122.021-.122.023-.121.024-.121.025-.121.027-.121.028-.121.029-.121.03-.121.032-.12.033-.12.034-.12.036-.12.037-.119.038-.119.039-.119.041-.119.042-.118.043-.118.044-.118.046-.117.047-.117.048-.117.049-.116.051-.116.052-.116.053-.115.055-.115.056-.114.057-.114.058-.113.059-.113.061-.112.062-.112.063-.111.064-.111.065-.11.067-.11.068-.109.069-.109.07-.108.071-.107.073-.107.074-.106.075-.106.076-.1.077-.1.078-.1.08-.1.081-.1.082-.1.083-.1.084-.1.085-.1.086-.1.087-.1.088-.1.09-.1.091-.1.092-.095.093-.094.094-.093.095-.092.1-.091.1-.09.1-.09.1-.089.1-.088.1-.087.1-.086.1-.085.1-.084.1-.083.106-.082.107-.081.108-.08.109-.079.109-.078.11-.077.111-.076.112-.075.113-.074.114-.073.115-.072.116-.071L24,19.34l.117-.069.118-.068.119-.066.12-.065.12-.064.121-.063.122-.062.123-.061.123-.06.124-.058.125-.057.125-.056.126-.055.127-.054.128-.052.128-.051.129-.05.129-.049.13-.048.131-.046.131-.045.132-.044.132-.043.133-.041.134-.04.134-.039.135-.037.135-.036.135-.035.136-.033.136-.032.137-.031.137-.03.138-.028.138-.027Zm1.7,9.925-1.576.376-.093-7.8-.074.017-.112.026-.112.027-.111.028-.111.03-.11.031-.11.032-.109.033-.109.034-.108.035-.108.036-.107.037-.107.038-.106.039-.106.04-.105.041-.1.042-.1.043-.1.044-.1.045-.1.046-.1.047-.1.048-.1.049-.1.05-.1.05-.1.051-.1.052-.1.053-.1.054-.1.055-.1.056-.1.057-.094.058-.093.059-.093.059-.092.06-.091.061-.09.062-.09.063-.089.063-.088.064-.087.065-.087.066-.086.067-.085.067-.084.068-.084.069-.083.07-.082.07-.081.071-.08.072-.079.073-.079.073-.078.074-.077.075-.076.075-.075.076-.074.077-.073.077-.073.078-.071.078-.071.079-.07.08-.069.08-.068.081-.067.081-.066.082-.065.082-.064.083-.063.084-.062.084-.062.085-.06.085-.06.086-.059.086-.058.087-.057.087-.056.087-.055.088-.054.088-.053.089-.052.089-.051.09-.05.09-.049.09-.048.091-.047.091-.046.092-.045.092-.044.092-.043.092-.042.093L21,26.265l-.04.094-.039.094-.038.094-.037.094-.036.094-.035.094-.034.1-.033.1-.032.1-.031.1-.03.1-.029.1-.027.1-.027.1-.026.1-.024.1-.023.1-.022.1-.021.1-.02.1-.019.1-.018.1-.017.1-.016.1-.015.1-.014.1-.013.1-.012.1-.011.1-.01.1-.009.1-.008.1-.007.1-.006.1-.005.1,0,.1,0,.1,0,.1v.289l0,.1,0,.1,0,.1,0,.1.006.1.007.1.008.1.009.095.01.095.011.094.012.094.013.094.014.094.015.093.016.093.017.093.017.093.018.092.019.092.02.092.021.091.022.091.023.09.024.091.025.09.026.09.027.089.027.089.028.088.029.088.03.088.031.087.032.087.033.087.034.086.034.085.035.085.036.084.037.084.038.084.039.083.039.083.04.082.041.082.042.081.043.081.043.08.044.079.045.079.046.078.046.078.047.077.048.077.049.076.049.076.05.075.051.075.051.073.052.073.053.072.053.072.054.071.055.071.055.07.056.069.057.069.057.068.058.067.059.067.059.066.06.065.06.064.061.064.062.063.062.062.063.062.063.061L23,36.6l.064.06.065.059.065.058.066.057.066.057.067.056.067.055.068.055.068.054.068.053.069.052.07.052.07.051.07.05.071.049.071.048.072.048.072.047.072.046.073.045.073.044.073.044.074.043.074.042.074.041.075.041.075.04.075.039.076.038.076.037.076.036.077.036.077.035.077.034.077.033.078.032.078.032.078.031.078.03.078.029.078.028.079.027.079.027.079.026.079.025.079.024.079.023.079.023.08.022.08.021.08.02.08.019.08.018.08.017.08.017.08.016.08.015.08.014.08.014.08.013.08.012.08.011.08.01.08.009.08.009.08.008.08.007.08.006.08.005.08,0,.08,0,.08,0,.08,0h.317l.079,0,.079,0,.078,0,.078,0,.079,0,.078-.006.078-.006.078-.007.078-.008.077-.009.077-.009.077-.01.077-.011.076-.012.076-.012.076-.013.076-.014.075-.015.075-.015.075-.016.074-.017.074-.018.074-.018.074-.019.073-.02.073-.02.073-.021.072-.022.072-.022.072-.023.071-.024.071-.024.07-.025.07-.026.07-.027.069-.027.069-.028.068-.028.068-.029.068-.03.067-.03.067-.031.066-.031.066-.032.066-.033.065-.033.065-.034.064-.035.064-.035.063-.036.063-.036.062-.037.062-.037.061-.038.061-.038.06-.039.06-.04.059-.04.059-.041.058-.041.057-.041.057-.042.056-.043.056-.043.055-.043.055-.044.054-.044.054-.045.053-.045.052-.046.052-.046.051-.047.051-.047.05-.047.05-.048.049-.048.049-.049.048-.049.047-.05.047-.05.046-.05.045-.05.045-.051.044-.051.043-.052.043-.052.042-.052.042-.053.041-.053.04-.053.04-.054.039-.054.039-.054.038-.055.037-.055.037-.055.036-.055.035-.056.035-.056.034-.056.033-.056.033-.056.032-.057.031-.057.031-.057.03-.057.029-.058.029-.058.028-.058.027-.058.027-.058.026-.058.025-.058.025-.059.024-.059.024-.059.023-.059.022-.06.021-.059.021-.06.02-.06.019-.059.019-.06.018-.059.018-.06.017-.059.016-.06L35.6,33.9l.015-.06.014-.06.014-.06.013-.06.012-.06.012-.06.011-.06.01-.06.01-.06.009-.06.008-.06.008-.06.007-.06.006-.059L35.75,33l.005-.059,0-.06,0-.059,0-.059,0-.059,0-.059V32.35l0-.058,0-.059,0-.058,0-.059,0-.057,0-.058-.005-.058-.006-.057-.006-.057-.007-.058-.008-.056-.008-.057L35.7,31.6l-.01-.056-.01-.056-.011-.056-.011-.055-.012-.056-.012-.055-.013-.055-.013-.054-.014-.054-.015-.054L35.568,31l-.016-.054-.016-.053-.017-.053-.017-.052-.018-.052-.018-.052-.018-.051-.019-.051-.02-.051-.02-.051-.021-.051-.021-.05-.022-.05-.022-.049-.023-.049-.023-.049-.023-.048-.024-.048-.024-.048-.025-.047-.025-.047-.026-.047-.026-.046-.027-.046-.027-.046L35,29.711l-.028-.045-.028-.044-.029-.044-.029-.044-.029-.043-.03-.043-.03-.043-.03-.042-.031-.042-.031-.041-.031-.041-.032-.04-.032-.04-.033-.04-.033-.039-.033-.039L34.481,29l-.034-.038-.034-.037-.035-.037-.035-.036-.035-.036-.036-.036-.036-.035-.036-.035-.036-.034-.037-.034-.037-.033-.037-.033-.037-.032-.038-.032-.038-.031-.038-.031-.038-.03-.039-.03-.039-.03-.039-.029-.039-.029-.04-.028-.04-.028-.04-.027-.04-.027-.04-.026-.04-.026-.04-.025-.041-.025-.041-.024-.041-.024-.041-.023L33.224,28l-.041-.022-.041-.022-.042-.021-.042-.021-.042-.021-.042-.02-.042-.019-.042-.019-.042-.019-.043-.018-.042-.017-.043-.017-.043-.017-.043-.016-.043-.016L32.55,27.7l-.043-.015-.043-.014-.043-.014-.043-.013-.043-.013-.043-.012-.043-.012-.043-.011-.043-.011-.043-.011-.043-.01-.043-.01-.043-.009-.043-.009-.043-.008-.043-.008-.043-.007-.042-.007-.043-.006-.042-.006-.043-.005-.042,0-.042,0-.042,0-.042,0-.042,0-.042,0-.042,0-.042,0h-.289l-.041,0-.04,0-.041,0-.04,0-.04,0-.04,0-.04,0-.04,0-.039,0-.039.005-.039.006-.039.006-.039.006-.039.007-.038.007-.038.008-.038.008-.038.008Z" transform="translate(219.809 239.966)" fill="#fff" fill-rule="evenodd" opacity="0.59"/>
  </g>
</svg>
